<?xml version="1.0" encoding="UTF-8"?><svg id="Capa_1" xmlns="http://www.w3.org/2000/svg" viewBox="0 0 1320.13 317.5"><defs><style>.cls-1{fill:#ef6293;}.cls-2{fill:#e08a3a;}.cls-3{fill:#9ecbbc;}.cls-4{fill:rgba(63,51,65,.96);}.cls-5{fill:#e9cd5a;}.cls-6{fill:rgba(36,45,41,.01);}.cls-7{fill:#5864c4;}.cls-8{fill:#518664;}.cls-9{fill:#9890c0;}</style></defs><path d="M1167.6,10.15c-.3-2.1-.79-4.7-2.66-6-.99-.7-2.37-.6-3.55-.6l-.99,.1c-7.99,1.2-40.56-.6-44.31,3.9-.99,6.9,.2,14.6,.3,21.6,.1,6.1-.59,12.2-.1,18.3,.2,2.2,.39,6.5,1.97,8.2,.49,.5,.89,.8,1.48,1.1,8.59-.2,34.15,.6,40.36-.7,1.58-.3,3.16-1,4.24-2.3,4.05-4.6,3.95-36.6,3.26-43.6Z"/><path class="cls-7" d="M1120.1,9.45c13,1.7,27.7,.4,40.8,.3,.3,.5,.6,1,.8,1.5,2.1,5.9,.6,32.7-1.9,38.5l-.6,.4h.5c-2,1.1-35.4,1.6-40.3,1.6,2.6-5.3,1.1-34.9,.7-42.3h0Z"/><path d="M697.5,2.85c2,.3,2.9,.1,4.5,1.4,2.4,6.2,2.8,43.2-.1,49.1-.6,1.3-1.3,1.8-2.7,2.2-.2,0-.3,.1-.5,.1-14.8,1.8-30.3,1-45.2,1.2-3.1-16.7-1.5-34.5-2.4-51.5,7.4-.3,42.7,.2,46.4-2.5Z"/><path class="cls-9" d="M656.2,9.25c10.8,2.1,30.8,.8,42.3,.2,.2,6.4,.8,36.9-1.9,40.8-13.2,.1-26.3,1.2-39.5,1.6-1-14.3,1.6-28.1-.9-42.6h0Z"/><path d="M1097.9,258.85c1.2,0,2.8-.4,3.8,.4,1.9,1.4,2.4,4.6,2.8,6.8,1.3,8.9,1.4,37.7-3.9,44.8-4.7,1.9-34.7,1.4-41.9,1.5-1.4-.2-2.6-.4-3.9-.9-4.9-5.9-1.5-37.9-2.5-47.6-.1-1.2,.1-1.2,.6-2.2,7-4.1,34-1.1,44.2-2.7l.8-.1Z"/><path class="cls-3" d="M1056.6,264.75c13.8-.9,27.9,2.1,41.7-.3,.9,1.8,1.1,3.7,1.3,5.7,.4,6,.5,31.5-2.6,34.9-2.5,1.2-34.6,1.3-40.2,1.6,2.6-5.2,1.6-35.7-.2-41.9h0Z"/><path d="M1151.9,73.45c4.8-.5,10.4-.4,14.6,2.4,2,1.3,3.2,3.2,3.8,5.5,.3,.6,.5,1.1,.6,1.7,1.7,7.8,.2,20.5,.1,28.7-.5,34.2-3,68.6-2.4,102.9,.3,17.5,9.8,80,.2,92.7-3.1,4.1-24.3-.2-30.2,.3l-.8,.1c-3.2,1.1-10.6,1.5-13.8,.4-1.8-.6-3-1.3-3.8-3-4.8-10.6,0-92.7,.7-111.1,.3-9.6,.3-19.3,.2-28.9-.2-13.9-1-28.1-1.9-42-.8-12.6-2.3-26.3-1-38.8,.1-1.2,.4-2.3,.9-3.4,5.9-3.8,25.1-6.1,32.8-7.5h0Z"/><path class="cls-7" d="M1148,78.75c4.3-.4,12.1-1.6,15.7,.9,2,1.4,2.8,5.2,3.2,7.5,1.6,8.9-.1,18.9-.7,27.8-.4,8.4-.8,16.8-1.1,25.3-1.1,27.8-2.8,55.7-1.6,83.5,.4,9.7,1.8,19.5,2.7,29.2,1.1,10.4,4.8,42.3-1,50.4-7.9-.9-15.8-2-23.7-2.1-5.7,.7-11.5,.9-17.2,1.3,1.6-4.2-1.1-37.9-1.1-45.3,.1-12.2,1.3-24.5,2-36.7,.7-14.5,1.3-28.9,1.7-43.4,.6-23.4-1.1-47.6-3-71-.6-7.3,.3-16.6-2.2-23.5,8.6-.4,17.6-2.3,26.3-3.9h0Z"/><path d="M657.6,78.65c2.8,.6,5.8-.3,8.6-.8,12.5-2.4,31.1-10.4,40.6,2.1,2.2,6.5,1.9,12.8,1.7,19.6-.2,2.4-.5,4.9-.5,7.4-1.3,36.7-3.4,73.7-2.6,110.4,.6,25.7,7.4,58,2.9,83-1,5.9-4.1,8.2-8.8,11.5-14.2-8.5-29.1-.1-43.4-4.9-5.2-42,1.7-84.5,1.5-126.5-.2-25.2-1.9-50.4-2.7-75.5-.2-6.2-1.4-16.3-.3-22.2,.4-2.3,1.5-2.8,3-4.1h0Z"/><path class="cls-9" d="M685.9,78.65c2.7-.4,6.3-.7,9-.4,2.8,.3,5.5,1.5,7.2,3.8,1.7,2.4,1.9,5.9,1.9,8.7,.4,13.1-1.3,26.8-2.2,39.9-.9,14.5-1.1,28.9-1.5,43.4-.5,17.9-1,36,.1,53.9,1.4,24.8,6.9,50.6,2.1,75.3-8-.8-16-1.7-24-2-5.8,.4-11.5,.8-17.3,1.3-1.6-25.4-1.3-51.2-.1-76.6,.6-12.8,1.9-25.5,2.2-38.3,.9-34.6-1.1-70.3-4.8-104.8,9.1-.6,18.3-3,27.4-4.2h0Z"/><path d="M636.7,34.75c-.3-6.4,.4-13.2-.7-19.4-.4-2.5-1.2-5.4-3.1-7.2-3.6-3.4-12.5-4.4-17.1-4.9-13-1.4-26.4-.7-39.4-.7-22.1,0-44-.1-66.1,1-6.1,.2-13.4-.1-18.9,2.3-1.5,1.6-1,4.8-.9,7,.2,6.6,1.3,13.2,1.6,19.8,.39,9.07-.37,18.53,1.05,27.52,.15,.17,.27,.35,.39,.53,10.14,4.84,26.78,.55,37.76,.25,4.3,21,3.2,43.7,4.2,65.1,.5,11.5,2.2,22.9,1.8,34.4-.4,11.7-3.4,23.4-4.4,35-1,11.9-.2,23.8-1,35.6,0,3.1,.2,6.5-.1,9.6,.5,15,0,30.4-.7,45.4-.4,8-3.7,18.3-1.9,26.1,3.8,2.3,18.8,.7,23.8,1,7.03,.3,14.54,2.25,21.48,1.9l.12-.1c1.04,.12,2.06,.23,3.09,.34,3.82-.12,7.64-.21,11.46-.26,.48-.12,.97-.25,1.45-.38,1.7-4.9,2.3-9.7,2.3-14.9,0-10.4-1.8-20.8-2.6-31.2-1-13.1-1.3-26.4-1.5-39.6-.6-37,1.8-73.9-.5-110.9-.6-10.5-1.5-21.3-2.9-31.7-.7-5.5-3.6-13.3-3.1-18.6,1.3-13.3,42.4,.6,52.2-8.5,2.4-2.2,2.9-5.6,3-8.7,.2-5.2-.6-10.6-.8-15.8Z"/><path d="M577.66,315.29c-1.02-.11-2.04-.23-3.06-.34l-.52,.46c1.19-.04,2.38-.08,3.57-.11Z"/><path class="cls-8" d="M543.2,7.45c15,.3,29.7,0,44.7-.3,9.2-.2,35.7-.9,42.3,5.5,1.5,3.3,3.2,34.9,2.5,38.8-.2,1.5-.7,3.5-1.9,4.5-7.8,7.1-37.3-5.3-48.3,3.3-2.3,1.8-3.1,4.9-3.4,7.6-1.2,11.6,1.3,24.2,2.3,35.7,1.3,15.4,2.1,31,2.5,46.4,.8,32.2-2.5,64.3-1.4,96.5,.8,21.1,6.6,43.4,3.7,64.3-17.1,.5-34.1-4.6-51.3-2,3.6-33.4,1.5-67,2.4-100.4,.4-15.4,4-30.2,4.8-45.5,.7-12.4-1.1-25-1.6-37.4-1-22.7,0-46.9-4.8-69.1-12.7-.6-25.3,2-38,1.8-.1-16.5-.1-32.5-4-48.6,16.5,0,33-.7,49.5-1.1h0Z"/><path d="M232.4,13.95c-2-4.6-5.7-6.2-10.1-7.8-5,.9-11,.2-16.1,.2-7.7,0-15.3,.2-23,.4-33.5,.7-66.9,1.5-100.5,1.4-16.7-.1-35,.8-51.5-2-3.9-.7-10-2.4-13.7-1.6-3.1,6.1-1.6,40.7,.7,47.9,2.3,2.9,6.5,3.7,10,4,9.4,.9,19.3,2.1,28.7,2.3,12.6,.4,26.5-.4,38.9,1.5,2.2,.4,3.7,.7,5.3,2.4,4,13.1-3.9,61.9-4.4,79.5-.5,19.1,1.3,38.3,2,57.4,.5,14.9,.1,29.8-1.3,44.6-.4,4.4-.3,10.3-2.4,14.3-.9,1.5-2.1,2.6-3.8,3-4.7,1.2-33.6-4.7-42.5-4.6,.8-12.6,3.8-79.6,.5-86.5-4.7-4.9-13.7-4.8-20.1-5-5.8-.2-15.6-.7-20.6,2.4-1.8,2.7-2.3,5.9-2.5,9.1-.7,9.8,.1,20.1,.3,30,.4,16.4,.1,32.9-.8,49.3-.4,6.8-.8,13.7-1.8,20.5-.7,4.5-2,9-2.5,13.5-.06,.82-.21,1.32-.5,1.83-.03,1.2-.28,2.38-.7,3.51v.26c17.5,10.4,83.7,6.7,106.7,6.7,8.6,0,17.2,.5,25.8,1.5,1.57,.13,4.08,.18,6.23,.49,.2-.02,.39-.02,.59,0,1.55,.14,3.13,.07,4.68,.16,.03-.02,.06-.03,.09-.05,6.2-4.8,5.8-58,5.9-68.2-.7-15.5-.3-31.2-.4-46.7,0-18.3,.6-36.5,1.6-54.8,1.5-25.3,4.8-51.2-.7-76.2,2.8-1,5.7-1.7,8.6-2.4,3.5-.9,7.3-1.5,10.9-1.3,14-2.8,30.5-1.7,44.6-.2,4.8,.5,9.8,1.8,14.6,1.7,1.3-.9,1.7-1.1,2.3-2.6,1.8-4.6,2.9-35.3,.9-39.9Z"/><path class="cls-7" d="M21.9,8.85c39.4,4.3,78.9,5.9,118.6,4.9,14.4-.5,28.7-1.1,43.1-1.9,10.1-.6,20.3-1.9,30.4-1.7,5,.1,9.4,1.1,13.5,3.9,2.6,4.7,.4,31.1,.2,37.8-1.1-.3-2.3-.6-3.4-.8-13.4-2.9-68.1-5.3-78.9,1.7-2.4,4.1-.4,24.9-.3,31.3,.1,11,.8,22.3,.5,33.3-.7,22-2.8,43.9-2.9,65.9-.1,21.7,1.5,43.3,.9,65-.5,16.5-1.5,33.2-4.2,49.5-32.6-3.5-65.1-1.3-97.9-2.4-11.1-.7-21.9-2.5-32.9-3.9,6.8-32.6,3-83.3,2.2-117.5,11.4,.4,23,1.8,34.4,2.9,.8,14.1-.4,28.2-1.1,42.3-.8,14.8-.9,29.6-.4,44.4,10.7-.8,20.9,.7,31.4,2.2,5.2,.8,10.5,1.9,15.7,1.7,2.8-.1,5.5-.5,7.4-2.7,14.1-16.1,3.6-99.5,3.9-123.4,.2-13,2.2-26.1,3.2-39.1,1.1-15.5,1.1-31.1,0-46.6-23.3-1.5-46.2-4.5-69.7-4-4.1,.1-8.7,.5-12.6-.9-2.1-4.2-.7-34.3-1.1-41.9h0Z"/><path d="M737.2,20.55c.3-4.2,0-10.8,3.2-13.9,1.4-1.3,3.5-1.3,5.3-1.5,16.4-1.3,32.9-1.2,49.3-2.2,7-.4,14-.7,20.9-1.3,8.6-.7,17.2-2.1,25.8-1.5,11.5,.8,23.3,2.1,34.2,5.6,4.7,9.7,2.6,22.5,2.9,33.1,.4,14.6,3.1,29.3,2.5,43.9-.3,8.2-2,16.2-2.7,24.4-1.1,12.3-1.6,24.7-2.7,37-1.4,16-3.7,32.2-4,48.3-.3,13.8,2.3,27.3,2.8,41,.4,11.4,1,22.9,.8,34.3-.1,10.8-1,21.7-1,32.6-2.5,3.5-5.7,8.1-10.3,8.8-5.2,.8-12-.9-17.4-1.1-6.5-.2-13.1,.2-19.5-.4-2.5-.2-4.9-.9-7.4-1.5-.2-13.4-4.5-26.5-4.2-40.1,.4-18.8,4.9-37.2,6.4-55.9,1.3-18.1,2-36.3,2.2-54.5,.1-13.5-1.6-90.9-7.1-96.8-1.6-1.7-4.1-3-6.1-4.2-5-.1-9.6-.5-13.5,3.3-3.8,3.8-5.3,9.5-5.9,14.7-.7,6.5-.4,13.4-.3,19.9,.1,13.2,.6,26.5,.2,39.8-.7,25.6-2.9,51.1-3.7,76.7-.5,15.8-.3,31.7,.2,47.5,.3,8.7,1.1,17.4,2.3,26,.7,5.3,2.4,11.6,2.2,16.9-.1,2-.4,4-1.8,5.5-1.4,1.5-3.2,2.1-5.2,2.5-6.4,1.2-31.6,1.1-39.4,1.1-3.2,0-5,.2-7.4-2.1-2-5.5-1.3-21.9-1.5-28.9-.9-24.6-2.3-49.1-1.6-73.7,.2-7.7,1.1-15.3,1.5-23,1.6-35.3,3.4-71.5,.2-106.8,1.3-17.7-1.6-35.5-.2-53.5h0Z"/><path class="cls-2" d="M820.6,7.45c15.4-2.1,37.6-.3,53,2.9,.5,9.3-.6,18.9-.5,28.2,.2,12.6,1,25.2,.9,37.8-.1,18.7-1.3,37.5-2.8,56.1-1.6,20.2-4.8,40.6-5.4,60.8-.7,26,11.7,87.1-.5,108.3-2,1-4,1.2-6.2,1.3-5,.3-10.1-.4-15.1-.5-6.2-.1-12.5,.5-18.7,.9-2.2-14.5-4.7-34.4-3.3-49,1.1-11.3,4-22.2,4.9-33.6,2.2-25.5,3.4-50.7,3.3-76.3-.1-17.2-1.1-34.3-2-51.5-.5-9.3-.4-19.3-2.4-28.4-.9-4-2.1-7.9-5.2-10.8-4.4-4-10.3-4.1-15.8-4-2.1,.4-4.3,1.1-6.2,2-5.1,2.5-9.9,7.9-11.3,13.5-4,16.1-1.5,34.9-1.3,51.3,.1,13-.5,26-.8,39-.1,6-.1,12.2-.6,18.2-.7,7.8-2,15.4-2.5,23.2-1.1,18.8-.8,37.9-.1,56.8,.2,6.5,.5,13,1.1,19.5,.6,6.6,4.6,22.9,2.8,28.2-10.2,1.7-30.4,1-41.6,1.2-.9-33.1-2.8-66.2-2.1-99.4,.5-23.8,3.3-47.5,3.4-71.4,.1-40.8-2.9-81.4-2.2-122.2,26.1,1.5,51.3-.1,77.2-2.1h0Z"/><path d="M992.6,.85c10-.4,20.4-1.1,30.4-.6,4.7,.2,9.7,.8,13.1,4.5,1.6,2.3,2.5,4.6,2.9,7.4,1.9,13.8-1.8,35.8-1.8,50.8,0,24.3,2.8,48.6,3.2,73,.5,28.2-1.9,56.5-2.2,84.7-.2,25.2,1.7,50.4,.4,75.6-.1,2.8-.4,5.3-2.2,7.7-4.4,2.5-12.6,2.9-17.7,3.5-7.1,.8-22.5,1.7-28.1-3.2-1.8-1.5-2-5.1-2.2-7.4-.6-9.8,1.2-19.8,.8-29.6-.4-10.6-2.9-20.9-3.3-31.6-.2-4.2-.6-10.1-4.1-13-4.8-4-16.1,1.2-21.8,2-1.4,1.6-3.8,1.2-4.7,3.4-5.8,13.5,3.2,63.1-1.6,72-3.2,1.9-10.4,2.2-14.2,2.5-7.7,.6-25.4,2.3-31.4-2.8-2.8-6.7-1.6-20.9-1.8-28.5-.7-26-2.5-52.4-1.5-78.4,.9-23.1,4.5-46.1,4.7-69.1,.1-12.5-1-24.9-1.7-37.3-.6-13.5-1-27.1-1-40.6-.1-12-1-25.6,2.8-37.2,.9-.9,3.1-3.2,4.3-3.5,4.6-1.1,10.9-.8,15.8-1.1,21.1-1.8,41.9-2.5,62.9-3.2h0Zm-21.4,6c-19.3,.9-38.2,2.4-57.5,2.2-2.7,12.9-1.5,27.1-1,40.2,.8,21.9,2.6,43.9,2.9,65.8,.3,24.6-3.7,49.1-4.1,73.7-.3,19.3-.8,38.9-.4,58.1,.4,16.6,2,33.1,1.4,49.8,12.7,1,25,.5,37.6-.4-.2-19-3.9-58.6,1.8-74.8,8.1-1.5,17-5.5,25.1-5.5,4.2,.2,7.7,.9,10.7,4.2,1.2,1.3,1.8,2.7,2.2,4.5,1.2,5.8,.8,11.7,1.4,17.5,1,9.4,3.6,18.7,3.5,28.2-.1,4.7-2.8,26.6-.6,29.3,1.6,2,5.5,2.4,7.9,2.6,9.6,.7,19.8-.8,29.3-2.3,2.4-4.2,1-81.9,1.3-94.2,.5-21.4,2.7-43,2.3-64.4-.4-26.4-4-53-3.9-79.5,.1-14.4,5.6-38.8,2.2-51.7-.3-1.1-.8-2-1.4-2.9-9.1-1.9-49.9-1.2-60.7-.4h0Z"/><path class="cls-5" d="M971.2,6.85c10.8-.8,51.6-1.5,60.8,.5,.6,.9,1.1,1.8,1.4,2.9,3.3,12.9-2.1,37.2-2.2,51.7-.2,26.4,3.5,53,3.9,79.5,.3,21.4-1.8,43-2.3,64.4-.3,12.3,1.1,90-1.3,94.2-9.5,1.4-19.7,3-29.3,2.3-2.4-.2-6.3-.6-7.9-2.6-2.2-2.7,.5-24.6,.6-29.3,.1-9.5-2.5-18.8-3.5-28.2-.6-5.8-.3-11.7-1.4-17.5-.3-1.7-1-3.2-2.2-4.5-3-3.3-6.5-4-10.7-4.2-8.1-.1-17,4-25.1,5.5-5.8,16.3-2.1,55.8-1.8,74.8-12.7,.9-25,1.4-37.6,.4,.6-16.7-1-33.2-1.4-49.8-.5-19.3,.1-38.8,.4-58.1,.4-24.6,4.4-49.1,4.1-73.7-.3-21.9-2.1-43.9-2.9-65.8-.5-13.1-1.7-27.3,1-40.2,19.2,.1,38.1-1.5,57.4-2.3h0Zm-6.3,40.2c-3.2,.4-7.6,.4-9.8,3.2-2.5,3.1-1.3,13.7-1.5,18-.4,7.8-1.2,15.6-1.5,23.4-.5,13.5-.2,27.1-.2,40.6s-.2,26,1.7,38.9c.4,2.4,.7,7.1,2.6,8.8,6.7,1.8,18.5-.1,25.5-1.1,4.3-.2,8.8-.3,13-1.7,.6-1.1,1-2.1,1.1-3.4,1.1-10.3,.4-21.2,.8-31.6,.6-17.4,2-34.8,1.7-52.2-.1-10.6-.2-27.1-2.7-37.3-.2-.9-.6-1.7-1.1-2.5-8.1-3-20.8-3.4-29.6-3.1Z"/><path d="M964.9,47.05c8.7-.2,21.4,.1,29.6,3.1,.5,.8,.9,1.6,1.1,2.5,2.5,10.1,2.5,26.7,2.7,37.3,.2,17.4-1.1,34.8-1.7,52.2-.4,10.4,.3,21.3-.8,31.6-.1,1.2-.5,2.3-1.1,3.4-4.1,1.3-8.7,1.4-13,1.7-7,1-18.8,2.8-25.5,1.1-1.9-1.7-2.2-6.3-2.6-8.8-1.9-12.9-1.7-25.9-1.7-38.9s-.2-27.1,.2-40.6c.3-7.8,1.1-15.6,1.5-23.4,.2-4.2-1-14.9,1.5-18,2.2-2.8,6.6-2.8,9.8-3.2h0Zm-6.7,5.3c1.4,13.3-.4,26.9-.7,40.2-.4,17.9,0,35.8-.3,53.7-.1,4.7,1.5,27.7,.8,29.4,9.5-1.3,20.1-.5,29.3-2.6,.9-.2,2.7-.3,3.1-1.1,1.9-3.7,.9-27,1-32.4,.2-15.8,3-73.3-1.8-84.6-10.7-1.5-20.4-3.8-31.4-2.6h0Zm35.8,54.7c2.1,10.5-.5,22.2,.2,32.9,0,.5,.1,1,.1,1.5,.8-3.1,1.8-31.8,.8-33.7-.3-.6-.4-.5-1.1-.7h0Zm-.8-49.2c.3,4.2,.3,8.5,.8,12.7,1.8-3.3,.7-8.3,.1-11.9l-.9-.8h0Z"/><path d="M159.2,56.25c-2.9,.7-5.8,1.4-8.6,2.4,5.5,25,2.2,50.9,.7,76.2-1,18.3-1.6,36.5-1.6,54.8,.1,15.5-.3,31.2,.4,46.7-.1,10.2,.3,63.4-5.9,68.2-.03,.02-.07,.04-.1,.06,.14,0,.28,.02,.42,.03,6.07-5.41,5.68-57.96,5.78-68.09-.7-15.5-.3-31.2-.4-46.7,0-18.3,.6-36.6,1.6-54.8,1.5-25.2,4.8-51.2-.7-76.2,2.8-1,5.7-1.8,8.6-2.4,2.8-.8,5.72-1.24,8.67-1.3,.28-.04,.57-.07,.88-.07,.21,0,.4,.01,.6,.03,0,0,0,0,.01,0-3.38-.39-7,.19-10.36,1.14Z"/><path d="M315.5,112.85c0-20.7-1.2-41.5-1.7-62.2-.3-11.6,.4-23.4-.3-34.9-.1-1.8-.1-3.8-1.3-5.2-5-2.7-13.6-.6-19.3-.9-7-1-19.4-3.9-25.9-1l-1,1c1.7,10.3,.7,22.3,.8,33-.3,30.1-2,60.1-3,90.2l-3,80c-.6,15.9,0,31.2-3.4,46.9-7.6,1.5-20.9,3.8-27.7-.5-1.8-1.2-2.3-3.4-2.7-5.4-2.1-11.5,.3-26.6,.9-38.4,.5-10.5,.3-21.1,.9-31.6,1.1-18.2,8.8-102.2,3.9-114.7-.97-.49-1.8-.82-2.72-1.08-.48-.07-.97-.18-1.45-.34-.04,0-.08,.02-.13,.02-12.5-1.1-25.6-.4-38.2-.6-2.2,.2-4.4,0-6.1,1.5-1.6,7.6-.6,16.6-.5,24.4,0,8.6-.1,17.2-.3,25.8-.7,43.6-1.2,87-4.1,130.5-.6,9.4-3.3,49.6,.6,56.2,2.1,3.5,8.5,5.9,12.3,6.6,15.8,3,34.8,.5,51,.5,11.49,0,22.7,1.58,34.17,3.13,.59-.03,1.16-.02,1.73,.02,4.01-.45,10.02-.39,13.5,1.44h-4.4c.12,.02,.25,.04,.37,.05,2.56,.27,5.26,.24,7.88,.07,4.55-1.8,9.19-1.71,13.74-4.32,1.1-1.4,.9-1.7,.8-3.4-3.7-10.9-1.8-25.3-.2-36.6v-3.5c.7-4,1.4-7.9,1.7-11.9,1-11.6,1.6-23.4,1.6-35,0-7.5-.5-14.9-.4-22.3,.5-29.2,1.8-58.4,1.9-87.5Z"/><path d="M994.1,58.65l-.9-.8c.3,4.2,.3,8.5,.8,12.7,1.8-3.3,.7-8.3,.1-11.9Z"/><path d="M995.2,107.75c-.3-.6-.5-.4-1.2-.7,2.1,10.5-.6,22.2,.3,32.9,.1,.5,.1,1,.1,1.5,.8-3.1,1.7-31.8,.8-33.7Z"/><path d="M288.1,317.25h4.4c-3.58-1.84-9.5-1.9-13.5-1.44,.76,.06,1.51,.18,2.26,.33,2.3,.26,4.53,.83,6.85,1.11Z"/><path class="cls-3" d="M270.3,12.35c11.8,2.4,28.5,2.8,40.5,2.5-2,23.1-1.1,46.2-.8,69.3,.2,18.1,.1,36.2-.2,54.3-.3,15.2-1.5,30.4-1.6,45.6-.1,19.6,.9,39.5-.2,59.1-.9,16.3-4.8,32.3-5.1,48.6-.1,6.4,1.1,12.5,2.7,18.7-21,1.7-41.5-3.1-62.4-4.1-22.1-1.1-36.1,4.6-59.3-1.7-2.1-17.1,0-40,1-57.4,1.7-30.8,3.8-61.1,3.1-92-.4-27.3,.7-54.7,.7-82,10.2,1.2,20.1,0,30.2-.1,2.9,0,7.1-.4,9.2,1.7,3.3,12.8-3.4,72-4.5,89.1-1.8,28.1-3,56.3-3.6,84.5-.1,3.7-.4,11.6,2.4,14.3,6.7,6.3,33.9,6.1,43.2,6,0-39.1,.8-78.2,2.4-117.3,1.9-46.4,4-92.8,2.3-139.1h0Z"/><path d="M1318.7,309.35c-7.6,2.5-38.7,.4-48.3,.3-12.3-.1-24.7,.2-37,.6-7.5,.2-35.2,2.7-40.2,1.6-2.1-5.7-.6-73.8-.5-85.4,0-64,.7-128.1,2.1-192.1,.2-10-1.2-20.6,.2-30.4,12.6-2.6,37-.4,50.9-.4,24.3,0,48.3-1.5,72.5,.3,.8,1.9,1.2,2.7,.4,4.8-.1,.1-.1,.2-.2,.4,.4,1,.7,2,.8,3.2,.7,12.9,.8,143.9-.6,147.9,1.7,5.3,1.3,130.8,.6,145.6,.1,1.4-.1,2.4-.7,3.6h0ZM1196.4,8.75c2.3,4.8,1.6,15.5,1.7,21,.6,37.6,.9,75.2,.9,112.8,.4,35.4,.6,70.8,.6,106.2,0,8.1,1.2,48.2-.5,53.2-.2,.5-.3,.6-.5,1.1,33,.5,66,2.2,99,2,4.4,0,11.5,.9,15.5-.5l.3-.9c1.6-4.3,.1-59.8,.1-69.8,.1-22.9,3.7-216.4-.1-224.5-.1-.1-.1-.2-.2-.4-31,.6-62-.1-93,.2-7.5,.2-16.5-1.5-23.8-.4h0Zm122.6,151.4c1.5-4,1.3-135,.6-147.9-.1-1.1-.4-2.1-.8-3.2-.9,2.5-1,147.8,.2,151.1Zm-123.6-58.3c.4,5.1,.3,10.2,.3,15.3l.2-.1c.5-3.6,2.4-12.1-.1-14.8-.1-.2-.2-.3-.4-.4h0Z"/><path d="M1195.4,101.85c.2,.1,.3,.2,.5,.4,2.5,2.7,.6,11.3,.1,14.8l-.2,.1c-.1-5.1,0-10.3-.4-15.3h0Z"/><path class="cls-4" d="M1319,160.15c-1.1-3.3-1.1-148.6-.2-151.1,.4,1,.7,2,.8,3.2,.7,12.9,.8,143.9-.6,147.9h0Z"/><path class="cls-1" d="M1196.4,8.75c7.3-1.1,16.3,.6,23.8,.5,31-.3,62,.4,93-.2,.1,.1,.1,.2,.2,.4,3.8,8,.2,201.6,.1,224.4,0,10,1.4,65.6-.1,69.8l-.3,.9c-4,1.4-11.1,.4-15.5,.5-33,.2-66-1.5-99-2,.3-.5,.4-.6,.5-1.1,1.7-4.9,.5-45.1,.5-53.2,0-35.4-.2-70.8-.6-106.2,0-37.6-.3-75.2-.9-112.8-.1-5.5,.6-16.2-1.7-21h0Zm26.2,37.6c.5,13-1,28.8-1.1,42.4l-.5,146.7c0,6.8,1.6,27.8-.7,32.7,10.2,.3,61.6,.4,68.4-1.6,1.1-.2,2.3-.1,3-1,.4-.6,.6-1.2,.8-1.9,1.6-6.7,.6-15.4,.6-22.4,.1-24-.8-47.9-.8-71.9,0-16,1-32,1.3-48,.3-18.4,.1-36.7-.6-55.1-.2-5.3,.7-13.5-.8-18.5-.2-.5-.4-1-.7-1.5-.1-.1-.1-.2-.2-.3-22.7,.2-45.8-.2-68.7,.4h0Z"/><path d="M531.61,240.54c.14-1.55,.17-3.17,.15-4.79,0,1.55-.02,3.1-.16,4.59,0,.07,0,.13,0,.2Z"/><path d="M531.76,235.75c0-1.59-.05-3.18-.06-4.76,0,.02,0,.04,0,.05,0,1.52,.05,3.11,.06,4.71Z"/><path d="M532.7,195.15c-1.1,11.8-.2,23.8-1,35.6,0,.08,0,.16,0,.25,.79-11.78,0-23.66,1-35.55,1-11.6,4-23.3,4.4-35,.05-1.47,.07-2.95,.06-4.42,0,1.37,0,2.75-.06,4.12-.4,11.6-3.4,23.3-4.4,35Z"/><path d="M531.34,275.73c.47-11.72,.73-23.57,.27-35.19,0,.03,0,.07,0,.1,.39,11.58,.17,23.4-.26,35.08Z"/><path d="M528.47,307.26c-.08-6.9,2.11-14.79,2.43-21.21,.16-3.42,.31-6.86,.44-10.32-.13,3.35-.28,6.69-.44,10.02-.33,6.51-2.57,14.54-2.43,21.51Z"/><path d="M535.3,125.75c-1-21.4,.1-44-4.2-65.1-10.99,.4-27.64,4.6-37.77-.26,.1,.14,.2,.28,.29,.43,10.16,4.64,26.6,.43,37.48,.13,4.3,21,3.2,43.7,4.2,65.1,.44,10.03,1.78,19.98,1.86,29.98-.05-10.13-1.42-20.24-1.86-30.28Z"/><path d="M552.8,312.85c-5-.3-20,1.2-23.8-1-.34-1.45-.49-2.99-.53-4.59,.02,1.7,.17,3.35,.53,4.89,3.8,2.3,18.8,.7,23.8,1,6.98,.3,14.45,2.22,21.35,1.91l.35-.31c-6.9,.5-14.6-1.5-21.7-1.9Z"/><path d="M1293.1,66.35c-.2-5.4,.7-13.5-.8-18.5-.2-.5-.5-1-.7-1.5-.1-.1-.1-.2-.2-.3-22.9,0-45.9-.3-68.8,.3,.6,13-1,28.8-1,42.5l-.5,146.7c.1,6.8,1.6,27.9-.7,32.7,10.3,.3,61.6,.4,68.4-1.6,1.1-.2,2.3-.1,3-1,.5-.6,.6-1.2,.8-1.9,1.6-6.8,.6-15.4,.6-22.4,.1-24-.8-47.9-.8-71.9,0-16,1-32,1.3-48,.2-18.4,0-36.7-.6-55.1Zm-4.6,194.8c-.1,.5-.8,1.3-1.1,1.8-2.1,1.8-52.9-1.6-60.5-1.8,3.5-7.5,.5-104.9,.4-120.5-.1-29.8,1-59.8-.3-89.6,11.4-.6,23.1-.3,34.6,.1,8.5,.3,17.4,1.3,25.8,0,.1,.2,.3,.7,.4,1,.2,1-.3,28.9-.3,32.7l.2,85.6c0,13.7-1.1,27.7-.5,41.4,.4,8.3,2.7,43.6,1.3,49.3Z"/><path d="M466.2,129.55c-6.4-.9-15.1,1.3-21.6,1.8-13.2,1.1-31.7,1.5-44.7-.7-2.2-.4-3.8-.8-5.1-2.6-2.1-7.4,1.4-17.9,3-25.3,.36-2.33,.62-4.35,.66-6.55-.04,2.19-.29,4.19-.66,6.45-.6-.9-1.4-1.9-1.7-3-.5-1.8,.1-3.1,.9-4.7l.4,.1,1-1.4c-1.8-6.7-4.6-19.4-.8-25.5,1.1-1.8,3.3-2.4,5.2-2.8,5.4-1,11.5-.5,17-.8,8.1-.4,41.9-3,48.4-5,1.49-.45,2.64-1,3.59-1.66,.35-.72,.8-1.41,1.33-2.05,.51-.62,1.08-1.19,1.62-1.79,.07-.08,.43-.51,.64-.75,.03-.22,.52-1.28,.16-.17,.09-.27,.21-.52,.34-.77,.01-.88,.24-1.7,.68-2.47,.04-.06,.09-.11,.13-.17,.23-2.75,1-5.76,1.43-8.48,1.8-12,2.9-24.7-2.6-35.9-25.5-2.5-50.4-2.5-75.9-.9-19,.9-38.8,1.6-57.5-.3-1.7,1.9-3.2,3.8-4.6,6-.5,15.2-1.8,30.4-2.3,45.7-.6,18.7-.4,37.3-.6,55.9-.3,23-1.3,45,3.3,67.8,9.5,2.1,26.3,4.9,35.9,5.3,15.6,.6,32.9-7.5,47.1,1.8,1.5,11.4-1,23.1-1.5,34.5-.6,13,0,26.2-1.4,39.1-5.6,4.4-38.2,3-46.7,2.4-7.6-.5-23.5-3.7-30.2-.7-2.4,1.1-3.5,3.5-4.4,5.8,0,4.3-2.7,25.8-3.6,30.2,0,2.8-.1,5.7-.3,8.5,1.2,1.9,2.5,3.7,3.6,5.7,11.2,2.7,21.9,1.9,33.1,3.5l-.37,.11h7.83c8.82-.94,18.06-.2,26.94,.09h0s7.6,.1,7.6,.1l1.18,.32s0,0,0,0c.03,0,.06,0,.09,0l-1.18-.32c11.1,.1,22.4-.2,33.6,.1l-3.66,.67c.11,0,.22,0,.32,0l3.13-.58c5.3-.3,25.7,.8,29-1.9,.8-.7,.6-1,.7-2-1.1-9.3-1.2-18.8-1.5-28.2-.8-27.6,.2-55.1,3.1-82.5,.2-9.5,2-62.7-1.5-67.4-1.9-2.6-5.5-4.2-8.6-4.6Z"/><path class="cls-6" d="M412.68,316.27l-1.18-.32-7.7-.1,.4,.93h6.21c.64-.32,1.39-.51,2.27-.51Z"/><path d="M441.03,316.72l4.17-.77c-11.2-.2-22.4,.1-33.6,0l1.28,.32c9.38,.03,18.76,.33,28.15,.45Z"/><path d="M397.4,95.15l-.4-.1c-.8,1.6-1.4,2.9-.9,4.7,.4,1,1.1,2.1,1.7,3,.5-3.2,.8-5.8,.6-9.1l-1,1.5Z"/><path class="cls-1" d="M412.4,9.45c19.9-1.1,40.4,.2,60.3,.4,.5,8,2.1,36.7-2.8,42.2-1.5,1.7-3.9,2.5-6.1,2.9-6.1,1.4-12.9,1.1-19.2,1.6l-40,3.5c-4.1,.4-9.8,1.7-12.4,5.3-1.7,2.4-2.1,6-2.3,8.8-.5,7.9,1.9,16,2,24,0,12.5-4,24-2.5,36.7,12.1,2.1,31,3.3,43.4,2.9,11.7-.4,22.9-2,34.6-.7,3,2.8,2.6,14.2,2.8,18.2,.7,16.4,1.3,32.9,.3,49.3-1.1,18.9-3.8,37.8-4.2,56.8-.3,16.2,1.3,32.3,2.4,48.5-12.6,0-25.2,1-37.9,1.2-12.6,.2-25.3-.3-38-.6l-41.8-1.2c-2.6-.1-11.3-.3-12.9-2.6-2.7-3.9,3.4-34.4,4.7-40.6,7.4-.4,15.4,1.5,22.8,2,9.5,.6,48.4,1,55.1-2.5,1.7-.9,2.7-1.7,3.1-3.6,1.2-5.9-.9-19.3-.7-26.5,.4-14,3.6-29.4,3.5-42.5,0-3.7,0-7.6-2.3-10.6-1.4-1.9-3.7-3.7-6-4.3-12.3-2.8-25.7,.1-38.3,.2-12.5,0-24.9-1.1-37.3-2.4-1.5-8.6-2.9-17.2-3.4-25.9-1.1-20.3,.5-40.8,.8-61.1,.2-17.2,.6-34.2,1.2-51.4,.3-9.2,.1-18.7,1.6-27.9,23.3,.7,46.3,.8,69.5-.1Z"/></svg>