<?xml version="1.0" encoding="UTF-8"?><svg id="Capa_1" xmlns="http://www.w3.org/2000/svg" viewBox="0 0 690.06 527.22"><defs><style>.cls-1{fill:#ef6293;}.cls-2{fill:#e08a3a;}.cls-3{fill:#668976;}.cls-4{fill:#9ecbbc;}.cls-5{fill:#e9cd5a;}.cls-6{fill:#241e19;}.cls-7{fill:#5b472a;}.cls-8{fill:#b05a79;}.cls-9{fill:#5864c4;}.cls-10{fill:#fdfdfd;}.cls-11{fill:#a36e7e;}.cls-12{fill:#c1905c;}.cls-13{fill:#bcb7d7;}.cls-14{fill:#b9ca52;}.cls-15{fill:#759086;}.cls-16{fill:#d1e2db;}.cls-17{fill:#518664;}.cls-18{fill:#c3c3bd;}.cls-19{fill:#c0c1ce;}.cls-20{fill:#d42a36;}.cls-21{fill:#b48f60;}.cls-22{fill:#463624;}.cls-23{fill:rgba(36,30,25,.15);}.cls-24{fill:#9890c0;}.cls-25{fill:#db1722;}</style></defs><path d="M4.51,178.6c-2.8-23.6-1.8-47.9,5.4-70.7,9.1-28.9,28.1-52.9,55.1-66.9,33.1-17.2,74.3-17.4,110.4-12.4,8.9,1.2,17.8,2.3,26.4,5,12.2,2.4,32.2,6.6,43,12.1,7.6,2.2,15,5.5,22.4,8.4,1.4,0,2.8-.3,4.1-.5-10.1-5.2-21.3-9.4-32-13.2-50-17.7-107.9-25.5-159.4-9.3-21.7,6.8-32.8,14.5-48,31.6-2.7,3-7.8,10.6-10.5,12.7-1.9,3.1-3.8,6.2-5.7,9.2-4.2,7.5-7.7,15-10.1,23.2-6.2,21.6-7.5,56.4-2.7,78.2,2-2,1.5-4.6,1.6-7.4Z"/><path d="M544.31,0h27.5l1.3,1.4,.6,.1c5.1,.6,10,.4,15.1,1.1,29.9,4.4,52.6,17.8,71.4,41.3,25.9,32.2,33.1,75.5,28.6,115.7-5.5,49.1-26.8,95.9-54.8,136.2-8.7,12.5-18.5,24.6-28,36.6-16.3,20.7-33.2,41.4-51.8,60.1-15.2,15.3-32.3,29.6-49.1,43-13,10.4-26.4,20.3-40.1,29.8-9.8,6.8-93.7,63-101,61.9-7.5-1.1-16.2-7.4-23.2-10.6-10.3-4.8-20.7-9.3-31-14.3-57.8-28.6-114.7-60-163.4-102.8-14.5-12.8-28-27-41.5-40.7-19.9-20.2-39.3-40.7-55.5-64.1-14.3-20.7-40.3-65.4-43.5-89.5,.4-2.2,1-3.5,2.3-5.3,17.3,65.8,61,118.6,108,165.7,17,17.1,34.1,33.6,53.1,48.6,21.9,17.3,45.8,32.9,69.9,47,16.4,9.6,33.1,18.7,50.1,27.2,7.9,4,15.8,8.2,24,11.5,10,6.6,26.3,12.9,37.6,17.9,1.7,.9,3.5,1.8,5.3,2.6,1.4,.8,2.8,1.5,4.3,2.2,.9,.5,2,.9,3.1,1,3.5,.5,7.6-2.5,10.2-4.5l-.7-.6c.7-1.3,1.4-2.4,2.1-3.6,3.4-3.2,9-6,13-8.6,1.6,.2,3.5,.2,5,.9l3.5-1.9,4.3-2.7c25.4-14.8,49.9-30.8,73.7-48,7.5-5.4,16.2-10.9,22.7-17.4,9.4-6.2,18.2-14.3,26.7-21.7,36.8-32,60.5-60.7,89.8-99.4,10.8-14.2,22.1-28.6,31.3-44,10.4-17.4,19.3-37.4,26.4-56.3,16.9-45,22.7-99.1,2.2-144-11.9-26-33.2-49.1-60.3-59.2-33-12.3-69.7-9.6-103.6-3.2-13,2.5-26.9,5.6-38.9,11.1-10.8,2.6-22.5,8-32,13.6l1.5,3.1c-1.8,.7-3.6,1.5-5.4,2.1-7.5,3.4-15,6.6-22.3,10.5l-.9-1,.1-1.9c-3.1,1.6-5.5,3.2-9.1,2.8,7.1-4.6,14.7-8.4,22.2-12.4C460.91,18.5,501.21,3,542.01,1l2.3-1Zm0,0l-2.4,1.3c10.4-.2,20.8,.4,31.2,.2l-1.3-1.4h-27.5v-.1Z"/><path class="cls-21" d="M433.31,36.8l5.7-2.6,1.5,3.1c-1.8,.7-3.6,1.5-5.4,2.1-1.5-.9-1.3-1-1.8-2.6Z"/><path class="cls-23" d="M544.31,0h27.5l1.3,1.4c-10.4,.2-20.8-.3-31.2-.2l2.4-1.2Z"/><path class="cls-12" d="M375.31,514.9c3.4-3.2,9-6,13-8.6,1.6,.2,3.5,.2,5,.9-6.4,4.1-12.9,8-19.4,11.9l-.7-.6c.6-1.3,1.3-2.4,2.1-3.6h0ZM433.31,36.8c.5,1.6,.3,1.7,1.8,2.6-7.5,3.4-15,6.6-22.3,10.5l-.9-1,.1-1.9c7.2-3.1,14.2-6.9,21.3-10.2Z"/><path class="cls-2" d="M4.41,178.6c-2.8-23.6-1.8-47.9,5.4-70.7,9.1-28.9,28.1-52.9,55.1-66.9,33.1-17.2,74.3-17.4,110.4-12.4,8.9,1.2,17.8,2.3,26.4,5,1.1,1.8,2.6,1.8,4.6,2.3,5.5,1.3,11,2.4,16.4,4-2.4,1.9-3.9,1.9-6.9,1.6-13.8-1.7-25.9-5.3-39.9-3-38.2,.7-82.6,7.2-110.6,36.1-25.5,26.4-37.4,62.8-36.7,99,.8,45.1,24.6,99.7,49.5,136.9,7.7,11.3,15.9,22.1,24.7,32.5,8.8,10.4,18.1,20.3,27.9,29.8,36.7,35.3,79.3,65.5,123.7,90.3,13.2,7.4,26.4,14.6,39.7,21.8,7.3,3.9,16,7.3,22.6,12.2,12.1,5.8,24.6,11.9,36.3,18.3l4.6,2.3c-.3,1.3-.2,1.8-1.2,2.7-1.8-.8-3.5-1.7-5.3-2.6-11.3-5-27.7-11.3-37.6-17.9-8.2-3.3-16.1-7.5-24-11.5-17-8.5-33.7-17.6-50.1-27.2-24.1-14.1-47.9-29.7-69.9-47-19-14.9-36.1-31.5-53.1-48.6-47-47.1-90.7-99.9-107.9-165.6-1.4,1.8-1.9,3.1-2.3,5.3-.3-2.2-1.3-4.5-1.8-6.7-.9-4.1-1.1-8.3-1.4-12.5,1.8-2.1,1.2-4.7,1.4-7.5h0Z"/><path class="cls-6" d="M4.41,178.6c1.3,7.1,2.5,14.3,3.9,21.3-1.4,1.8-1.9,3.1-2.3,5.3-.3-2.2-1.3-4.5-1.8-6.7-.9-4.1-1.1-8.3-1.4-12.5,2-2,1.4-4.6,1.6-7.4h0Z"/><path class="cls-21" d="M316.51,497.1c12.1,5.8,24.6,11.9,36.3,18.3l4.6,2.3c-.3,1.3-.2,1.8-1.2,2.7-1.8-.8-3.5-1.7-5.3-2.6-11.3-5-27.7-11.3-37.6-17.9l.9-.7c3.3,1.6,26.8,13.4,28.8,13.6v-.7c-3.1-2.1-6.8-3.2-10.2-4.9-5.6-2.8-11-5.9-16.6-8.8l.3-1.3h0Z"/><path class="cls-2" d="M471.01,20.6c12-5.5,25.9-8.7,38.9-11.1,33.9-6.4,70.6-9.1,103.6,3.2,27.1,10.1,48.4,33.1,60.3,59.2,20.5,44.9,14.7,99.1-2.2,144-7.1,18.9-16,39-26.4,56.3-9.2,15.4-20.5,29.8-31.3,44-29.3,38.7-53,67.4-89.8,99.4-8.5,7.4-17.4,15.5-26.7,21.7-6.5,6.5-15.2,12-22.7,17.4-23.8,17.2-48.4,33.2-73.7,48l-4.3,2.7-3.5,1.9c-1.5-.7-3.3-.7-5-.9l4.1-2.6c1.2-.9,2.6-1.7,3.8-2.5,21.8-15.7,45.1-29.5,66.7-45.5,10.8-6.3,20.9-15.2,31.2-22.5,9.4-8.2,19.5-15.6,28.8-23.8,30-26.4,70.5-67.9,90.2-102.6l.4-.5c30.3-44.1,57.9-129.1,47.8-182.5-5.5-28.6-26.8-65.7-51.2-82.2-37.8-25.6-88.1-24.5-131.1-16.1-13.1,3.2-25.8,7.3-38.5,11.9l-1.5-3.1c9.6-5.8,21.4-11.2,32.1-13.8h0Z"/><path class="cls-12" d="M439.01,34.2c9.5-5.6,21.3-11,32-13.6l.9,.4c-4.5,1.8-19.9,6.9-22.4,9.7,.6,.5,1.2,1,1.9,1.4l.7-.3c5.6-2.5,20.9-8.3,26.7-6.5-13.1,3.2-25.8,7.3-38.5,11.9l-1.3-3h0Z"/><path class="cls-21" d="M494.01,433.2c-.1,.1-.1,.3-.2,.4-2.7,6.4-65.7,47.4-76.2,54.7-2.9,2-6.9,6.4-9.9,7.6-1,.4-2.1,.6-3.1,.9l-.3,.5,.4,.6c10.2-2.2,67.1-43.1,79.1-52,1.2-.9,12.2-9.3,12.5-9.3,.4,0,.7,.4,1.1,.6-6.5,6.5-15.2,12-22.7,17.4-23.8,17.2-48.4,33.2-73.7,48l-4.3,2.7-3.5,1.9c-1.5-.7-3.3-.7-5-.9l4.1-2.6c1.2-.9,2.6-1.7,3.8-2.5,21.8-15.7,45.1-29.5,66.7-45.5,10.9-6.4,21-15.2,31.2-22.5h0Z"/><path d="M478.91,25.4c42.9-8.3,93.3-9.4,131.1,16.1,24.5,16.5,45.8,53.6,51.2,82.2,10.2,53.4-17.5,138.4-47.8,182.5l-.4,.5c-19.7,34.6-60.2,76.1-90.2,102.6-9.3,8.2-19.4,15.6-28.8,23.8-10.2,7.3-20.4,16.2-31.2,22.5-21.6,16-44.9,29.8-66.7,45.5-1.3,.8-2.7,1.6-3.8,2.5l-4.1,2.6c-4,2.6-9.6,5.4-13,8.6-.8,1.2-1.5,2.4-2.1,3.6l.7,.6c-2.6,2-6.8,5-10.2,4.5-1.1-.1-2.1-.5-3.1-1-1.5-.7-2.9-1.4-4.3-2.2,1-.9,.9-1.4,1.2-2.7l-4.6-2.3c-11.8-6.5-24.2-12.6-36.3-18.3-6.6-4.9-15.3-8.3-22.6-12.2-13.3-7.2-26.5-14.5-39.7-21.8-44.4-24.8-87-54.9-123.7-90.3-9.8-9.4-19.1-19.4-27.9-29.8s-17-21.2-24.7-32.5c-24.9-37.2-48.7-91.8-49.5-136.9-.6-36.2,11.2-72.7,36.7-99,28-28.9,72.4-35.4,110.6-36.1,14-2.2,26.1,1.3,39.9,3,3,.4,4.5,.4,6.9-1.6-5.4-1.6-10.9-2.7-16.4-4-1.9-.5-3.5-.5-4.6-2.3,12.2,2.5,32.2,6.7,43,12.1,7.6,2.1,15.1,5.5,22.4,8.4,1.3,0,2.7-.3,4.1-.5l1.2,.5c6.5,2.7,14.5,5.6,20.3,9.5,13.9,5.5,37.6,20.1,48.4,30.1,6.4-3.5,11.9-9.2,17.5-13.8,8-6.6,16.3-12.7,25-18.3,4.3-2.7,8.4-5.5,12.9-7.9,1.7-1.6,4.4-2.7,6.4-3.9,3.6,.4,6-1.2,9.1-2.8l-.1,1.9,.9,1c7.2-3.9,14.8-7.1,22.3-10.5,1.8-.7,3.6-1.4,5.4-2.1,12.8-4.5,25.5-8.6,38.6-11.8h0Z"/><path class="cls-7" d="M271.21,53.7l1.2,.5c1.2,3.6,10.9,4.6,8.6,9.7l-13.3-6-.6-3.6c1.4-.1,2.8-.4,4.1-.6h0Z"/><path class="cls-21" d="M363.01,520.2c4.7-.3,8.4-3.1,12.3-5.3-.8,1.2-1.5,2.4-2.1,3.6l.7,.6c-2.6,2-6.8,5-10.2,4.5-1.1-.1-2.1-.5-3.1-1-1.5-.7-2.9-1.4-4.3-2.2,1-.9,.9-1.4,1.2-2.7l5.5,2.5h0ZM244.71,45.8c7.6,2.1,15.1,5.5,22.4,8.4l.6,3.6c-6.4-3.2-13.8-5.1-20.6-7.2,.5-.8,.6-1.3,.7-2.2-.9-.6-1.7-1.1-2.5-1.9l-.6-.7h0Z"/><path class="cls-22" d="M402.91,49.9c3.6,.4,6-1.2,9.1-2.8l-.1,1.9,.9,1c-5.2,4-12.5,7.6-18.4,10.6-.2-.3-.4-.5-.5-.8-.6-1.6,1.8-4.5,2.6-5.9,1.7-1.7,4.4-2.9,6.4-4h0Z"/><path class="cls-6" d="M396.51,53.7c-.8,1.5-3.2,4.3-2.6,5.9,.1,.3,.3,.5,.5,.8-2.7,2.7-14.6,11.2-18,11.8l-1.9-.9c1.5-1.5,3.3-2.7,5-4.1,2.3-1.8,3.8-2.8,4.2-5.7,4.2-2.6,8.3-5.4,12.8-7.8h0Z"/><path class="cls-22" d="M272.41,54.1c6.5,2.7,14.5,5.6,20.3,9.5-.1,1.1-.4,1.4,.3,2.4,1.6,2.4,25.4,15.1,30.5,18.9l-2.2,1.1c-7.6-4.1-14.6-9.7-22.2-14-5.8-3.2-12.3-4.9-18-8.2,2.2-5.1-7.4-6.1-8.7-9.7h0Z"/><path class="cls-21" d="M374.41,71.4l1.9,.9c-12.2,9.6-23.3,20.1-34,31.2-6.4-6.3-13.6-12.6-21.1-17.5l2.2-1.1c6.4,4.4,12.6,9.2,18.8,14,10.5-9.7,21-18.9,32.2-27.5h0Z"/><path class="cls-12" d="M201.71,33.6c12.2,2.5,32.2,6.7,43,12.1l.6,.7c.8,.8,1.5,1.3,2.5,1.9-.1,.9-.2,1.4-.7,2.2-22.6-8-47.5-11-71.3-12.1,14-2.2,26.1,1.3,39.9,3,3,.4,4.5,.4,6.9-1.6-5.4-1.6-10.9-2.7-16.4-4-1.9-.4-3.4-.4-4.5-2.2h0Z"/><path d="M341.11,93.7c6.4-3.5,11.9-9.2,17.5-13.8,8-6.6,16.3-12.7,25-18.3-.4,2.9-1.9,3.9-4.2,5.7-1.7,1.3-3.4,2.5-5,4.1-11.2,8.7-21.8,17.9-32.2,27.5-6.2-4.8-12.4-9.5-18.8-14-5.1-3.8-28.8-16.5-30.5-18.9-.7-1-.4-1.3-.3-2.4,14,5.6,37.7,20.1,48.5,30.1h0Z"/><path class="cls-5" d="M342.71,108.2c35.3-39.2,74.2-61.1,124.8-75.6,42-12,94.7-13.3,134,8.5,21.3,11.8,33.3,30.4,43.9,51.6,3.9,7.8,7.8,15.6,10.1,24.1,16.7,60-16.3,136.4-45.2,188.1-30.5,44.7-65.4,81.7-107.1,116.1-8.2,6.9-16.7,13.5-25.3,19.8-5.3,3.8-12.5,8-17.1,12.5-21.6,14.3-42.8,29.2-64.3,43.6-10.4,6.9-21,14.9-32.2,20.2-26.4-12.7-52.5-26.2-78.2-40.5-56.1-30.6-102.9-59.2-149.6-103.5-43.1-40.8-76-90.4-94.6-147-5-15.3-9.6-31.1-10-47.3-.9-34.5,9.3-73.3,33.7-98.8,25.1-26.3,63.4-36.4,98.7-37.2,64.4-1.3,131.3,20.2,178.4,65.4h0Z"/><path d="M504.81,37.3c17.2-1.8,42.7,2.8,58.9,8.9,27.4,10.4,49.1,29,61.2,55.9,22.7,50.4,9.5,119.1-9.4,168.9-9.6,25.2-23.3,47.3-40.8,67.7-15.5,18-33.8,33.4-51.6,49-30.4,26.7-61.5,53.4-94.1,77.3-12.8,9.4-26,18.1-39.3,26.9-8.3,5.5-17.1,12.5-26.1,16.6-15.4-6.7-30.7-15.6-45.4-23.8-35.9-20.2-67.9-40.5-101.9-63.7-18.3-12.1-36.3-24.7-53.9-37.8-46.7-35.3-70.7-70.3-90.3-124.9-6.5-18.1-12.2-36.3-14.8-55.4-4.9-35.7-1.3-73.6,21.2-103,19.4-25.5,52.7-39.8,83.8-44,48.3-6.5,100.6,6.6,142.1,31.5,13.6,8.2,26.5,18.4,39.1,28.1,10.3-9.4,20.1-19.1,31.1-27.9,2.3-1.9,4.6-3.7,7-5.4,2.4-1.8,4.8-3.5,7.2-5.2s4.9-3.3,7.4-4.9c2.5-1.6,5-3.1,7.6-4.6s5.1-2.9,7.8-4.3c2.6-1.4,5.3-2.7,7.9-4,2.7-1.3,5.4-2.5,8.1-3.7,2.7-1.2,5.5-2.3,8.2-3.4,2.8-1.1,5.5-2.1,8.3-3s5.6-1.9,8.5-2.7c2.8-.8,5.7-1.6,8.5-2.4,2.9-.7,5.7-1.4,8.6-2,2.9-.6,5.8-1.2,8.7-1.7s5.8-1,8.8-1.4c2.9-.4,5.9-.7,8.8-1,2.9-.3,5.9-.5,8.8-.6h0Z"/><path class="cls-10" d="M450.01,51.3c37.4-13.9,84.6-14.5,121.2,2.3,25,11.4,43.2,30.9,52.7,56.7,19.1,51.8,3.4,127.3-19.3,176.1-3.9,8.2-8.2,16.2-13.2,23.8-4.9,7.6-10.3,14.9-16.2,21.8-21.2,24.8-47,46.6-71.7,67.7-36.2,30.9-73.2,61.2-113.1,87.2-9,5.9-18,11.9-27.4,17.1-15.7-7.9-31.6-15.7-46.9-24.3-29.6-16.6-58.1-35.3-86.5-54-41.8-27.6-86.5-56.2-117.3-96.5-19.1-25.1-31.5-55.5-41.4-85.2-13.4-40.4-18.3-88.3,1.4-127.5,12.4-24.5,38-42.3,63.7-50.8,46.8-15.4,105.1-6.8,148.5,15.3,5.7,2.9,25.4,12.7,29.3,17.4,10.8,5.7,19.4,15.2,30.1,21.2,9.2-6.4,16.9-15.7,25.3-23.1,21.9-19.3,52.7-37.5,80.8-45.2h0Z"/><path d="M298.51,456.4c1.2,.3,2.8,1.1,3.5,2.1s.8,1.9,.4,3c-.5,2-2.6,3-4.2,4-.9-.5-2-1-2.8-1.7-1.3-1-1.5-1.9-1.6-3.4,1-2.2,2.7-2.9,4.7-4Zm124.1-6.7c1.6,.2,3.2,.6,4.4,1.7,1.4,1.2,1.4,2.1,1.6,3.9-.9,2-1.6,2.3-3.3,3.7-.9-.2-1.8-.4-2.7-.7-1.7-.7-2.1-1.3-2.8-2.9,.3-2.4,1.5-3.9,2.8-5.7h0Zm-165.3-16.9c1.2,.1,2.8,.1,3.9,.5,1.8,.6,2.2,1.6,2.9,3.1,0,2.2-.8,3.5-1.9,5.4-1.3-.1-2.6-.2-3.9-.8-2-.8-2.6-2-3.3-3.8,.4-2.2,.8-2.7,2.3-4.4Zm1.4-358.4c1.5,0,3.3,.1,4.7,.7,1.7,.7,2,1.4,2.7,3-.3,2-1.1,2.9-2.5,4.4-1.4,.1-3.2,.3-4.5-.3-1.8-.8-2.1-1.6-2.7-3.3,.2-2.1,.9-3,2.3-4.5h0Zm159.6-7.7c2-.1,4.5-.4,6.3,.8,1.3,.9,1.3,1.2,1.6,2.7-.5,2-1.6,2.9-3,4.3-1.2,.1-2.8,.2-3.9-.2-1.7-.6-2.1-1.5-2.8-3,.1-2.3,.4-2.8,1.8-4.6h0Zm41.1,355.5c1.5,.3,2.7,.7,4,1.2,1.1,1.4,1.2,1.4,1.2,3.4-1.1,2.2-2.3,3.2-4.1,4.7-1.4-.2-3-.5-4-1.5-1.1-1.2-1.2-2.5-.9-4,.4-2,2.3-2.9,3.8-3.8h0Zm-146.9,44.7c1.8,0,3.7,.1,5.3,1.2,1.5,1,1.7,1.7,2.2,3.3-.8,2.1-1.2,2.5-3,4-1.6,.2-3.2,.3-4.6-.5-1.6-.9-1.8-1.7-2.4-3.4,.4-2.3,.9-2.8,2.5-4.6h0Zm17.6,9.3c1.7-.1,3.5-.1,5.1,.7,1.2,.7,2.3,1.6,2.6,3,.5,2-.2,3.4-1.3,5.1-1.6,0-3.4-.1-4.9-.7-1.9-.8-2.4-1.6-3.2-3.3-.1-2,.5-3.1,1.7-4.8Zm-50.5-31.6c1.5,.5,3.2,1.2,4.2,2.6,1.2,1.5,1,2.3,.7,4-1.3,2-2.7,2.4-4.8,3.2-1.4-.4-2.8-1-3.7-2.3-.9-1.2-1-2.7-.6-4.1,.7-1.8,2.5-2.6,4.2-3.4h0Zm110.9,28.4c1.8,0,2.9,.3,4.5,1.2,.8,1.2,1.3,1.6,1.2,3.2-.2,2.5-2.2,3.9-4,5.3-1.6-.2-2.7-.8-4.2-1.5-1-1.4-1.6-2-1.3-3.8,.4-2.1,2.3-3.3,3.8-4.4h0Zm16.1-10.5c1.8-.1,4-.2,5.6,.9,1.3,1,1.3,1.8,1.5,3.3-.7,2.2-1.7,3.2-3.4,4.7-1.6-.2-3.3-.6-4.7-1.6-1.5-1.1-1.7-1.9-2.1-3.6,.8-2,1.3-2.3,3.1-3.7h0Zm33.8-25.6c1.7,.3,3.7,.5,4.8,1.9,1.1,1.5,1,2.2,.8,3.9-1.1,1.8-2,2.5-3.9,3.5-1.5-.4-3.5-.9-4.5-2.1-1.3-1.4-1.3-2.1-1.2-3.9,1-1.8,2.2-2.4,4-3.3h0Zm-208.9-22.1c1.8-.1,3.6,.1,5.2,1.1,1.6,1.1,1.8,2,2.2,3.7-.3,2.1-1.2,3.1-2.6,4.7-1.9-.2-4.1-.6-5.7-1.6-1.7-1-2-1.8-2.4-3.6,.4-2.2,1.6-2.9,3.3-4.3h0Zm250.3-13c2.1,.1,4.4,.1,6.2,1.4,1.5,1.1,1.6,1.7,1.9,3.5-.8,2-1.9,2.7-3.6,3.9-2.2,.4-3.7,.5-5.8-.5-1-1.2-1.8-1.8-1.7-3.5,.2-2.1,1.6-3.5,3-4.8Zm-31.2-340c-.5,.8-1,1.7-1.6,2.4-1.1,1.3-3,2.3-4.7,2.3s-3.3-.8-4.3-2.1c-1.1-1.3-1.2-2.4-1.1-4.1,.4-.6,.8-1.5,1.4-1.9,2.8-1.7,5.5-1.3,8.5-.7l1.8,4.1h0Zm-217,6.2c2.4-.2,4.9-.3,7.1,1,1.6,1,1.8,1.8,2.2,3.5-.3,2.1-1.3,2.9-2.8,4.4-2,.3-4,.4-5.8-.6-1.7-.8-2-1.8-2.7-3.4,0-2.1,.8-3.2,2-4.9h0Zm-54.2,308.8h2.2c2.1,0,4.1,.1,5.6,1.8,1,1.1,1.4,2,1.3,3.5-.2,2-1.8,3.5-3.1,4.8-2.4,.2-5.4,.4-7.4-1.2-1-.8-1.6-1.8-1.7-3.1-.1-2.4,1.7-4.3,3.1-5.8Zm350-18.6h.8c2,0,4.5,.8,5.8,2.4,1,1.3,1.3,2.7,1,4.3-.4,1.9-2.2,3-3.7,3.9h-1c-2,0-5-.6-6.3-2.3-1-1.3-1.2-2.6-.8-4.1,.5-1.9,2.7-3.1,4.2-4.2h0Zm-374.3-1.1c1.2-.1,2.5-.4,3.7-.3,1.6,.1,3.4,1,4.4,2.3,.9,1.2,1,2.3,.9,3.7-.3,2.4-2.1,3.8-3.8,5.2-2.2-.1-4.3-.4-6.1-1.9-1.1-.9-1.8-2.1-1.9-3.5-.1-2.4,1.2-3.9,2.8-5.5h0Zm349.3,24.3c2.1,.2,5.2,.3,6.8,1.9,1.1,1,1.5,1.9,1.5,3.4-.1,2.4-2.3,4.1-3.9,5.5h-2.3c-2-.1-4.1-.7-5.4-2.3-1-1.3-1.2-2.7-.8-4.3,.5-2.1,2.5-3.2,4.1-4.2h0Zm-297.5,15.1c2.4,0,5.6,.2,7.3,2.1,.9,1,1.2,2.1,1.1,3.4-.2,2.5-2.3,4.1-4.1,5.6-.5,.1-.9,.1-1.4,.1-1.9,0-4.3-.7-5.6-2.1-.9-1-1.3-2.4-1.1-3.7,.3-2.4,2.1-3.9,3.8-5.4h0Zm344-60.8c.9,0,1.9,0,2.8,.1,1.9,.3,3.9,1.8,4.8,3.4,.7,1.2,.7,2.7,.3,4-.6,2-2.5,3-4.2,4-.6,.1-1.1,.2-1.7,.2-1.7-.1-3.5-.8-4.7-2.1-1-1.1-1.1-2.7-1-4.1,.3-2.6,1.9-3.8,3.7-5.5h0ZM208.31,64c.5,0,.9-.1,1.4-.1,2.4-.1,5.8,.3,7.5,2.2,.9,1,1.1,2.1,1,3.4-.2,2.5-2.7,4.3-4.5,5.8-1.4,.4-2.7,.7-4.2,.4-1.9-.3-4-1.5-5-3.1-.9-1.4-1-3-.6-4.5,.6-2,2.8-3,4.4-4.1h0Zm257.9-13.1c1.2-.2,2.4-.3,3.7-.3,2.2,0,5.3,.7,6.8,2.6,.9,1.1,1.1,2.1,.9,3.5-.3,2.6-2.8,4.1-4.7,5.5-.8,.2-1.6,.3-2.5,.3-2.1,.1-4.7-1-6.1-2.6-1.2-1.3-1.8-2.9-1.5-4.7,.2-1.9,2-3.1,3.4-4.3h0Zm145.6,159.4c2.6,.9,5.2,2.4,6.4,5,.7,1.6,.7,3.4,.1,5.1-1.1,2.8-3.2,3.8-5.8,4.9-2.6-1.1-5-2.1-6.3-4.8-.2-.4-.3-.8-.4-1.2-.1-.4-.2-.8-.2-1.2s0-.8,.1-1.2c.1-.4,.2-.8,.3-1.2,.9-2.8,3.3-4.1,5.8-5.4h0Z"/><path class="cls-14" d="M610.31,214.8c1.9,.3,2.6,.3,4.1,1.6,.4,2.1-.2,3.3-1,5.2-1.6-.5-2.4-1.1-3.6-2.2-.5-2.1-.3-2.5,.5-4.6Z"/><path d="M84.11,238c2.9,.3,5.8,.9,7.8,3.2,1.1,1.2,1.7,3.1,1.4,4.7-.4,2.8-2.3,4.6-4.3,6.2-2.7,0-5.1-.2-7.2-2-1.4-1.2-2-2.8-2-4.6,0-3.2,2.2-5.4,4.3-7.5h0Zm529.5-62.6c.8,0,1.6,0,2.4,.2,2.5,.5,4.8,2.2,6,4.3,.9,1.6,1.2,3.4,.7,5.2-.8,2.5-2.6,3.3-4.7,4.4-2.9,0-5.7-.4-7.8-2.6-1.2-1.3-1.8-2.9-1.6-4.7,.3-3.3,2.6-5,5-6.8h0Z"/><path class="cls-14" d="M613.71,179.2c2,.5,3.1,1.1,4.5,2.6,.3,2.1,.1,2.2-.9,4.1-.6,0-1,.1-1.6,0-1.5-.2-2.1-.9-2.9-2-.4-2,.1-3,.9-4.7Z"/><path d="M77.01,203.9c1,0,1.9-.1,2.9,0,2,.2,4.1,1.3,5.3,3,1,1.4,1.4,3.1,1,4.8-.5,3-2.5,4.3-4.8,6-.9,.1-1.9,.2-2.8,.1-2.1-.1-4-1-5.3-2.7-1.1-1.5-1.4-3.2-1.1-5,.6-3.1,2.5-4.5,4.8-6.2Z"/><path class="cls-14" d="M77.51,207.4c2,.2,3.2,.4,4.8,1.7,.5,1.9,.3,2.2-.3,4-2.1,.2-3.4,.3-5.3-.8-.5-1.8,.1-3.1,.8-4.9h0Z"/><path d="M600.71,245.5c1.5-.1,3.1-.3,4.6,0,2,.4,3.9,1.7,4.9,3.4,.9,1.5,1.1,3,.6,4.7-.8,2.9-2.8,4.2-5.2,5.5-.6,0-.6,.1-1.2,0-2.5-.2-5-1.1-6.6-3.1-.3-.3-.5-.7-.7-1.1s-.3-.8-.4-1.2c-.1-.4-.2-.9-.2-1.3s0-.9,.1-1.3c.4-2.8,1.9-4.1,4.1-5.6h0Z"/><path class="cls-14" d="M601.91,255.4c-.4-.4-.5-.6-.9-1.2-.9-1.5-1-1.9-.6-3.6,1.7-1.3,3.3-1.3,5.3-1.4,.8,1.8,1,2.1,.7,4.1-1.3,1.6-2.5,1.8-4.5,2.1h0Z"/><path d="M111.21,300.9c.7,.1,1.5,.2,2.2,.3,2.4,.5,4.6,1.6,5.9,3.8,.9,1.5,.9,3.3,.4,5-1,2.9-3.3,4.3-5.9,5.6-.6,0-1.1-.1-1.7-.2-2.3-.4-4.5-1.6-5.7-3.6-.9-1.5-1.2-3.2-.7-5,.6-3.1,2.8-4.4,5.5-5.9Z"/><path class="cls-14" d="M112.41,304.4c1.9,1,2.6,1.2,3.6,3.1-.2,2-1.6,3-2.9,4.3-.4-.1-.6-.1-1-.3-1.4-.6-1.7-1.3-2.3-2.7,.3-2.1,1.1-2.9,2.6-4.4h0Z"/><path d="M96.91,271.1h.9c2.5,.1,5.5,1.5,7,3.5,1,1.4,1.3,3.1,1,4.8-.6,3.3-3.4,4.9-6,6.5q-.7,0-1.5-.2c-2.3-.5-5-1.9-6.3-4-.9-1.5-1.1-3.3-.6-5,.8-2.9,3.1-4.2,5.5-5.6h0Z"/><path class="cls-14" d="M95.41,276.6c2.2-.9,3.6-1.5,5.9-.5,.2,.1,.4,.2,.7,.3,.1,.5,.2,1.1,.1,1.7-.3,1.7-1,2.2-2.1,3.2-1.8,.2-2,.3-3.6-.6-1.2-1.7-1.2-2-1-4.1Z"/><path d="M590.01,275.8c.9-.1,1.8-.2,2.7-.2,2.1,.2,4.4,1.5,5.7,3.1,1.4,1.6,2.1,3.6,1.8,5.7-.4,2.8-2.1,4-4.3,5.5-.5,0-.6,.1-1.1,.1-2.8-.1-5.9-.8-7.9-3-1.2-1.3-1.7-3.1-1.4-4.8,.4-2.9,2.3-4.7,4.5-6.4h0Z"/><path class="cls-14" d="M591.31,279.4c2.1,.6,2.9,1.1,4.1,2.7-.2,2.2-.6,2.6-2,4.4-2-.6-2.8-1-3.9-2.8,.1-1.9,.7-2.7,1.8-4.3Z"/><path d="M145.21,72.6c1-.1,2.1-.3,3.1-.2,1.7,.1,3.6,1.2,4.7,2.5,1.4,1.6,1.8,3.6,1.5,5.7-.5,3.4-2.4,4.9-5,6.7-1.1,0-2.2,.1-3.3,0-2-.2-4.1-1.5-5.3-3.1-1-1.4-1.3-3.2-1-4.9,.6-3.4,2.7-4.9,5.3-6.7Z"/><path class="cls-14" d="M146.31,76.1c.5,0,1.1,.1,1.6,.3,1.7,.7,2,1.3,2.8,2.8-.4,2.2-1,2.8-2.5,4.5-.4,0-.5,0-.9-.2-1.7-.5-2-.9-3-2.4,.1-2.1,.9-3.2,2-5h0Z"/><path d="M129.41,326.6c.6,0,1.1,0,1.7,.1,2.7,.5,6.1,2.4,7.6,4.7,.9,1.4,1.3,3,.8,4.6-.7,2.3-2.9,3.4-4.8,4.5-1.7,.5-3.5,.8-5.2,.2-2-.6-3.8-2-4.8-3.9-.9-1.8-1-4-.2-5.9,.9-2.5,2.6-3.2,4.9-4.3h0Z"/><path class="cls-14" d="M129.31,330.2c1.5,.1,3.1,.5,4.4,1.2,1.6,.9,1.9,1.5,2.4,3.1l-.9,1.8c-.8,.2-1.6,.5-2.4,.6-1.8,.2-2.3-.2-3.7-1.2-.7-2.1-.3-3.5,.2-5.5h0Z"/><path d="M531.71,52c.9,0,1.9,0,2.9,.2,2.4,.5,5,1.9,6.3,4,1,1.5,1.4,3.3,.9,5.1-.7,2.8-2.7,4.3-5,5.8-.5,.1-.8,.2-1.3,.2-2.3,.1-5.3-1-6.8-2.7-1.3-1.4-1.7-3.4-1.6-5.2,.1-3.6,2.1-5.3,4.6-7.4h0Z"/><path class="cls-14" d="M534.61,64.2c-.7-.4-1.5-.8-2.1-1.3-1.4-1.3-1.5-2.2-1.7-4,.7-1.7,.7-1.8,2.4-2.8,1.6,.2,1.7,.2,3,1.2,1.1,1.4,1.1,1.5,1.1,3.3-.8,1.4-1.5,2.5-2.7,3.6Z"/><path d="M576.11,303.4c1.5-.1,3-.2,4.5,.5,1.6,.7,3,1.9,3.6,3.6,.6,1.9,.1,4.1-.8,5.8-1.6,2.9-4.2,3.8-7.2,4.7-.1,0-.2-.1-.4-.1-2.8-.8-5.5-1.7-6.9-4.3-.6-1.2-.7-2.5-.3-3.8,1.2-3.4,4.5-4.8,7.5-6.4h0Z"/><path class="cls-14" d="M575.11,307.4c1,0,2.2-.1,3.2,.3,1.1,.5,1.2,.9,1.6,2-.5,2.2-1.5,3.2-3,4.8-1.9-.8-3.6-1.3-4.7-3.2,.5-2.1,1.4-2.6,2.9-3.9h0Z"/><path d="M176.41,64c1.1,0,2.1-.1,3.2,0,2.4,.3,5.2,1.7,6.7,3.7,1.1,1.4,1.5,3.1,1.2,4.9-.6,2.9-2.8,4.3-5,5.9-1.3,.1-2.6,.2-3.9,0-2.5-.3-4.8-1.6-6.2-3.7-1-1.5-1.4-3.2-.9-4.9,.6-2.8,2.6-4.5,4.9-5.9h0Z"/><path class="cls-14" d="M178.61,66.9c.9,.3,1.8,.7,2.6,1.2,1.5,1,1.7,1.8,2,3.4-.6,2.1-1.7,2.8-3.4,4.1-.5-.2-1.1-.5-1.6-.8-1.7-.9-2.3-1.6-2.8-3.5,.5-1.9,1.8-3,3.2-4.4Z"/><path d="M501.01,46.8c1,.1,2,.1,3,.4,2.1,.6,4.2,2.2,5.2,4.2,.8,1.6,.7,3.6,.1,5.3-1.1,3.1-3.7,4.4-6.5,5.6-1.1-.1-2.4-.3-3.5-.6-2-.6-4.1-1.9-5.1-3.9-.8-1.6-.8-3.4-.1-5,1.1-3.3,3.9-4.6,6.9-6h0Z"/><path class="cls-14" d="M500.91,50.7c.7,.1,1.5,.2,2.2,.4,1.6,.7,2,1.4,2.6,3-.3,2.2-1.1,3.1-2.6,4.7-.1,0-.3,0-.4-.1-.2,0-.4-.1-.7-.1-.9-.2-1.9-.3-2.7-.7-1.6-.8-1.8-1.6-2.2-3.2,1.1-2.3,1.8-2.6,3.8-4h0Z"/><path d="M592.31,96.4c1.6-.1,3.2-.2,4.8,.1,2.5,.5,5.1,2.3,6.5,4.5,.3,.4,.5,.9,.7,1.4s.3,1,.4,1.5c.1,.5,.1,1,.1,1.6,0,.5-.1,1-.2,1.5-.8,3-2.6,4.3-5.1,5.9-1.1,.2-2.2,.3-3.4,.3-.4,0-.7,0-1.1-.1-.4-.1-.7-.1-1.1-.2-.4-.1-.7-.2-1-.3s-.7-.3-1-.4c-.3-.2-.6-.3-.9-.5-.3-.2-.6-.4-.9-.6-.3-.2-.6-.5-.8-.7-.3-.3-.5-.5-.7-.8-1.4-1.7-1.9-3.9-1.6-6,.5-3.6,2.8-5.4,5.3-7.2h0Z"/><path class="cls-14" d="M593.51,99.4c1.9,.2,3.7,.6,5.2,1.9,1.5,1.3,1.6,2.2,1.9,4-.6,2.2-1.6,3-3.2,4.4-1.5-.3-3.1-.7-4.3-1.6-1.3-.9-2.1-2.1-2.2-3.8-.3-2,1.4-3.6,2.6-4.9Z"/><path d="M91.41,122.3c1.7,.1,3.2,.4,4.8,1.3,1.9,1.1,3.3,2.9,3.7,5.1,.5,2.5-.3,5.2-1.8,7.2-2,2.6-4,3.3-7,3.8-1.5-.3-3.3-.6-4.7-1.2-1.9-.9-3.4-2.6-4-4.6-.7-2.2-.4-4.5,.8-6.4,1.8-3,4.8-4.4,8.2-5.2Z"/><path class="cls-14" d="M91.01,126c1.8,.3,2.8,.7,4.2,1.8,.7,1.5,1,1.9,.6,3.6-.6,2.4-2.6,3.6-4.5,4.9-1.8-.4-2.9-1-4.3-2.2-.6-1.4-1-1.9-.6-3.5,.5-2.4,2.6-3.4,4.6-4.6Z"/><path d="M74.31,161.7c.9-.1,1.8-.2,2.7-.2,3-.1,6,.7,8.2,3,1.4,1.5,2.1,3.4,2,5.4-.3,3.8-2.7,6.1-5.4,8.3-1.1,.1-2.3,.2-3.4,.2-2.7-.1-5.8-1.4-7.7-3.5-1.3-1.5-2-3.5-1.8-5.5,.3-3.7,2.7-5.7,5.4-7.7h0Z"/><path class="cls-14" d="M76.41,164.6c1.6,.1,3.2,.2,4.5,1.1,1.7,1.1,1.8,2,2.3,3.8-.3,2.1-1.3,3.2-2.8,4.7-1.8,0-4,.2-5.6-.9-1.1-.7-1.6-1.5-1.7-2.8-.2-2.3,1.9-4.2,3.3-5.9h0Z"/><path d="M610.41,133.3c1.2-.1,2.5-.3,3.8-.1,2.4,.4,4.9,1.9,6.3,3.9,1.4,2,1.7,4.5,1.1,6.8-.8,3.4-3.3,4.8-6.1,6.4-1.7,.2-3.3,.2-5-.2-2.5-.6-4.9-2.3-6-4.6-1-1.9-1-4.3-.3-6.3,1-3.2,3.4-4.4,6.2-5.9h0Z"/><path class="cls-14" d="M611.91,136.3c1.8,.6,3.7,1.5,4.9,2.9s1.1,2.4,1,4.1c-.9,1.9-2.3,2.3-4.1,3.2-2.3-.2-3.6-.6-5.4-2.1-.6-1.3-1-1.8-.7-3.3,.3-2.3,2.4-3.4,4.3-4.8h0Z"/><path d="M115.41,90.6c1.4,.2,2.9,.3,4.1,1,1.9,1,3.5,2.6,4.2,4.6,.7,2.3,0,4.7-1.2,6.7-2.2,3.5-5.2,4.5-8.9,5.2-1.7-.3-3.7-.6-5.2-1.5-1.8-1.1-3.1-3.1-3.4-5.2-.4-2.1,.3-4.3,1.5-6.1,2.4-3.3,5.1-4.1,8.9-4.7Z"/><path class="cls-14" d="M114.11,94.3c2.2,.3,3.6,.6,5.3,2.1,.4,1.1,.7,1.5,.5,2.6-.6,2.8-2.7,3.9-4.9,5.3-.1,0-.3,0-.4,.1-2,.1-3.5-.4-5-1.7-.5-1.5-.7-2-.3-3.5,.7-2.7,2.7-3.6,4.8-4.9h0Z"/><path d="M564.51,67.4c1.6-.1,3.3-.3,5-.1,3.2,.3,6.6,2.1,8.5,4.8,.3,.4,.5,.7,.7,1.1,.2,.4,.3,.8,.4,1.2,.1,.4,.1,.9,.1,1.3s0,.9-.1,1.3c-.6,3.2-2.9,4.9-5.4,6.6-1.5,.2-3.1,.4-4.6,.3-3.1-.2-6.2-2-8.1-4.4-1.2-1.5-1.7-3.3-1.5-5.2,.4-3.3,2.4-5.1,5-6.9h0Z"/><path class="cls-14" d="M565.61,71.2c2.2-.1,4.8-.4,6.8,1,1.6,1.1,1.7,1.9,2,3.6-.4,2.1-1.2,3.2-2.7,4.8-1.5-.1-3-.3-4.5-.8-2.1-.8-2.8-1.9-3.6-3.8,.3-2.4,.7-2.9,2-4.8Z"/><path d="M468.71,79.1c2.3-6.6,4.6-14.8,11.5-18.1,1.9-.9,4.1-1.2,6.1-.5,2.8,1,4.7,4.1,5.8,6.7,1.3,3.4,1.8,7.2,2.5,10.7,3.7-6.1,8.6-13.4,15.9-15.4,2.5-.7,5.1-.5,7.3,.9,2.7,1.8,3.9,4.9,4.4,8,.8,5.6-.8,11.2-2.1,16.6,6.1-7.5,13.2-15.7,23.6-16.5,2.6-.2,5.6,.3,7.6,2.1,2.2,1.9,2.8,4.9,2.8,7.7,.1,6.7-2.8,12.9-5.9,18.7,6.9-4.3,15.7-10.1,24.4-8.2,2.1,.5,3.9,1.6,5,3.5,2,3.6,1.5,9.9,.4,13.7-2.1,7.3-10,12.9-14.8,18.4,9.3-4,21.2-10.8,31.5-6.3,2.4,1.1,4.2,3.1,6,5-.6,8.1-3.4,13.7-9.6,19.1-4.4,3.8-9.7,6.8-14.6,9.9,9.2-1.8,22.1-4.7,30.6,1,1.5,1,2.6,2.5,2.9,4.3,.7,3.4-1.6,8.6-3.7,11.4-5.1,6.8-14.8,9.7-22,13.7,6.8,.5,16.8,1.1,21.5,6.9,1.1,1.3,1.6,2.8,1.4,4.5-.5,4.1-4.3,7.9-7.5,10.2-6.1,4.3-13.5,6.5-20.5,8.8,7.1,.7,15.8,1.4,20.7,7.3,1.5,1.8,2.4,4.1,2.2,6.5-.4,4.2-3.4,7.6-6.6,10.1-3,2.3-6.5,3.3-10.1,4.2l-9.1,1.4,8.9,4.4c2.6,3.6,5.3,3.9,6.2,9,.5,3-.1,5.7-2,8.1-5,6.3-14.4,7-21.7,8.1,4.1,4,8.3,8,8.3,14.2,0,3.1-1.3,5.9-3.6,8-5.4,4.9-12.7,4.7-19.5,4.5,4.2,3.7,8.7,7.4,9.6,13.3,.4,3-.5,5.8-2.4,8.1-5,5.9-14.1,6.7-21.3,7.1,.9,1.1,1.8,2.3,2.6,3.5,1.7,2.8,2.8,6.3,1.9,9.6-.8,2.9-3.3,5-6,6.3-8.3,4-16.6,2.8-24.9-.1,1.8,2.5,3.7,5.3,4.9,8.1,1.7,4.1,2.6,9,.7,13.2-1.2,2.7-3.5,4.7-6.2,5.8-7.1,2.7-15-.2-21.6-3,2.5,4,4.1,7.8,4.8,12.5,.4,2.5,.3,5.6-1.4,7.6-4.7,5.8-13.3,3.7-19.6,4.2-1.2,3.2,1,7.2,.6,10.7-.5,4.1-3.2,6.4-6.2,8.8-8.6,1-13-.5-20.5-4.6,2.3,4.7,5,9.8,3.2,15.2-.7,2-2.2,3.6-4.2,4.4-5,2-10-.4-14.6-2.3,.5,2.7,1.4,6,.7,8.7-.4,1.6-1.4,3.1-2.8,4-4,2.2-10.2-.1-14.2-1.3,.8,3,1.9,6.5,1,9.5-.5,1.6-1.4,3.1-2.9,3.9-4.1,2-9-.1-13-1.6,.1,1.6,.1,3.2,0,4.9-.1,3-.6,5.5-2.9,7.7-3.4,1.6-5.6-.5-8.8-.2-2.6,.2-2.1,7-4.6,9-2.8,2.2-5.9-.5-8.9-.8-.5,.4-.8,.7-1,1.4-.4,1.5-.7,3.2-1.3,4.6-1.1,2.5-4.7,5.5-7.2,6.5-2.8,1.2-5.9,1.1-8.7-.3-5.1-2.4-6.8-6.4-8.5-11.4-3.4,1.4-6.9,2.7-10.7,2.1-1.9-1.8-1.7-4.1-2-6.6-3.3-4.1-7.4,1.4-12.1-1.1-2.9-3.6-2.9-8.1-2.7-12.5-3.2,2-6.8,4.2-10.7,4-1.8-.1-3.4-.7-4.6-2.1-2.7-3.5-1.7-7.6-1-11.5-3.8,1.7-8.7,4.1-13,3.4-1.5-.2-2.8-.9-3.7-2.1-2.3-3.2-1.2-7.3-.6-10.8l-.8,.4c-4.2,2.5-9.4,4.9-14.3,3.4-2-.6-3.6-2-4.5-3.9-2.3-5.1-.2-10.4,1.7-15.2-2.7,1.8-5.4,3.8-8.4,5-3.9,1.5-10.4,2.3-14.3,.4-7.6-3.7-2.3-12.5-4.4-18.1-4.7,.9-9.5,2.6-14.2,1.6-2.6-.6-4.7-2-6-4.3-3.2-5.7-1.2-12.7,.4-18.6-2.9,1.3-5.8,2.7-8.8,3.6-4.8,1.4-10.7,1.9-15.1-.8-2.4-1.4-3.9-3.7-4.6-6.4-1.6-6.7,1.7-13.3,5.1-18.8-1.9,.8-3.7,1.5-5.6,2.1-6.6,2-15.6,2.9-21.9-.7-2.1-1.2-3.8-3.2-4.3-5.7-1.2-5.1,1.6-9.5,4.1-13.6-7.3,1.1-15.1,2.4-21.5-2.3-2.4-1.8-4.1-4.4-4.4-7.4-.6-6.2,3.5-11,7-15.5-6.4,.9-14,1.2-19.3-3.1-2.4-1.9-3.9-4.5-4.1-7.5-.5-6.3,3.7-10.5,7.6-14.8-4,0-8.2,.1-12.1-.6-4.5-.7-9.3-2.8-11.9-6.6-1.6-2.3-2.1-5.1-1.6-7.8,1.2-6.4,8-10.2,13-13.6-6.9,0-13.7,.1-19.9-3.6-3.2-1.9-6-4.8-6.8-8.6-.7-2.9,.1-5.8,1.8-8.2,4.4-6.1,12.7-7.5,19.6-8.3-8-2.4-16.2-3.4-23.5-7.7-2.8-1.7-5.9-4-6.6-7.4-.4-2.2,.4-4.5,1.6-6.2,4.3-6.1,12.5-7.3,19.4-8.6-7.1-3.7-15-4.9-21.4-10.2-3.2-2.7-6-7.3-6.2-11.6,0-.4,0-.9,.1-1.3s.2-.9,.3-1.3c.2-.4,.3-.8,.6-1.2,.2-.4,.5-.7,.8-1.1,6.1-6.5,20.3-5.4,28.5-5.3-8.3-4.6-18-8.3-22.5-17.3-1.4-2.8-2.5-6.4-1.3-9.5,.8-2,2.5-3.4,4.4-4.3,9.4-4.2,22-.4,31,3.1-4.9-6.1-12.3-9.6-15.8-17-1.6-3.4-3.5-8.6-1.9-12.3,1-2.3,3.2-3.6,5.5-4.5,8.3-3,17.5,1.1,24.8,4.9-3.1-4.9-6.1-9.8-6.8-15.7-.4-3.8,.2-8.3,2.8-11.2,1.5-1.6,3.4-2.5,5.6-2.6,10.8-.5,18.7,8.4,25.8,15-1.9-5-3.8-10.2-4-15.6-.1-3.2,.5-6.8,2.9-9.1,1.6-1.6,3.8-2.2,6-2,7.8,.4,14.8,7.8,19.6,13.3,.1-3.6-.2-8,1-11.4,.9-2.6,2.6-5.3,5.3-6.4,2.5-1,5.2-.5,7.6,.6,6.4,3.2,9.3,10.3,11.6,16.6,.7-3.7,1.3-7.6,3.2-11,1.6-2.8,3.9-5.6,7.1-6.4,2.1-.5,4.2-.1,6,1,5.5,3.4,6.4,10.3,7.6,16.1,.7-1.2,1.3-2.5,2-3.7,2-3.6,4.2-7.3,8.5-8.3,1.7-.4,3.3-.1,4.7,.9,4.2,3,5,9.1,6,13.8,1.1-1.8,2.2-3.6,3.3-5.3,1.8-2.8,4.6-5.3,8-5.9,1.8-.3,3.6,.2,5.1,1.3,4.5,3.4,4.8,9,5.3,14.2l.3-.3c2.7-3,5.5-6.7,9.9-6.7,1.8,0,3.5,.7,4.7,2.1,3.9,4.3,3.7,10.6,3.7,16,2.2-2.5,4.8-6.1,7.6-7.6,2.3-1.3,3.9-.9,6.3-.2,4.1,4.2,4.6,8.5,6.4,13.8l1.2,.5c2.2-1.4,6.4-3.6,9-2.8,5.3,1.7,3.4,8.5,5.8,12.3,5.2-.1,9.9-.7,15.2,.2-.1-2.7-.2-5.6,.6-8.2,.5-1.8,1.5-3.4,3.1-4.2,3.5-1.8,7.6-.1,11,1,.1-4.7,.3-10.9,3.8-14.4,1.2-1.2,2.7-1.8,4.4-1.7,4.7,.4,7.6,4.5,10.5,7.7-.2-5.4-.7-11.6,2.3-16.4,.9-1.5,2.3-2.6,4.1-2.9,4.4-.9,7.6,2,11,4.3,.7-4.8,.9-10.6,5.1-13.8,1.4-1.1,3.1-1.5,4.9-1.2,5.6,1,8.6,6.1,11.7,10.3,.4-4.9,.7-11.5,4.7-14.9,1.1-1,2.5-1.4,4-1.3,5.4,.5,8.9,6,11.9,9.9,.5-4.1,1.1-8,2.3-11.9,1.4-1.4,2.7-2.8,4-4.2,3.2-.9,5.8-1.5,8.9,.1,5,2.7,7,9.2,8.7,14.2h0Z"/><path class="cls-18" d="M471.61,377.1c1.1,.2,2.2,.6,3.2,1,1.3,1.4,1.6,2.2,2,4.1-1.6-.1-2.8-.5-4.3-1-1.2-1.7-1-2.1-.9-4.1h0Z"/><path class="cls-15" d="M301.71,438.8c1.9-1.3,2.9-2.1,5.2-2.3l.5,1c-.7,2-1.8,3-3.2,4.5-1.2-.7-1.8-2-2.5-3.2h0ZM232.31,102.9l3.1-2.3c.4,2.8,.8,5.4,0,8.2l-.7,.1c-1.4-2-1.9-3.7-2.4-6h0Z"/><path class="cls-18" d="M121.91,196c1.8-.2,3.2-.3,5,0,1.6,1.6,1.4,2,1.6,4.2-1.5-.1-3.8-.3-5-1.1-1.3-.9-1.3-1.7-1.6-3.1h0Z"/><path class="cls-15" d="M408.31,442.7c-1.2-1.6-2.3-2.9-2.5-5l.8-.4c2.4,1.1,3.7,3.1,4.9,5.3-.4,1-.9,1.4-1.7,2.2l-1.1-.3-.4-1.8h0Z"/><path class="cls-10" d="M529.11,308.7c1.7,0,3.5,.1,5,1,1.4,.9,2,2.3,2.4,3.8-1.9-.1-4.6-.1-6.1-1.4-1.3-1.1-1.2-1.9-1.3-3.4h0Z"/><path class="cls-3" d="M134.41,159.6c1.7,1.2,2.5,1.5,3.4,3.4l-.6,1.2c-2.6,.9-3.3,.7-5.8-.5l-.5-.2c.8-1.7,2.2-2.8,3.5-3.9Z"/><path class="cls-18" d="M129.11,251.5c2.2-.2,4.3-.5,6.2,.6,.4,1.5,.1,1.7-.5,3-1.3,.1-2.6,.2-3.9,.1-1.5-.2-1.5-.3-2.4-1.5l.6-2.2h0Z"/><path class="cls-3" d="M298.61,438.9l3-.1c.7,1.1,1.3,2.4,2.5,3.2-1.8,1.3-3.5,2.4-5.4,3.4-.2-2.3-.5-4.2-.1-6.5h0Z"/><path class="cls-15" d="M392.01,456l4.9,.7c.1,2,.1,3.4-.7,5.2-1.2,.8-2,1.3-3.5,.8-.8-.3-1.6-.8-2.3-1.3l3.5-2.4,.1-1.3-2-1.7h0Z"/><path class="cls-3" d="M296.81,111.9c.1,2.6,.4,5.2-.9,7.5l-1,.3c-1.8-2.3-1.5-4.9-1.5-7.6,1-.2,2.3-.2,3.4-.2Z"/><path class="cls-10" d="M561.81,143.7c1.1-.2,1.6,0,2.7,.4l-.1,1.2c-1.5,2-3.2,3.2-5.3,4.5-1.3-.2-1.6-.3-2.6-1.1l.2-1.3c1.4-1.8,3-2.6,5.1-3.7h0Zm11.2,56.3c1.3,.1,2,.3,3.1,1l-.2,1c-1.8,1.5-3.8,2.2-5.9,3.1-1.4-.3-1.9-.3-3-1.3l.3-1.3c2.2-1.8,3.2-2,5.7-2.5h0Z"/><path class="cls-15" d="M391.81,454.8c-.7-2.1-1.4-3.8-.7-5.9,1.9,.3,2.4,1,3.8,2.2,.7,1.9,1.5,3.7,1.9,5.7l-4.9-.7,.1-.5-.2-.8h0Z"/><path class="cls-3" d="M395.01,451c.7,1.9,1.5,3.7,1.9,5.7l-4.9-.7,.1-.5,1.3-.2c1.4-1.4,1.2-2.4,1.6-4.3h0Z"/><path class="cls-3" d="M391.81,454.8l.2,.7-.1,.5,2,1.8-.1,1.3-3.5,2.4c-1.8-1.1-4.4-2.7-5.1-4.8,2.9-.5,4.5,0,6.6-1.9ZM471.01,89.2c1.7,.2,3.4,.4,5,.8-1,2.8-1.5,5.5-3.9,7.4l-1-.3c-1.2-2.6-.5-5.2-.1-7.9h0Zm-298.7,26.9c2.5-.3,3.4-.2,5.4-1.8,.8,2.2,1.8,4.3,1.1,6.6l-1,1c-1.7-.4-2.6-.5-3.6-2-.8-1-1.3-2.6-1.9-3.8Z"/><path class="cls-10" d="M129.91,171.9c-1.6-1.3-3.3-2.4-3.9-4.4l.7-.8c2.5-.4,4.1,.4,6.2,1.4,1.1,1.5,1.5,1.8,1.6,3.6-1.8,.9-2.6,.6-4.6,.2h0Z"/><path class="cls-3" d="M520.01,96.6c1.2,2.2,3.1,2.5,4.2,4.5-1.9,2.1-3.7,5.3-6.4,6.3l-.7-.7c.3-3.6,1.7-6.8,2.9-10.1Zm-177.2,364.9c1.6,.2,3.4,.9,4.7,1.8,1.4,.9,1.6,1.8,1.9,3.4-.6,2.2-1.9,3.1-3.6,4.5-1,.5-2.1,1.2-3.2,1.3-1.3,.1-1.5-.5-2.3-1.3-.6-3.8,.7-6.5,2.5-9.7h0Zm36.7-1.8c1.2,.9,2,1.7,2.6,3,1.2,2.6,1.7,5.2,.6,7.9-1.5,1-1.4,.8-3.1,.4-1.6-.9-4-2.1-5-3.6-.8-1.2-.6-1.8-.5-3.2,1.3-2,3.3-3.2,5.4-4.5Z"/><path class="cls-15" d="M326.51,456.9c.4-2.2,1.3-3.5,2.6-5.3l1-.3c1.1,2.7,.5,6.2,.5,9.1,3.2,.6,6.9-2.3,9.4-3.9-2.8,3.9-5.7,8-10.5,9.6-1-.2-1.5,0-2.3-.9-1.9-2-1-5.7-.7-8.3h0Z"/><path class="cls-3" d="M408.31,442.7l.5,1.7,1.1,.3c.8-.7,1.3-1.2,1.7-2.2,.8,1.9,1.9,4.5,1.5,6.6-.3,1.4-.9,1.6-2,2.3-1.2,.2-2.4,.3-3.6,0-3.2-.8-6.5-3.9-8.3-6.6-.6-1-.7-.8-.4-2,2.2,1.1,4.4,2.4,6.9,2.7,1.6-.8,1.6-1.2,2.6-2.8h0Z"/><path class="cls-17" d="M298.81,445.4c-2.2,.7-3.9,1.4-6.2,.9-1.1-1.1-1.5-1.6-1.5-3.2,0-5.7,5-11.7,8.8-15.5-.4,3.8-1.6,7.4-1.2,11.3-.5,2.3-.2,4.2,.1,6.5h0Z"/><path class="cls-15" d="M314.21,440.6c.2,.2,.3,.3,.5,.5,1,1.9-.4,3.4-.8,5.2-.3,1.3-.1,2,.6,3.2,3.1,.1,6.4-2.6,9.1-2-1,2.2-2.8,3.8-4.5,5.5-1.6,1.1-3.6,2.6-5.4,3.3-1.6,.6-2.5,.1-3.9-.6-.7-1.1-1.1-1.9-1.1-3.2-.1-4.7,2.2-8.8,5.5-11.9h0Z"/><path class="cls-3" d="M328.71,127.2c-3.8,.8-6,3.8-10.1,3.7l-.5-1c.7-3.1,5.2-9.3,8-11,1.6-.9,2.7-.3,4.4,.3,1.8,4.3,2.2,10.2,.5,14.6q-.4,1-1.4,1.5l-.8-.6c-.1-1.4-.1-2.5,.2-3.8,.4-1.5,.2-2.3-.3-3.7h0Z"/><path class="cls-17" d="M357.11,116.4c1.5,.3,2.8,.8,4.1,1.4,3.3,1.6,7.2,5.2,8.3,8.7-.2,.8-.1,1.1-.8,1.7-1.6,1.3-6.3-1.1-8.5-1.4h-.5c-1.3,2.6-.4,3.9,.1,6.7l-.8,.7-1.3-.5c-.6-.8-1.2-1.7-1.5-2.7-1.3-4.8-1.5-10.1,.9-14.6h0Z"/><path class="cls-3" d="M419.41,423.2c1.3,.2,2.3,.4,3.3,1.3,2.8,2.5,6.6,7.4,6.5,11.3,0,1.8-.5,2.4-1.8,3.7-2.2,.8-4.3,.1-6.5-.3-4.7-1.8-7.9-5.7-11.3-9.3,3.3,.6,8.2,2.9,11.2,1.2,.8-2.8-.5-5.3-1.4-7.9h0Z"/><path class="cls-17" d="M354.71,469.6c2.4,1.4,4.9,2.6,7.5,3.8,1.3-.8,2.8-1.8,4.3-2.3,1.6-.5,2.4-.2,3.8,.4,1.1,3.1-.1,5.4-1.4,8.2-1.2,1.1-2.6,2.1-4.1,2.7-2,.7-4.4,.5-6.3-.5-2-1-3.6-2.7-4.3-4.9-1.1-2.5-.7-4.8,.5-7.4h0Z"/><path class="cls-3" d="M310.41,105.2c.2,.1,.4,.1,.6,.2,2.2,1.1,3.5,3.1,4.2,5.4,1.3,4,1.5,10.6-.5,14.4-.5,1-.7,.9-1.8,1.2-1.8-2.2-1.7-4.4-2-7.1l-2.1-.4c-2.4,.5-4.1,2.9-5.7,4.7-1-.9-1.4-1.3-1.4-2.7,.1-5.1,5.3-12.1,8.7-15.7h0Z"/><path class="cls-17" d="M373.11,102.6c2.7,.1,4.9,1.8,6.7,3.7,2.3,2.5,6.4,8.3,5.9,11.8-.1,.9-.3,1-1,1.5-1.9-.1-4.5-3.2-6.4-4.3-.2-.1-.3-.2-.5-.3-2.8,2.3-1.9,5.8-2.9,9l-1.5,.2c-1.1-.9-1.5-1.7-1.9-3.1-1.4-5.8-1.7-13.3,1.6-18.5Zm-79.7,9.5c-5.4-1.4-6.5,4.1-10.9,4.5-1.2-3.3,.7-9,1.9-12.2,1.2-3.1,2.6-6.3,5.8-7.8,1.8,.1,2.5,.2,3.9,1.5,3.6,3.5,2.8,9.1,2.7,13.7-1.1,.1-2.4,.1-3.4,.3h0Z"/><path class="cls-3" d="M278.61,417.4c.6,.2,1.3,.4,1.8,.7,3.3,2.3-1.7,5.8-1.3,8.9,.6,.6,1.1,1.1,2,1.3,4.7,1.5,8.9-2.8,12.8-4.9-1.8,3-3.9,5.7-6.3,8.2-2.4,2.1-5.6,4.9-8.7,5.8-2.1,.6-3.5,.4-5.4-.5-1.2-1.4-1.8-2.4-1.9-4.3-.3-5.6,3.3-11.3,7-15.2h0Z"/><path class="cls-17" d="M342.21,130c1.8,0,3.7,.1,5.4,.5,3.9,.9,5.9,4.1,7.9,7.2-2.9,2.3-6,4.4-9,6.5l-1.9,.6c-2.9-.8-6-1.5-7.8-4.1-.9-1.3-1.3-3.4-.9-4.9,.7-3,4-4.5,6.3-5.8h0Zm94.6,278.8c.5,.1,.9,.3,1.4,.5,3.7,1.4,6.9,5.5,8.4,9.1,1,2.5,1.8,5.9,.6,8.4-.6,1.2-1.5,2.1-2.8,2.5-3.6,1.2-7.4-1.3-10.4-3-2.4-1.9-5.9-4.3-7.2-7.1,3.3-1,7.7,2.5,11.2,1,1-.4,.9-.9,1.3-1.8,0-2.5-1.6-3.3-2.7-5.3-1-1.8-.4-2.6,.2-4.3h0Zm-44.5-318.1c1.2,.4,2.3,.9,3.3,1.8,3.7,3.1,8.4,11,8.6,15.8,.1,1.4-.1,1.6-1,2.6-2.6,0-4.8-2.7-7-4.2l-.5-.3c-1.7,.3-2.3,.3-3.6,1.4-.6,2.2,.3,4.3,.8,6.4l-.8,.9-1.4-.2c-2.2-2.7-1.8-7-1.9-10.4,0-5.3-.4-9.7,3.5-13.8h0Zm-142.9-7c2.4,.9,3.8,2,5.1,4.2,3.4,6,2.8,15.9,1,22.3l-.6,.2-1.2-5c-1.4-1.5-1.8-1.6-3.8-2.1-2.4,1.9-4.3,6.3-7.2,6.9-1.2-1.2-1.2-2.8-1.3-4.4-.2-9.3,1.6-15.2,8-22.1h0Zm181.5-9.5c1.1,.2,2.3,.5,3.4,1.1,4.7,2.6,7.7,9.3,8.9,14.3,.5,2.4,1.1,6.4-.4,8.5-.7,.9-1.1,.7-2.1,.9-2.2-1-3.3-2.8-4.8-4.7-1.6-.6-1.8-.7-3.5-.2-1.7,2.1-1.4,5.4-1.8,8l-.8-.2c-.6-.8-1.2-1.7-1.5-2.7-2-6.7-.8-18.8,2.6-25Zm-160.8,13.3c1.2,.1,2.6,.6,3.6,1.2,2.8,1.8,3.8,5.8,4.3,8.9,.8,5.1,.8,12.6-2.3,16.9l-.9-.3c-.5-2.4-1.2-4.8-2-7.2-1.1-.1-2.1,0-3.2,0-3.1,1.6-5.3,5-7.5,7.7-1-11,1-18.6,8-27.2h0Zm139.9-6.6c1,0,2.1,.1,3.1,.5,4.3,1.7,7.4,7.9,9,11.9,.9,2.4,2.8,7.4,1.5,9.8-.5,.9-.9,.8-1.8,1-2.5-.6-4.1-3-5.8-4.8-.6,.1-1.4,.1-2,.3-3.4,1.3-1.5,5.9-2.8,8.5-.9,0-1.1,.2-1.8-.5-2.7-2.6-3.1-10.6-3.2-14.2-.1-4.7,.4-8.9,3.8-12.5h0Zm68.3,288.9c.6,.1,.9,.1,1.4,.3,3.3,1,7.1,5.2,8.6,8.3,1.7,3.4,2.7,7.7,1.4,11.4-.7,1.9-2.1,3.4-4,4.2-4.2,1.7-9.1-.2-13-1.8-1.7-1.3-3.4-2.6-5-4.1-1.3-1.2-2.3-2.5-2.3-4.2,4-.8,9,2.5,12.9,.9,1.5-.6,1.5-1.4,2-2.8,0-1.6-.3-2.4-1.3-3.7-.9-1.1-1.7-2.3-2.4-3.6,0-2.5,.4-2.9,1.7-4.9h0Zm-245.1,12.6c.8,.3,1.4,.5,2.1,.9,1.5,.9,2.8,1.9,3.3,3.6-1.2,1-2.1,2-2.8,3.3-.9,1.6-1.3,4.2-.5,5.9,.7,1.6,1.6,1.8,3.1,2.3,1.4-.2,2.5-.4,3.7-1.2,2-1.4,4.2-2.8,6.6-3.1,.6-.1,.8,.2,1.2,.6,.1,.5,.1,.7,.1,1.2-.2,2.8-2.7,4.8-4.7,6.6-3.2,2.4-7.5,5-11.7,5.3-2.2,.1-4.3-.5-5.9-2-1.9-1.8-2.6-4.4-2.5-6.9,0-6.5,3.7-12.2,8-16.5h0Zm225,7.1c.9,.1,1.8,.1,2.6,.5,3.4,1.5,6.9,6.3,8.4,9.7,1.4,3.2,2.2,7.1,.7,10.4-.8,1.8-2.4,3.3-4.4,3.9-4.4,1.3-8.2-.7-12-2.6-3-1.8-6.1-3.5-8.5-6-.5-1.8-.2-1.9,.5-3.6,4.2-2.7,8.1,3.3,13.1,2.2,1.5-1,2-1.5,2.6-3.1-.3-2.7-2.6-4.4-3.7-6.8-.9-1.7,.1-3,.7-4.6h0Zm-202.5,10.1c1.6,.9,3,1.4,3.9,3.1-.4,2.5-2.4,4.3-3.7,6.5,0,1.5,.1,1.9,.9,3.1,.8,1.1,1.9,2.2,3.3,2.4,2.9,.4,5.1-2.6,7.3-4,1.6-1,2.1-.9,3.8-.4,1.1,1.3,1.2,1.5,1.4,3.3-1,2.1-3.2,3.7-4.9,5.3-3.2,2.5-7.2,5.2-11.3,5.8-2.3,.4-4.8,0-6.7-1.5-2-1.6-2.9-4.2-3-6.7,0-6.7,4.6-12.3,9-16.9h0Zm-23.4-296.7l-1.7-1.5c-6-1.4-5.3,6.5-9.6,8-.2-.4-.4-.9-.6-1.3-2.5-7.5-2.2-18.2,1.7-25.3,1.1-2.1,2.2-3.4,4.5-4.1,1.6,.2,2.4,.5,3.5,1.7,5,5,5.2,13.7,5.2,20.2l-3,2.3h0Zm221.5-35.9c.2,0,.4,.1,.6,.1,3.5,.8,5.6,2.3,7.6,5.4,4.6,7.5,3.8,16.3,2,24.5l-1,.6c-2-1.4-3.6-6.2-4.8-8.5-.9-.2-1.8-.2-2.7-.3-4.7,2.4-1.6,5.8-4.4,8.9l-1.5-.1c-1.9-2.4-1.3-6.5-1.2-9.5,.3-6.8,0-16.1,5.4-21.1ZM188.41,342.4c.6-.1,.8-.2,1.5-.2,1.6,0,2.7,.1,3.8,1.2-.4,3.6-6.1,6.1-6.7,10.4l.8,.9c4.8,1.2,9.7-1,14.5-.8,1.6,.1,2.2,.1,3.2,1.3-1.1,3.6-6.8,6.3-9.8,8-5,1.7-11.1,3.4-16.4,2.4-2.4-.5-4.8-1.6-6.1-3.8-1.1-1.9-1.1-4.1-.4-6.1,2.2-6.7,9.7-10.6,15.6-13.3h0Zm313.4,4c4.7,2.2,9.8,7.9,11.9,12.7,1.3,3.1,1.9,6.7,.5,9.9-.9,2.1-2.6,3.6-4.7,4.3-5.4,1.9-11.8-.7-16.6-3.1-2.4-1.3-5.7-3-7.4-5.1-.1-.9-.3-1.9,0-2.8,1.9-5.2,11.8,2.2,16.1,.1,.9-1.4,1-2.1,.9-3.8-.1-2.2-4.1-5-5.6-6.4l4.9-5.8h0Zm14.6-20.4c2.9-.2,5.5-.1,8.4,.7,7.9,2.3,12.1,7,16,14.1-1.3,1.4-2.6,2.9-4.1,4.1-4.7,3.6-10.2,3.6-15.8,3-4.4-1.4-9.6-2.7-13.2-5.7-1.2-1-1.1-1.3-1.3-2.7,.3-.4,.9-1.9,1.3-2.1,1.9-1.3,11.3,2.4,15.7-.2l.3-1.4c-1.2-2.9-4-5.1-6.4-7.1-.9-.6-.8-1.7-.9-2.7Zm-306.6,35.3c1.4,.3,2.4,1,3.5,1.9,4.5,4-3.8,7.5-3.6,11.9,5.9,6.1,10.2-2.2,16.6-.9,1.4,1.3,1.5,1.9,2,3.7-1,2.4-3.7,4.2-5.6,5.9-4.4,2.7-9.9,5.6-15.2,5.6-2.5,0-5-.7-6.7-2.5-1.8-1.9-2.3-4.6-2.1-7.2,.5-7.7,5.9-13.6,11.1-18.4h0ZM471.01,89.2c.7-7.6,2.9-18,8.9-23.3,1.4-1.3,2.7-1.8,4.6-2,2,.7,3,1.1,3.9,3.2,3.8,8.1,2.2,21.4-1.2,29.4-.6,1.4-1.1,2.4-2.4,3.2-1.6-1.1-1.9-2.7-2.3-4.6-.5-2.4-.6-4.7-2.2-6.7-1.1-.5-1-.7-2.1-.3s-1.5,.9-2.2,1.8c-1.6-.2-3.3-.4-5-.7h0Zm79.7,186c6.3,.5,13.2,1.8,17.7,6.7,1.9,2.1,3.3,5,3.2,8-.1,2.1-1.1,4.1-2.8,5.4-3.5,2.8-9.4,2.8-13.6,2.5-3.7-.3-8.5-.1-12-1.3-1.8-.6-2.2-1-3.1-2.7,.1-.7,.3-1.3,.6-2,2.5-4.8,7.6-1.4,11.4-2.7,1.3-.5,2-1.7,2.6-2.9,.2-4.7-4.8-4.5-6.7-8.1,.6-1.6,1.3-1.8,2.7-2.9h0Zm-397.7,20.4c.2,.1,.4,.1,.6,.2,1.7,.6,2.7,1.2,3.5,2.8-.8,2.5-3.8,4-5.5,5.9-1.1,1.2-1.3,1.8-1.2,3.5,4.5,4.2,11.9-.2,16.5,3.6v2c-2.3,3.4-8.3,4.3-12.3,5.1-4.6,.5-9.7,1.5-14.2,0-2.5-.8-4.7-2.2-5.8-4.6-1-2.3-.7-4.8,.4-7,3.3-7,11.4-9.3,18-11.5h0Zm43.5-216.7c2.1,.1,3.6,.3,5.4,1.4,6.3,4.1,10.1,14.5,11.8,21.5,.6,2.4,1.3,5.8-.1,8h-1.2c-2.3-1.7-3.2-4.4-4.3-6.9-1.5-.4-2.3-.4-3.8-.1-2.9,2.7-1.6,6.4-2.3,10l-1.1,.6c-.6-.1-1.1-.3-1.7-.6-3.9-2.4-5.1-11.7-5.7-15.8-.8-5.8-.8-13.2,3-18.1Zm364.6,169.3c7-.1,14.4,.4,20.4,4.4,2.4,1.6,4.8,4,5.2,7,.1,.5,.1,1,.1,1.5s-.1,1-.3,1.5c-.1,.5-.3,1-.6,1.4-.2,.4-.5,.9-.9,1.2-4,4.6-11.7,5-17.3,5.6-3.3,.1-6.6,.1-9.9-.1-2.2-.1-3.9,.1-5.4-1.7l.3-2c2.8-4,9.2-2.9,13.4-4.3,1.7-.5,2-.9,2.7-2.4-2-5.7-6.7-3.4-10.1-6.9,0-1.9,1.3-3.5,2.4-5.2h0Zm-422.4,21.8c.4,0,.8,0,1.2,.1,1.2,.2,3.2,1.2,3.9,2.2-.4,4.9-7,5.8-9.1,9.5-.4,.7,.1,1.7,.3,2.5,4.1,3.7,9.1,.2,13.5,1.8,1.7,.6,2.7,1.2,3.4,2.8l-.3,.8c-3.5,3.3-8.6,3.2-13.1,3.7-5,.9-12.6,.7-17.3-1.5-2.2-1-4.2-2.7-5-5-.7-2.1-.3-4.3,.7-6.2,4-7.2,14.6-9,21.8-10.7Zm31.8,49.3c.1,.1,.2,.1,.4,.2,1.6,1,2.5,1.8,3,3.6-.9,2.6-3.2,3.7-5,5.7-1.2,1.4-1.4,1.9-1.4,3.7,3.5,4.2,13.1,1.1,18.3,2.3l1,2c-2.6,4-8.4,5.7-12.6,7-5,1.5-11.9,2.2-17,.7-2.3-.7-4.7-1.8-5.8-4.1-1.1-2.3-.9-4.8,.1-7.1,3-7.7,11.9-11,19-14h0Zm365.7-18.5h.4c5.6-.1,12.8,3.1,16.8,7,2.4,2.3,4.3,5.3,4.3,8.7,0,2.2-1,4.3-2.7,5.8-4.6,4.1-12.7,3.2-18.4,2.9-5.6-.7-10.1-2.3-15.2-4.5,1-1.4,2.2-3.6,3.5-4.6,2.6-1.9,9.1,.5,12.1,.9,1.5-.6,2.5-.9,3.3-2.5,1.9-3.8-4.6-6.2-6.2-9.3,.2-2.3,.8-2.7,2.1-4.4h0ZM111.01,214c4.1-.7,12.7-.4,16.5,1.4,.9,.4,.8,1,1.1,1.9-1.7,4.4-8.7,2.2-12.1,4.8-1.1,.8-1,1.3-1.2,2.5,2.4,7.3,11.6,4.4,15.6,9,0,1.6-.1,1.5-1.2,2.6-9.7,0-19.6-1.3-28.4-5.8-2.7-1.4-7.3-4.1-8.2-7.3-.3-1.1-.2-2,.5-2.9,3-3.9,12.7-5.5,17.4-6.2h0Zm470-25c4.8-.5,11.1,.5,15.7,2.2,2.8,1,5.3,2.3,6.6,5.1-.1,1.6-.1,2.2-1.1,3.5-5,7-21,11.6-29.3,13.3-2.2,.2-4.1,.6-6.3-.2l-.4-1.1c1.9-2.9,7.1-4.8,10.1-6.4,2.2-1.2,4.8-2.4,5.5-4.9-2.6-4.4-12.1-2.7-15.9-6.1l.6-1.2c4.6-2.6,9.6-3.4,14.5-4.2h0ZM172.31,116.1c-3.4-6.9-9.1-20.9-7-28.5,.6-2.1,1.3-3.2,3.3-4.3,2-.2,3.2,.2,4.9,1.1,8.7,4.8,17.7,18.5,19.7,28.3,.3,1.6,.2,2.1-.7,3.4-3.6,.7-6.8-7.3-10.3-9.3-1.4,0-1.8-.1-2.8,.8-1.7,1.5-1.6,3.7-1.7,5.7v.8c-1.9,1.8-2.9,1.7-5.4,2Zm-47.5,127.1c2.7-.2,6.5,.2,8.9,1.5,.4,3.6-10,6.1-11.3,10,3.3,4.8,12.5,3.2,17,7.2l-.6,2c-2.3,2.1-7.1,2-10.1,2.2-7.1-.5-15.4-.4-21.6-4.3-2.2-1.4-4.5-3.6-5-6.4-.3-1.8,.3-3.5,1.4-4.8,4.7-5.9,14.5-6.9,21.3-7.4h0Zm444.7-23.3c6.9-.6,14.5-.9,21,1.8,2.8,1.2,6,3.1,7,6.1,.6,1.6,.3,3.3-.5,4.8-3.5,6.2-13.1,7.9-19.4,9.3-3.2,.5-6.5,1.1-9.8,1.3-1.9,.2-3.8,.2-5.3-1.1v-1.7c2.1-4.5,7.4-5.1,11.5-7,1.6-.8,2.2-1.4,2.7-3-.2-.6-.4-1.1-.8-1.7-1.5-1.9-3-2.5-5.3-2.9-2.1-.4-3.8-.6-5.3-2.2,.2-.6,.2-.8,.5-1.4,.7-1.2,2.3-1.8,3.7-2.3h0Zm-58.7-153.9c2-.1,3.1-.2,4.9,.8,1.5,1.7,2.1,3.4,2.4,5.6,.7,6.5-3.1,26.1-7.6,31.1-.8,.9-1,.7-2.2,.8-2.6-3.6,.8-8.9-4-13.8l-.4-.4c-5.4,1.5-5.2,8.9-10.4,10.7l-.8-.8c-.3-3,.4-5.9,1-8.8,2.4-10.8,7.8-19.2,17.1-25.2h0Zm9.2,30.6c3.3-7.5,10.7-17.3,18.6-20.3,2.7-1,5.5-1.4,8.2-.1,2.1,1,3.1,3.6,4,5.6-2.1,9.1-9.4,27.3-17.5,32.8-.8,.6-1.6,.7-2.6,.9-1.5-.5-2-.7-2.9-2,1.6-3,4.8-7.4,3.8-10.7-.3-1-.9-1.7-1.6-2.4-1.3-.6-2.3-1.2-3.8-.6-.7,.3-1.5,1-2.1,1.5-1-2.2-2.9-2.5-4.1-4.7h0Zm-381.8-.3c6-.1,11.4,2.1,16.1,5.8,4.5,3.5,15.2,16.7,15.5,22.3,.1,1.1-.3,1.2-1,2-3.6-.8-5.4-6.1-9.6-7-1.9-.4-3.2,.4-4.7,1.4-.2,.1-.4,.2-.6,.4,.8,3.9,2.7,6.3,4.3,9.8,.7,1.6,.8,2.2,.1,3.8l-1.2,.4c-6.4-1.4-13.4-10.9-17-16.3-3.2-4.8-7.3-12.2-5.9-18.1,.7-2.5,2-3.3,4-4.5h0Zm429.8-1.2c.2,0,.3,0,.5,.1,2.3,.5,4.7,1.5,6,3.6,1.4,2.3,.9,5.3,.2,7.7-2.6,9.2-13,18.9-21,23.4-2.2,1.2-4.3,2.4-6.9,1.6l-.4-1.2c.4-2.1,1.6-3.1,3.1-4.5l.6-.6c.4-.7,.7-1.3,1.1-2,.7-1.5,1.5-3.4,1-5.1-4-3.1-10.7,3.1-15.3,2.5,0-1.6,.6-2.3,1.4-3.6,6.3-10.1,18-19.2,29.7-21.9ZM130.91,163.4c-1.3-.3-2.6-.4-3.9-.4-2.4,.1-4,.3-5.6,2.1-.1,6.2,9.5,8.8,10.7,14.6l-.9,1c-4.5,.4-13.2-3.7-17.2-5.8-7-3.6-19.1-9.9-21.2-18.2-.3-1.4-.2-2.5,.6-3.7,1.1-1.7,3.5-2.5,5.4-3,11.6-2.7,25.9,3.4,35.6,9.5-1.3,1.2-2.7,2.3-3.5,3.9h0Zm-15.4-44.8c4.7-.1,10.2,1.7,14.4,3.6,7.4,3.2,18.8,10.8,21.9,18.5l-.3,.6c-4.3,.5-8.7-3.3-13.1-2.6-1.5,.2-1.6,.5-2.4,1.6,0,1.7,.3,2.7,1,4.2,.1,.2,.1,.3,.2,.5,1.5,1.5,4.1,3.4,5,5.3,.6,1.3,.5,1.6,0,2.9-.6,.2-1.2,.3-1.8,.3-7.3-.7-18.6-10.5-23.4-15.6-3-3.2-6.3-7.6-6-12.2,.2-3.5,2.1-5.1,4.5-7.1h0Zm-18.1,63.6c.8,0,1.6-.1,2.3-.1,7.3,0,23.8,.5,28.9,6.1,1,1.1,.9,1.5,.8,2.9-2.1,1.8-4.7,1.6-7.4,2.1-2.6,.5-4.1,1.2-5.6,3.4,1.2,5.3,8.8,5.5,12.6,8.2-.3,1.8-.3,3.3-1.6,4.7-8.7,.3-23-4.8-30.5-9.1-3.6-2.1-8.3-5.5-9.3-9.8-.3-1.3-.1-2.7,.7-3.9,1.8-2.9,5.9-3.7,9.1-4.5h0Zm491.9-25.6c3.8-.5,7.6-.6,11.2,.8,2,.8,4,1.9,4.8,4,.7,1.7,.2,3.6-.6,5.2-5,10.3-25.7,16.6-35.9,20.1-1.1,0-1.2-.2-2.1-.8-.3-.7-.6-1.5-.6-2.2-.3-4.4,7.7-5.9,10.3-8.7,1-1.1,.8-1.7,.7-3.1-2.9-2.9-6.5-2-10.3-2.3-1.6-.1-2.5-.2-3.5-1.5,.2-.8,.5-1.5,1.1-2.2,5-6.1,17.6-8.4,24.9-9.3h0Zm-2.8-32.9c2.2-.2,4.5,.1,6.5,1.2,1.5,.8,2.7,2,3.1,3.6,.6,2.2-.4,4.7-1.4,6.6-4.4,7.9-23.6,20.9-32.2,23.1-1.4,.3-1.5,.2-2.6-.5-.1-.6-.2-1.2-.1-1.7,.3-2.5,1.2-2.8,3.1-4.2,2.4-1.6,5.3-4.7,6.4-7.4,.6-1.4,.5-1.6-.1-3-3.7-2.1-11.1,.7-15.3,.8-.7,0-.7-.2-1.2-.7,.3-.6,.6-1.1,1-1.7,7-8.5,22-14.9,32.8-16.1h0Z"/><path class="cls-10" d="M457.21,102c3.9-.2,7.8-.2,11.8-.1,25,.6,50.4,6.8,68.1,25.6,20,21.3,27.2,51.3,26.1,79.8-1.9,50.7-28.9,92.4-60.3,130.1-14.9,18.1-30.9,35.2-48.1,51.1-30,27.7-62.2,52.7-92.1,80.5-11.1-7.2-21.8-15.1-32.7-22.7l-61.4-42.5c-3.9-2.6-7.7-5.3-11.5-8-40.2-29.3-87.8-76-109.4-121.2-3.3-6.9-6.1-14-8.3-21.3-2.2-7.3-3.9-14.7-5.1-22.3-4.3-27.4-.5-59.7,16.3-82.5,15.1-20.5,41-29.7,65.3-33.3,43.6-6.4,94.2,10.3,129,36.1,31.4-26.8,70.7-46.2,112.3-49.3h0Z"/><path d="M439.61,115c3.3-.3,6.6-.2,9.9-.2,2.8,1.8,4.9,5.4,7.7,6.5,2.4-.1,4.3-1.6,6.4-2.7,3.4-1.8,7-3.1,10.9-1.8,5.5,2,8.3,7.2,10.6,12.2,2.4-.9,5-1.8,7.6-2.1,4.1-.4,8.8,0,12,2.8,4.8,4.2,4.7,10,5.3,15.8,.1,.5,.3,1.5,.8,1.8,4.9,2.2,8.9-1.5,15.9,4,11.9,9.4,.7,15.9,4,21.8,2.3,3.9,8.8,5.4,9.1,10.5,.3,4.1-2.8,8.3-5.4,11.2,.1,.1,.3,.2,.4,.3l.7,.5c1.3,1,2.7,1.9,3.8,3.1,1.9,2.2,3.1,5.1,2.7,8-.6,4.4-3.7,6.6-6.9,9.2,.4,.4,.8,.8,1.3,1.2,.4,.3,.7,.7,1.1,1,8.4,8.3-.5,10-1.8,17-.6,3,1.9,5.6,1.7,8.6-.3,5.9-3.9,6.1-7.7,9.2-1,3.5,2.5,6.2,1.9,9.8-.7,4.4-6,5.3-7,8.7-.5,1.9,1.4,5.5,1,8-.6,4-4.5,6.4-7.4,8.6,.4,1.4,.9,2.9,.9,4.4,0,9-6.3,5.1-9.8,9.9-1.3,1.8,.4,4.5,.9,6.7-1.5,5.8-5,4.8-8.1,8.7-1.1,1.4-1.3,2.5-1.1,4.3,.1,1.4,.2,2.6,0,4-1.9,3.6-6,5-9.6,6.5,.5,3.2,.4,5.9-1.3,8.8-2,1.5-4,.6-6.2,1.2-3.9,1.1-2,5.8-3.5,8.7-2.3,4.4-11.4,8.8-14.9,13.1-1.9,2.3-.7,5-2.2,7.2-1.6,2.4-6,2.9-8.6,3.5-4.3,11.8-5.6,5.2-9.3,9.4-1.5,1.7-1.3,4.5-2.8,6.3-1.9,2.3-5.7,2.1-8.4,2.3-1.4,1.3-1.1,2-1.3,3.9-.9,11.4-5.3,5.6-9.9,9.2-1.9,1.5-1.9,4.8-3.7,6.7-2.2,2.3-5.5,2-8.4,2-1.3,1-1.2,2.4-1.5,4s-.5,3.5-1.7,4.8c-1.9,2-5,1.8-7.6,2-2.5,1.8-2.2,4.4-4.2,6.5-2.2,2.3-4.9,1.4-7.8,1.5-1.2,2-2.3,4.1-3.7,5.9-1.8,2.4-4.3,1.5-6.4,3-3.6,2.5-4.6,6.7-9.4,7.6-4.1-1-5.9-4.1-8.3-7.3-1,1.8-2.1,3.5-3.5,4.9-1.5,1.5-3.2,2.6-5.4,2.4-3.5-.3-5.9-3.5-8-5.9l-7.3-1.4-1.7-2.6c-1.1-1.7-1.6-2.7-3.4-3.5-10.5,.9-7.8-5.7-11.4-7.2-2.1-.9-4.8,.7-7-.2-1.9-.8-2.6-2.5-3.3-4.4l-1.4-3.8c-2.1-1.8-5.3-.1-7.9-1.2-1.7-.7-2.1-2-2.8-3.6-3-6.6-6.6-2.2-11.1-5.4-2.5-1.8-3-6.4-3.6-9.2-1.8-1.6-6.6-1-9.1-2.1-1.4-.6-1.7-1.7-2.2-3-.1-.4-.5-1.3-.6-1.7-1.3-2.6-3.8-2.6-6.2-3.3-2.6-.8-3.5-3.1-4.7-5.3-1.8-.6-3.6-1.2-5.3-2-3.7-1.7-4.9-5-6.2-8.6-3.1-1.4-14.6-8.9-16.4-11.4-1.2-1.7-1.8-6.8-3.1-7.8-2.1-1.5-4.1-1.4-6.5-1.2-1.1,.1-1.2-.2-2-.9-1.2-2.7-1.5-5.6-1.8-8.5-2.6-.6-5.8-1-7.9-2.8-2.8-2.4-2.7-6.4-3-9.8-2.1-1-4.3-2-6.4-3.1-1.8-1-2.8-2-3.4-3.9,.1-.5,.3-.9,.4-1.4,.6-2.2,.8-3.7-.5-5.7-1-1.5-1.9-1.8-3.7-2.1-1.3-.2-2.6-.4-3.7-1.3-2.8-2.2-2.9-7.8-3.3-11-2.5-1.5-6-3.7-7.6-6.1-1.5-2.2,.1-4.3,.4-6.6,1-6.7-5.1-5.4-7.8-9.1-1.2-3.5,.1-7.5,1.2-10.9-15.2-7.6-5.8-8.1-8.6-17.6-.8-2.8-4.3-4.1-5.4-6.9-1.8-4.4,1.2-8.4,2.8-12.3-.6-1.9-1.7-2.7-3.2-4-1.9-1.7-4.2-3.5-4.2-6.4,0-4.1,3.7-8.3,6.4-11.1-.6-.8-1.3-1.5-1.9-2.3-2.2-2.8-3.5-6-2.9-9.6,.8-5.1,4.8-8.2,8.7-11-2.4-3.3-4-6.2-4.3-10.4v-1.4c0-.5,.1-.9,.1-1.4,.1-.5,.2-.9,.3-1.3,.1-.4,.2-.9,.4-1.3,.2-.4,.3-.9,.5-1.3s.4-.8,.7-1.2c.2-.4,.5-.8,.8-1.1,.3-.4,.6-.7,.9-1,4.8-5.1,10.6-5.9,17.3-6.1-1-3.5-2-6.6-1.2-10.3,.8-4.1,3-7.5,6.6-9.7,5.8-3.6,11.7-2.5,17.9-1,.3-2.4,.6-4.7,1.7-6.9,.2-.4,.4-.8,.7-1.1,.2-.4,.5-.7,.8-1.1,.3-.3,.6-.7,.9-1,.3-.3,.6-.6,1-.9,.3-.3,.7-.5,1.1-.8,.4-.2,.8-.5,1.1-.7l1.2-.6c.4-.2,.8-.3,1.3-.4,5.5-1.6,11.5,.4,16.3,3.1,.5-.8,1-1.5,1.6-2.3,2.4-3.3,5.6-6,9.8-6.5,5.8-.6,10.2,3.2,14.3,6.6,1.9-1.5,3.9-3.2,6.1-4.2,7.2-3.3,9.2,3.6,14.8,5.9,3.1,1.3,6.8-3.4,10.9-1.5,3.6,1.7,5.4,5.8,8.5,7.5,2.5,1.4,7.1-3.2,11.1-1.5,4.3,1.7,4.5,4.7,6.4,8.3,.2,.4,.9,1.7,1.3,1.9,0,0,8.2-1.3,10.2-.7,2.3,.7,4,2.3,4.9,4.6,1.2,2.7,1.6,6.1,.4,8.9-1,2.4-3.1,4.1-5.6,4.9-.4,.1-.7,.2-1.1,.3-.4,.1-.7,.1-1.1,.2-.4,0-.7,.1-1.1,.1s-.7,0-1.1-.1c-.4,0-.7-.1-1.1-.2-.4-.1-.7-.2-1.1-.3-.4-.1-.7-.3-1-.4-.3-.2-.7-.3-1-.5-3.1-1.8-4.1-4.4-4.9-7.7l-.2-.7-.1-.6c-2.3-.4-5.1,1.3-7.2,2.1-.5-.2-1-.5-1.5-.7-3.4-1.6-7.6-7.7-10.9-7.7-2.6,0-4.7,2-7.5,1.8-3.8-.2-6.9-3.7-9.4-6.2-2.5,.9-5.2,2-7.9,2.2-4.5,.3-7.3-1.8-10.6-4.5-2.7,2.3-5.2,4-8.6,4.9-5.4,1.4-9.8-.5-14.3-3.3-.8,2.1-1.5,4.1-2.8,5.9-6.4,9.1-9.1,4.5-16.9,6.1-3.2,.7-4.1,7.9-6.1,10.6-3.8,5.1-8.3,5.5-14.1,6.4-3.5,3,1.3,9-.7,13.4-2.4,5-8.9,7.5-13.6,9.4,1.1,3.3,2.6,7.5,1.8,11-.9,4-3.7,5.8-7,7.8,2.5,2.7,5.2,5.5,5.4,9.4,.2,4-2.4,6.7-4.8,9.5,2.8,2.7,6,5.5,6.3,9.7,.2,3.8-1.9,6.4-4.1,9.1l.3,.2c2.4,1.7,5.1,3.1,6.2,5.9,1.4,3.4-.3,6.7-1.5,9.8,2.7,1.4,6,3,8,5.4,1.6,2,0,4.8-.1,7.1-.2,5.6,3.5,5.3,6.4,8.7,2.2,2.5,1.3,7.2,.9,10.2,3.3,1.4,7.1,2.5,8.8,5.9,0,2-.3,4.4,.7,6.2,.1,.2,.2,.3,.3,.5,1.8,3.2,5.9,3.4,7.9,6.2,.1,.1,.2,.3,.3,.5,1.6,2.5,.8,5.8,.5,8.6,1.2,1.8,4.3,2.3,6.2,3.2,3.7,1.9,2.8,5.1,4.7,8.1,3.4,5.5,5.6,1.3,9.3,11.7,1.5,.3,3,.7,4.5,1.2,3.1,1.1,3.9,3.1,5.2,6,1.8,.9,4.3,1.9,5.8,3.3,1.9,1.8,2.6,5.2,4.9,6.5,1.8,1,4.8,1,6.3,2.5,5.2,5.2,1.4,5.3,9.7,7.8,2.5,.7,3.5,3.4,4.7,5.5,8.2,3.3,5.6,3.7,10.8,9,2,2,4.8,2.2,7.4,2.3,.9,0,.7-.1,1.5,.3,2.3,1.3,3.1,5.7,3.8,8.1,3.4,.5,6.5,1.4,9.7,2.5,.4,1.3,.8,2.6,1.4,3.9,2,4.5,5.5,2.7,9,4.4,2.5,1.2,3.5,4.4,4.4,6.8,8.5,1.8,5.5,2.7,11,7.1,1.9,1.5,2.9,1.1,5.2,.9,3.1,1.1,4.6,3.4,7,5.5,1.9,.2,3.7,0,5.6-.2,2.3,.8,3.5,2.9,5,4.7,3,1.1,3.8-2.3,6.1-3.9,2.1-1.5,4.7-.8,7.1-2.5,5.1-3.7,14.2-13.1,19.5-14.1l.7-.1c.7-1.8,1.4-3.8,2.4-5.5,2.5-4.4,4.3-2.5,8.1-3.9,2.9-1,4-5.9,5-8.5,2.1-1.8,5-2.4,7.6-3.2l1.8-5.8c.2-.1,.3-.3,.5-.4,3.2-2.9,5.7-2.3,8.4-4.4,5.7-4.4,.4-6.2,11.1-10.1l2.5-7.1,7.7-2.5,2.4-5.8c2.4-1.6,5-3,7.6-4.4l1.5-6.3,7-2.6c.2-1.4,.4-3,1-4.3,1.3-2.9,4.8-3.8,7.5-4.8,.8-3,1.9-5.8,3.1-8.6l5.9-3.1c.2-1.8,.4-3.9,1-5.6,1.3-3.9,5.1-5.4,8.5-7.1-.6-2.1-1.4-4.3-1.4-6.5-.1-5.3,6.3-5.3,7.8-9.8,1.3-3.7-.9-7.3,2.4-10.8,.5-.1,1-.2,1.5-.4,7.2-2.1,1.7-7.8,3.8-12.5,1.2-2.7,4.6-3.5,5.7-6.1,.7-1.5,.6-2.8,0-4.3-.5-1.1-.8-2.3-1.1-3.5,.8-4.1,4.9-6.7,8-9.1-1.3-2.9-3.5-6.4-2.8-9.7,.6-3.2,3.7-4.9,6.1-6.7-2.4-2.7-4.9-5.5-5.1-9.3-.2-4.2,2.7-7,5.3-9.9-1-.9-2-1.8-2.8-2.8-7.1-8.3,0-8.2,.7-15.2-1.9-1.7-3.9-3.5-5.6-5.4-3.9-4.5-.6-6-.8-10.6-.3-5.9-8.6-4.5-12.3-8.4-4.1-4.4-3.7-10.3-3.4-15.8-7.4-.1-11.5-1-17.3-5.7-1.3-3.1-2.1-6.6-3.1-9.8-4,.9-8.5,2.3-12.6,1.4-5.5-1.2-8-6.1-10.8-10.4-3.6,3.3-8.4,4.4-13,5.7-2-.7-6.8-3.9-8.4-3.8-6.1,.1-6.6,6.8-19,3l-.3,.3c-7.4,8.4-8.6,5.5-18,6.1-2.3,1.5-2.7,3.2-3.9,5.7-4.6,3-5.9,2.8-11.2,2.7-5.6-.2-2.1,6.1-6.1,9.4-2.1,1.8-5.4,2.3-8,1.8-2.7-.4-5.6-2-7.1-4.4-1.4-2.1-1.5-4.9-.8-7.3,.8-2.9,2.9-5.6,5.6-7,2.1-1,4.2-1.1,6.4-.4,1,.3,1.8,.6,2.9,.7,2.6-2.4,2.6-6.9,4.4-9.9,.7-1.2,1.7-1.9,3-2.2,3.5-.8,8,1.6,10.8,3.4,.9-2.7,1.7-5.2,3.4-7.5,4.9-6.5,8.5-.6,14.3-1.8,2.5-.5,3.7-4,5.2-5.9,1.2-1.5,2.7-3,4.8-3.2,4.2-.3,8,2,11.2,4.5,2.2-2.6,4.5-5.3,8.1-7.2h0Z"/><path class="cls-16" d="M339.51,432.5c.6,.1,.9,.1,1.5,.3,1.5,.5,1.9,1.4,2.5,2.7-.2,2.3-1.2,3.3-2.7,4.9-1.9-.9-2.9-1.8-3.6-3.8,.4-2.1,.8-2.5,2.3-4.1h0Zm38.8-1.9c.2,0,.4,0,.7,.1,2.1,.3,2.9,.5,4.1,2.2,0,2.3-1.2,3.6-2.5,5.4-.5,0-.7,0-1.3-.2-1.4-.4-1.8-1.2-2.5-2.4-.2-2.2,.4-3.3,1.5-5.1h0Zm11-8.6c.5,.1,1.1,.3,1.6,.4,2,.6,2.7,1.3,3.6,3.1-.1,2.2-1,3.3-2.3,5-2.4-.8-3.6-1.3-4.7-3.6-.1-2.1,.6-3.2,1.8-4.9h0Zm-63.2,3.3c.8,0,1.8,.1,2.6,.3,1.6,.5,2.1,1.1,2.9,2.5,0,2.2-.7,3.2-1.9,5-.7,0-1.5,0-2.1-.2-1.6-.5-2.1-1.4-2.9-2.6-.2-2.2,.2-3.2,1.4-5h0Z"/><path class="cls-10" d="M234.71,354.7c.7,.1,1.5,.1,2.2,.2,2.1,.3,2.8,1,3.9,2.7,.3,2.1-.4,3.3-1.3,5.2l-1.2,.7c-1-.1-1.6,.1-2.3-.7-2-1.9-1.5-5.7-1.3-8.1Z"/><path class="cls-16" d="M465.21,351.3c.6,.2,1.3,.4,1.8,.8,1.4,1,1.5,2,1.8,3.6-.5,2.2-1.5,3.2-3.1,4.7-.5-.3-1-.6-1.5-1-1.8-1.3-2.3-2.3-2.7-4.3,1-2.1,1.9-2.5,3.7-3.8h0Zm-114.4,86.6c.8,.1,1.7,.3,2.4,.6,1.7,.7,2.1,1.2,2.7,2.9-.3,2.1-1.5,3.3-2.8,4.9-.8-.1-1.7-.2-2.3-.5-1.7-.8-2.1-1.8-2.7-3.4,.5-2.3,1-2.7,2.7-4.5h0Zm15.5-.8c1.2,.3,2.5,.6,3.6,1.1,1.6,.7,2,1.2,2.6,2.8-.3,2.1-1.5,3.2-2.9,4.6l-1.5,.1c-1.3-.8-2.4-1.3-2.8-3-.6-2.3,.1-3.5,1-5.6h0Zm108.9-86c-.5,0-.5,.1-1.1,0-1.6-.3-2.5-1-3.5-2.3-.4-1.4-.6-2.6,.2-3.9,1-1.7,1.9-1.9,3.7-2.5,2,.5,1.9,.6,3,2.1-.1,2.5-.1,4.4-2,6.3-.1,0-.2,.1-.3,.3h0Z"/><path class="cls-10" d="M475.21,351.1c-.3-.6-.4-.7-.6-1.4-.4-1.8,.3-3.6,1.4-5l1.6-.2c-.1,2.5-.1,4.4-2,6.3-.2,0-.3,.1-.4,.3h0Z"/><path class="cls-16" d="M225.71,344.1c.9,.2,2,.4,2.8,.9,1.6,1,2,2,2.5,3.7-.5,2.1-.8,2.4-2.4,4-1.3-.2-3.1-.3-4.2-1-1.2-.7-1.2-1.3-1.5-2.5,.4-2.1,1.4-3.4,2.8-5.1h0Z"/><path class="cls-10" d="M244.81,362.7c1,.1,2.1,.1,3,.4,1.6,.5,2.2,1.3,2.9,2.7,.1,2.3-.7,3.5-1.9,5.4-.9,0-2.1,0-2.9-.3-1.4-.5-2.6-1.9-2.9-3.3-.3-2.1,.8-3.3,1.8-4.9h0Z"/><path class="cls-16" d="M482.41,330.9c.9,.2,2.1,.4,2.9,.9,1.2,.8,2,2.2,2.1,3.6,.1,1.9-1,2.9-2.1,4.3-1.5-.1-3-.5-4.5-1-1.3-1.4-1.5-1.4-1.7-3.5,.9-1.9,1.8-2.8,3.3-4.3Zm-38.2,40.4c1.2,0,2.8,0,3.9,.4,1.5,.6,1.7,1.6,2.2,3-.2,2.3-1.3,3.8-2.6,5.7-.7-.2-1.4-.4-2.1-.7-1.8-.9-2.7-1.8-3.3-3.6,.1-2.3,.5-2.9,1.9-4.8Zm-8.9,9.1c1,.1,2.3,.5,3.1,1.1,1.3,1.1,1.8,2.5,1.7,4.1-.1,2.1-1.5,3.2-3,4.5-1.1-.5-2.5-1.1-3.5-1.9-1.3-1.1-1.5-1.9-1.8-3.5,.8-1.9,1.9-2.9,3.5-4.3h0Z"/><path class="cls-4" d="M276.81,388.3c.9,.2,1.8,.3,2.7,.6,2.1,.7,2.9,1.9,3.8,3.7-.3,2.2-.7,2.5-2.2,4.3l-3.3,.2c-1.8-.9-1.9-1-2.8-2.7,0-2.5,.7-4,1.8-6.1h0Z"/><path class="cls-16" d="M455.01,361.3c1.2,.2,2.5,.5,3.4,1.4,1.2,1.3,1.7,2.5,1.6,4.3-.1,2.1-1.5,3.4-2.9,4.7l-1.8-.9c-2-1.2-2.6-2.3-3.2-4.3,.4-2.4,1.5-3.6,2.9-5.2h0Zm-43.1,40.5c1,.2,2.2,.4,3.2,.8,1.7,.7,2,1.7,2.6,3.2-.2,2.4-1.2,3.7-2.6,5.6-1.6-.2-2.9-.7-4.1-1.8-1-1-1.6-2.1-1.5-3.5,.1-1.9,1.1-3,2.4-4.3h0Z"/><path class="cls-4" d="M264.71,380.7c1.6,0,3.6-.1,5.2,.5,1.6,.5,2,1.1,2.7,2.5-.4,2.2-1,2.7-2.4,4.4-1.1,.6-2,.8-3.2,1-1.4-.7-2.2-1.1-2.8-2.7-.7-2-.3-3.8,.5-5.7Z"/><path class="cls-16" d="M400.11,412c1.4,.2,2.4,.4,3.8,1,1,1.2,1.6,1.6,1.7,3.3,.2,2.4-1.1,4.3-2.5,6.1-1-.3-2.1-.7-3-1.2-1.2-.7-2.2-2.1-2.4-3.5-.3-2.5,1-3.9,2.4-5.7h0Z"/><path class="cls-4" d="M255.71,371.3c1,.3,2.1,.5,2.9,1,1.7,.9,2.1,1.9,2.6,3.6-.3,2.3-1.4,3.5-2.8,5.3-1.6,.2-2.2,0-3.7-.6-1-1.2-1.4-1.6-1.5-3.1-.2-2.7,1-4.2,2.5-6.2h0Z"/><path class="cls-16" d="M303.51,406.9l3.1,1.6c.6,.9,1.1,1.4,1.2,2.5,.2,2.6-2.2,4.9-3.8,6.7-1-.7-2.3-1.5-3.1-2.4-1.3-1.5-1.3-2.5-1.3-4.4,.9-2,2.1-2.8,3.9-4h0Z"/><path class="cls-4" d="M315.21,416.1c1.4,0,3,.1,4,1.2,1,.9,1.3,1.9,1.3,3.2,0,2.7-1.7,4.5-3.4,6.3-1-.3-1.9-.6-2.8-1.3-1.3-1-2.2-2.8-2.2-4.4,.1-2.5,1.4-3.4,3.1-5h0Zm106.9-24.9c1.2,0,2.5,0,3.6,.3,1.2,.4,2.3,1.3,2.8,2.5,1.2,2.5,.2,5.3-.7,7.7-1.7-.1-3.2-.4-4.8-1.2-1.3-.7-2.4-1.8-2.8-3.3-.5-2.4,.7-4.1,1.9-6h0Zm-208.4-58.8c1.8,.2,3.4,.6,5.1,1.3,2,.9,2.6,1.8,3.3,3.7-.2,2-.7,2.9-2,4.4-2,0-4,.1-5.8-.9-1.9-1.1-2.4-2.1-2.9-4,.2-2,.9-2.9,2.3-4.5Zm279.5-14.5h.4c1.8,.3,2.8,1.1,3.8,2.5,.1,.8,.3,1.8,0,2.5-1.4,3.3-3.1,4.1-6.2,5.5-1.1-.6-2.5-1.4-3.3-2.5-1-1.4-.8-2.3-.4-3.8,1.6-2.1,3.4-3,5.7-4.2h0Zm-202,79.1c1.3,.5,2.9,1,3.8,2.1,.9,1.1,1.4,2.2,1.3,3.6-.2,2.6-2.3,4.3-4,5.9h-.4c-1.5-.1-2.7-.7-3.7-1.9-.9-1.2-1.1-2.8-.9-4.3,.5-2.5,1.7-4,3.9-5.4h0Zm-86.2-79.2c2.2,0,4.3,.7,5.9,2.3,1,1.1,1.4,2.4,1.4,3.9-.1,2.3-1.4,3.6-2.9,5.1-2.1-.2-4.2-.5-5.9-1.8-1.1-.8-1.7-1.9-1.8-3.3-.2-2.7,1.6-4.4,3.3-6.2h0Zm295.1-15.9c.5,.1,.9,.3,1.3,.5,.4,.2,.8,.5,1.2,.7,.4,.3,.8,.6,1.1,.9s.7,.7,.9,1.1c.9,1.2,1.2,2.6,.8,4.1-.7,2.8-3,3.8-5.2,5.2-1.5-.6-3.3-1.4-4.3-2.6-.7-.8-1-1.8-.9-2.9,.2-3.1,3-5.2,5.1-7h0Zm-132.7-154.4c.3,0,.5,0,.8,.1,1.9,.3,3.9,1.6,4.9,3.2,.9,1.5,1.2,3.2,.8,4.9-.6,2.5-2.2,3.2-4.2,4.4-2-.3-4.7-.9-6-2.5-.7-.9-1-1.9-.9-3,.1-3.2,2.4-5,4.6-7.1h0Zm-173.7,156.7c2.5-.3,5.3-.3,7.4,1.2,1.3,.9,1.9,2.1,2.2,3.7,.3,2.1-1.5,4.1-2.7,5.7-2.7,.2-5.7-.1-7.8-2-1.3-1.2-1.9-2.5-1.9-4.2,0-2,1.5-3.2,2.8-4.4h0Zm-6.6-15.8c.4,.1,.8,.2,1.2,.2,2.3,.5,4.2,1.7,5.3,3.8,.7,1.2,.7,2.6,.3,3.9-.8,2.4-2.7,3.3-4.8,4.4-2-.4-4.7-1.5-5.9-3.1-.8-1-1-2.3-.8-3.5,.5-2.7,2.7-4.3,4.7-5.7h0Zm134.7-138.8c2.1,.9,4.6,2.4,5.6,4.5,.8,1.5,.9,3,.3,4.5-.8,1.9-3,2.9-4.8,3.8-2.2-.6-4.5-1.3-5.8-3.2-.8-1.1-1-2.5-.7-3.8,.7-3,3-4.3,5.4-5.8Zm186.1,138c.7,0,1.4,.1,2,.2,2.2,.3,3.5,1.1,4.9,2.9,.3,1.2,.6,2,.2,3.1-.8,2.7-3.1,3.9-5.4,5.1h-1.7c-2-.2-3.3-1.3-4.6-2.7-.6-1.4-.8-2.3-.4-3.9,.7-2.5,2.9-3.5,5-4.7h0Zm-328-15.2c2.2,.3,4.7,1.1,6.3,2.7,.9,1,1.4,2.1,1.2,3.5-.2,2.6-2.3,4.4-4.1,6h-1.1c-2.1-.1-4.6-.9-5.9-2.7-.9-1.2-1-2.4-.9-3.9,.4-2.7,2.5-4.1,4.5-5.6h0Zm333.9-.6c1,0,2,0,2.9,.1,1.6,.3,3.1,1.4,4,2.6,.9,1.3,1.2,2.7,.9,4.2-.4,2.6-2,3.7-4.1,5.1h-.6c-2.1-.1-4.4-1.1-5.8-2.7-1-1.2-1.3-2.7-1.2-4.2,.4-2.5,2.1-3.7,3.9-5.1Zm-210.2-130.7c.3,0,.7,0,1,.1,2,.2,4,1.3,5.2,2.9,1,1.4,1.1,2.9,.7,4.6-.6,2.6-2.8,3.6-4.9,4.8-.2,0-.4,0-.6-.1-2.1-.5-4.7-2.2-5.7-4.1-.7-1.3-.6-2.8-.2-4.2,.6-2,2.9-3.1,4.5-4h0Zm79.6-4.1c2.2,0,4.8,.6,6.4,2.3,.2,.2,.4,.5,.6,.8,.2,.3,.3,.6,.4,.9,.1,.3,.2,.6,.2,1v1c-.2,2.7-2.2,4.5-4.2,6.2-2.2,.1-4.3-.1-6.1-1.5-.3-.2-.5-.4-.7-.7-.2-.3-.4-.5-.5-.8s-.3-.6-.3-.9c-.1-.3-.1-.6-.1-1,0-3.4,2.1-5.2,4.3-7.3h0Zm137.6,117.5c.6,0,1.2,0,1.9,.2,1.6,.5,3.4,1.8,4.2,3.3,.7,1.4,.6,3,.1,4.4-.8,2.6-2.8,3.5-5.1,4.6h-.6c-2.2-.1-4.1-1.6-5.4-3.2-.5-1.3-.7-2.1-.4-3.5,.7-3,2.8-4.1,5.3-5.8h0Zm-236.4-119.4c1,.1,2.2,.2,3.2,.6,1.9,.6,3.8,2.4,4.6,4.2,.5,1.3,.4,2.8-.2,4.1-.9,1.9-2.9,2.5-4.6,3.2-.7-.1-1.4-.1-2.2-.2-2-.3-4.2-1.4-5.3-3.2-.8-1.2-.8-2.6-.4-3.9,.6-2.4,2.8-3.5,4.9-4.8h0Zm118.6-6.5c1.6,.5,3.5,1.4,4.9,2.4,1.5,1.2,1.6,2.2,2,3.9-1,3.7-3.6,5.1-6.6,6.9-.2,0-.4-.1-.6-.1-2.2-.5-4.3-1-5.5-3.1-.6-1.1-.8-2.3-.4-3.5,1-3.3,3.4-4.8,6.2-6.5Zm-232.7,127.3c2.5-.1,5,.1,7.3,1.3,1.4,.8,2.6,2,2.9,3.7,.5,2.8-1.3,5.1-2.9,7.2-2.6,.3-4.8,.2-7-1.4-1.5-1.1-2.5-2.5-2.8-4.3-.3-2.8,.8-4.5,2.5-6.5h0Zm353.1-17.5c1.3-.2,2.7-.4,4-.4,1.7,0,3.6,.5,4.8,1.8,1,1.1,1.3,2.1,1.2,3.5-.2,2.7-2,4.5-3.8,6.2-.9,.2-1.8,.4-2.8,.5-1.8,.2-3.4-.7-4.7-1.9-1.3-1.2-1.8-2.8-1.7-4.5,0-2.6,1.2-3.7,3-5.2h0Zm-103.2-116.5c.2,0,.4,.1,.5,.1,2.9,.6,6,1.6,7.7,4.3,.7,1.2,.9,2.5,.6,3.8-.7,2.7-2.9,3.9-5.1,5.2-2.7-.1-5.8-.2-7.8-2.3-.9-1-1.3-2.3-1.2-3.6,.2-3.4,2.9-5.5,5.3-7.5h0Zm-154.4,8c2.5,.5,5.1,1.4,6.5,3.7,.9,1.5,1.2,2.9,.7,4.6-1,3.2-3.3,4.4-6.1,5.8-2.7-.9-5.5-1.8-7-4.4-.7-1.2-.9-2.7-.5-4,.8-2.9,3.9-4.4,6.4-5.7Zm-96.7,106.2c.8,0,1.5,0,2.3,.1,2,.5,4.1,1.7,5.1,3.5,1.1,1.7,1,4,.3,5.9-1,3.1-3.2,4.3-5.9,5.8h-.9c-2.1-.1-4.8-1.2-6.1-2.9-1-1.3-1.3-2.9-1-4.6,.6-4.1,3-5.8,6.2-7.8h0Zm357.2-18.4h1.7c2.6,.1,5.3,1.3,7,3.3,1.2,1.4,1.8,3.1,1.6,5-.3,2.8-2.1,4.5-4.2,6.1-.8,.1-1.7,.1-2.5,.1-2.4,0-4.8-.7-6.5-2.6-1.2-1.3-1.7-2.8-1.6-4.5,.1-3.4,2.1-5.3,4.5-7.4h0Zm-361.6-.6c1.8-.1,3.8-.2,5.6,.3,2,.6,3.9,2.2,4.9,4.1,.2,.4,.4,.8,.5,1.2,.1,.4,.2,.8,.2,1.3,0,.4,0,.9-.1,1.3s-.2,.8-.3,1.2c-1.2,3.1-3.6,4.1-6.4,5.3-1.1,.1-2.3,.2-3.4,0-2-.3-4.2-1.4-5.4-3.1-1.2-1.7-1.5-4-1-6,.8-3,3-4.2,5.4-5.6h0Zm365.2-19.8c1,.3,1.9,.6,2.9,1,2.1,1,4.1,3.1,4.9,5.3,.6,1.9,.3,3.9-.7,5.7-1.7,2.9-4.4,3.3-7.3,4.1-1.5-.2-3.1-.7-4.4-1.4-1.7-.9-3.1-2.5-3.6-4.3-.6-1.9-.2-3.9,.8-5.6,1.7-2.8,4.3-3.9,7.4-4.8h0Zm-84.9-79.1c1.4,.1,2.9,.6,4.1,1.2,1.8,1,3.4,2.6,3.8,4.6,.4,1.8-.4,3.9-1.3,5.4-2,3.2-4.8,3.9-8.2,4.7-1.3-.2-2.4-.4-3.6-.9-2-.8-3.9-2.2-4.7-4.2-.6-1.6-.3-3.1,.4-4.6,1.9-3.9,5.6-5,9.5-6.2Zm-204.2,10.5c1.2,0,2.4,0,3.6,.2,3.1,.5,6.5,2.4,8.3,5.1,.9,1.4,1.4,3.1,.9,4.7-.8,2.6-3.2,4-5.4,5.2-1.4,.2-2.9,.3-4.4,.2-2.7-.2-5.7-1.6-7.4-3.7-1.1-1.4-1.6-3.1-1.3-4.8,.4-3.4,3.2-5.2,5.7-6.9Zm-74.9,66.7c1.8-.1,3.6-.3,5.3,.2,.6,.2,1.2,.4,1.8,.7,.6,.3,1.1,.6,1.6,1s.9,.8,1.3,1.3,.8,1,1.1,1.6c1,1.9,1.2,4,.5,6-1.1,3.2-3.2,4.5-6,5.9-1.7,.3-3.3,.3-5,0-2.2-.4-4.1-1.5-5.3-3.4-1.2-1.9-1.5-4.2-.9-6.4,.8-3.4,2.8-5.2,5.6-6.9h0Zm356.1-18.5c1.7-.1,3.5-.2,5.2,.2,2.9,.6,5.6,2.4,7.1,4.9,.9,1.5,1.3,3.3,.9,5-.8,3.3-3.3,4.8-6,6.4-1.3,.2-2.7,.5-4,.3-2.7-.3-5.4-1.9-6.9-4.2-1.3-2-1.8-4.3-1.1-6.6,.8-2.8,2.4-4.5,4.8-6Zm-304.9-42.7c1.6-.1,3.5-.1,5.1,.2,2.6,.5,5.1,1.8,6.5,4.1,1.2,1.8,1.4,4,.8,6.1-1.2,4-4.5,6.2-8,7.9-2.5,.1-4.8,.3-7.1-.9-2.6-1.3-4.8-3.8-5.6-6.6-.2-.5-.2-1.1-.3-1.6,0-.6,0-1.1,.1-1.6s.2-1.1,.4-1.6,.4-1,.7-1.5c1.8-3,4.2-3.8,7.4-4.5h0Zm253.2-13.1c1.7,.1,3.4,.5,5,1.2,2.2,1,4.1,2.7,4.8,5,.7,2.4,0,5.1-1.3,7.3-2.1,3.5-5.1,4.4-8.8,5.4-2.1-.4-4.1-.9-6-2-2.4-1.5-4.7-4.1-5.2-7-.1-.5-.1-1.1-.1-1.6s.1-1.1,.2-1.6c.1-.5,.3-1,.6-1.5,.2-.5,.5-.9,.9-1.3,2.5-3.4,6.1-3.6,9.9-3.9h0Zm-277.8,25.4c2.3-.1,4.8-.4,7.1,.3,2.9,.8,5.4,2.9,6.9,5.5,.2,.3,.3,.6,.5,1,.1,.3,.3,.7,.4,1,.1,.3,.2,.7,.3,1.1s.1,.7,.1,1.1v1.1c0,.4,0,.7-.1,1.1,0,.4-.1,.7-.2,1.1-.1,.4-.2,.7-.3,1-1.3,3.7-3.8,5.7-7.2,7.4-2.3,.2-5.1,.5-7.4,0-2.7-.5-5.4-2.5-6.8-4.8-.3-.5-.6-1.1-.9-1.7-.2-.6-.4-1.2-.5-1.8-.1-.6-.2-1.3-.1-1.9,0-.6,.1-1.3,.2-1.9,.9-4.7,4.1-7.3,8-9.6h0Zm298.3-15.8c2.5-.1,5-.1,7.3,.9,3.2,1.4,5.8,4.3,7,7.6,1,2.8,1,5.7-.4,8.4-1.7,3.4-4.2,4.2-7.6,5.3-1.6,.1-3.3,.1-4.8-.1-3.3-.4-6.7-2.2-8.5-5-1.7-2.5-2-5.3-1.3-8.2,1.1-4.8,4.4-6.6,8.3-8.9h0Zm-317.4,38.3c2.9-.3,5.7-.5,8.6,.5,3.2,1.1,6.1,3.5,7.5,6.7,1.2,2.7,1.1,5.6-.1,8.3-1.7,3.8-5,5.2-8.6,6.7-2,.2-4.1,.3-6.1,0-3.4-.5-6.9-2.4-8.8-5.2-1.4-2.1-1.8-4.6-1.3-7,1-5.1,4.7-7.5,8.8-10h0Zm339.6-17.8c2.1-.1,4.3,0,6.3,.7,3.4,1.2,6.4,3.5,7.9,6.9,1.1,2.6,1.1,5.4,.1,8-1.8,4.3-5.6,5.6-9.6,7.2-2.9,.4-5.6,.4-8.4-.8-4.4-1.9-6.2-5.7-7.9-9.9,.6-1.7,1.2-3.4,2-5,2.2-4.2,5.4-5.8,9.6-7.1h0Z"/><path d="M420.41,148.6c2.9-.2,5.8,0,8.7,0,.2,.1,.3,.2,.5,.2,7.4,4.1,9.5,9.1,11.7,17,3.5-4,6.8-7.8,11.7-10.3,4.4-2.2,9.8-2.9,14.5-1.1,2.9,1.1,5.1,3.3,6.3,6.2,2.9,6.8,.4,13.6-2.2,20,5.3-2.7,10.4-4.9,16.4-5,4.7-.1,9.7,1.3,13,4.7,4.7,4.9,4.6,10.7,4.4,17-3.1,5.5-7.6,9.1-12.3,13.2,2.1,.6,4.3,1.3,6.3,2.2,4.7,2.1,9.2,6,10.9,10.9,1.3,3.7,.9,7.8-1,11.3-4,7.5-12,9.6-19.5,11.7,2.1,1.4,4.3,2.8,6.2,4.5,4.4,3.9,8.4,9.5,8.7,15.5v1.4c0,.5-.1,1-.2,1.4-.1,.5-.2,.9-.3,1.4s-.3,.9-.5,1.4c-.2,.4-.4,.9-.6,1.3-.2,.4-.5,.8-.7,1.2-.3,.4-.6,.8-.9,1.2-.3,.4-.6,.7-1,1.1-5.5,5.4-13,5-20.2,4.9,3.2,5.1,6.3,10.2,5.7,16.5-.3,3.7-1.8,6.8-4.6,9.2-5.5,4.5-12.6,3.7-19.1,3,2.7,4.9,5.2,9.7,4.9,15.5-.2,3.9-2,7.5-5.1,10-5.6,4.4-12.8,3.8-19.4,2.9,.8,2.7,1.6,5.4,2,8.2,.6,4,.2,9.5-2.5,12.6-3.9,4.7-11.6,3.9-17,4.7-5,.7,.6,13-3.8,18.7-8.5,11.1-16.9,.9-23.4,1.5-1.4,3,0,7.6-.4,11-.3,2.7-1.4,5.3-3.6,6.9-5.6,4.2-13.3,3.1-19.6,2.1-.1,4.7,0,8.2-2.6,12.2-2.2,3.5-5.5,5.9-9.5,6.7-.5,.1-1.1,.2-1.6,.2-.5,.1-1.1,.1-1.6,.1s-1.1,0-1.6-.1-1.1-.1-1.6-.3c-.5-.1-1.1-.3-1.6-.4-.5-.2-1-.4-1.5-.6-.5-.2-1-.5-1.5-.7-.5-.3-.9-.6-1.4-.9-5.3-3.9-6.2-8.8-7.3-14.9-3.1,1-6.2,1.9-9.4,2-4,.1-8.1-.9-11-3.8-4.4-4.4-4.3-10-4.2-15.8-5.3,2.8-11.5,5.2-17.6,4-3-.6-5.8-2.3-7.5-5-3.5-5.5-2.2-11.5-.8-17.4-3.6,1-6.7,2-10.5,2.1-1.3-.3-2.5-.7-3.8-1-3.9-1.2-8.1-3.7-9.9-7.6-2.6-5.4-.3-11.5,1.6-16.7-5.7,2.4-11.9,3.7-17.9,1.5-3.7-1.4-6.6-4.1-8-7.8-2.5-6.4,0-12.6,2.6-18.5-5.7,1.2-11.5,2.4-17,0-3.6-1.6-6.2-4.2-7.5-7.9-2.4-6.7,.4-12.8,3.1-18.9-2.2,.3-4.4,.7-6.6,.8-5.2,.1-11.2-1.1-14.9-4.9-2.8-2.8-4-6.7-3.9-10.7,.3-8.4,6.1-14.2,11.9-19.5-4.9-.5-9.9-1.5-14.2-4.1-5.2-3.2-7-7.8-8.4-13.5,.5-2.4,1.1-4.9,2.1-7.2,2.8-6.4,8.6-8.6,14.7-10.9-5.5-3.2-10.6-5.6-13.5-11.7-.2-.5-.5-1-.6-1.5-.2-.5-.4-1-.5-1.5s-.2-1.1-.3-1.6c-.1-.5-.1-1.1-.2-1.6v-1.6c0-.5,.1-1.1,.2-1.6s.2-1.1,.3-1.6c.1-.5,.3-1,.5-1.5,1.6-4.3,5.1-7.6,9.2-9.4,7.7-3.4,14.5-1.1,21.8,1.8-1.9-4.3-3.8-8.7-4-13.5-.2-4.1,.9-8.3,3.8-11.3,2.7-2.7,6.4-3.7,10.1-3.6,8.4,.3,14.1,5.5,19.4,11.4,.3-5.5,1-9.9,4.5-14.4,.3-.4,.7-.8,1-1.2,.4-.4,.8-.8,1.2-1.1,.4-.4,.8-.7,1.3-1,.4-.3,.9-.6,1.4-.9s1-.5,1.5-.7,1-.4,1.5-.6,1-.3,1.6-.4c.5-.1,1.1-.2,1.6-.2,.6-.1,1.2-.1,1.8-.1s1.2,0,1.8,.1,1.2,.2,1.8,.3c.6,.1,1.2,.3,1.8,.4,.6,.2,1.2,.4,1.7,.6,.6,.2,1.1,.5,1.7,.8,.5,.3,1.1,.6,1.6,.9s1,.7,1.5,1.1c6.2,5.1,7.2,11.7,7.9,19.2,1.8-2.5,3.8-5.1,6.2-7.1,3.8-3.1,8.5-4.9,13.5-4.4,6,.6,11.9,4.1,15.6,8.8,4.9,6.2,4.5,12.2,3.7,19.5,9.1-.7,13.4,.8,20.6,6.5,1-1.1,2.1-2.1,3.2-3.1,5.1-4.6,10.1-5,16.7-4.7-.9-3.2-2-6.3-1.9-9.7,.2-5.9,2.3-11.5,6.8-15.5,.5-.5,1.1-.9,1.6-1.4,.6-.4,1.2-.8,1.8-1.2,.6-.4,1.2-.7,1.9-1,.6-.3,1.3-.6,2-.8,.7-.2,1.3-.5,2-.6,.7-.2,1.4-.3,2.1-.4,.7-.1,1.4-.2,2.1-.2h2.1c7.3,.4,11.7,4.7,16.3,9.8-.4-5.6-.5-10.9,2.3-16,2.5-5.1,7.4-7.5,12.9-9.1h0Z"/><path class="cls-19" d="M378.51,401.1c-1.7-.5-2.9-1-4.3-2.1l-.1-1.1c2.1-.8,3.3-.4,5.4-.1-.3,1.1-.6,2.3-1,3.3h0Z"/><path class="cls-13" d="M208.91,290.6c.9-1.3,1.9-1.8,3.2-2.6,2.1,1,4.4,1.8,5.9,3.7-1.1,.9-2.4,.6-3.8,.4-1.7-.2-3.6-.9-5.3-1.5h0Zm67-128.7c3,1.9,5.5,3.7,6.9,7l-.7,.6c-2.8-.6-4.4-2.5-6.7-4l.5-3.6h0Zm-14.6,.4c.3,1.3,.6,2.6,1.1,3.8-1.1,2.5-5.4,5.6-7.4,7.6,1.5-4.7,2.9-7.9,6.3-11.4h0Z"/><path class="cls-19" d="M193.41,244.7c.8,.9,1.5,1.7,2,2.7l1.2-2c1.3,4.1,4.1,7.5,6.5,11-1.4-.8-2.7-1.6-4.1-2.5-3.6-2.4-4.7-5-5.6-9.2h0Z"/><path class="cls-13" d="M326.11,386.7c.2,.1,.4,.2,.6,.4,3,1.9,8.4,5.5,9.2,9-3.1-.5-6-1.5-8.1-3.9-1.6-1.9-1.8-3.3-1.7-5.5ZM193.41,244.7c-.6-2.7-.2-6.1,1.4-8.4,.6-.9,1.4-1.8,2.2-2.6h.8c.3,3.9-1.4,7.6-1.1,11.6l-1.3,2c-.5-.9-1.2-1.7-2-2.6h0Zm134.1,158.6c-.2-.2-.4-.3-.6-.5-1.8-1.4-3.3-2.5-4.3-4.6-.7-1.6-1.7-4.1-1-5.8,2.9,1.1,5.5,5,8.2,6.9l.8,.5-3.1,3.5h0Zm3.1-3.4l.8,.1c3.6,.3,8-1.1,11.3,.2l.3,.6c-3.7,2.8-9.9,3.4-14.3,2.8-.4-.1-.8-.1-1.2-.2l3.1-3.5h0Z"/><path class="cls-19" d="M224.11,305.8c3.4,1.8,3.6,7.3,6.9,9.6,3.1,2.2,7.1,1,9.8,3.3-1.3,.4-2.7,.6-4.1,.7-3.3,.2-6.6-.6-9-3-3-2.9-3.5-6.6-3.6-10.6h0Z"/><path class="cls-13" d="M261.31,162.3c5.5-2.4,9.1-2,14.6-.4l-.5,3.6c-4.6-1.3-8.5-.9-13,.6-.6-1.2-.8-2.5-1.1-3.8h0Zm-52.4,128.3c-.5-.2-.9-.5-1.3-.8-2.3-1.6-3.6-4.1-4.1-6.9-.4-2.6-.6-6.6,1-8.8,2.2,.4,2.1,6.6,3.1,8.4,1,1.9,3,3.8,4.5,5.4-1.3,.8-2.3,1.3-3.2,2.7h0Zm170.6,107.2c4-.4,7.2-.8,9.9-4.1,1.9-2.2,3.3-4.7,5.4-6.8-.8,4.5-1.3,10.1-5.3,13-2.8,2-7,2.1-10.2,1.4-.3-.1-.5-.1-.8-.2,.4-1,.7-2.2,1-3.3Zm116.5-140.1c.5,.2,.5,.1,1,.5,1.4,1.1,2.9,3.8,3.2,5.5,.6,3-.4,5.6-2,8.1-2.7,4.1-5.5,5.1-10,6.1l-1.7-.1-.5-.9c2.6-1.5,5.2-2.9,7.1-5.3,3.6-4.4,3.6-8.4,2.9-13.9h0Zm-78.7,109.5c.5,.3,1,.6,1.3,1.1,1.1,1.5,1.8,4.7,1.5,6.5-.4,2.7-2.1,4.8-4.3,6.4-3.7,2.9-6.6,2.4-10.9,1.8l-1.4-1c.8-1.5,6.3-2.8,8.3-4.2,4.2-3.1,4.8-5.8,5.5-10.6h0Zm-122.6,7.2c2.3,1.1,3.2,4.6,4.4,6.7,1.8,3,8.3,3.8,11.5,4.7l.5,.9-.8,1c-2.3,.7-5,1.7-7.4,1.4-2.6-.3-5.6-1.7-7.1-4-2.1-3.2-2-7.1-1.1-10.7Zm88.8-205.7c3.8-1.2,6.8-1.4,10.5,.6,.8,.4,1.5,1,2.2,1.5l-.2,.7c-3,.3-5.9-.5-8.8-.2-2.1,.7-4.3,1.4-6.4,2.2-5.9,3.6-8.6,8.2-12,14.2,.2-1.1,.4-2.2,.6-3.2,1.5-6.7,3.9-10,9.8-13.7l4.3-2.1h0Zm-81.5,3.5c3-.1,6-.1,8.9,.8,5,1.4,9.2,4.4,11.7,9,1,1.9,1.8,4,1.1,6.2l-.9-.2-1.5-3.7c-2.2-2.8-4.8-5.3-8.1-6.9-7.1-3.6-14.1-1-21.1,1.3,3.3-2.3,6.6-4.4,9.9-6.5Zm121.2-19.6c1.8,0,3.7,.1,5.3,.7,5.1,1.9,7,7.5,9.1,12.1-5.6-4-7.2-8.1-14.8-8.8-6.7,.8-10.1,4.5-14.9,8.8,1.7-4.3,3.6-7.6,6.7-11,3-.7,5.8-1.2,8.6-1.8h0Z"/><path class="cls-24" d="M301.91,366.3c.9,.3,1.9,.8,2.7,1.3,3.6,2.2,11.1,7.4,12.2,11.7l-1.3,1.7c-3.2,.6-6.5,1-9.7-.2-2-.8-3.7-2.2-4.6-4.2-1.6-3.6-.6-6.8,.7-10.3h0Zm59.4-167.6c2.4-.1,4.2-.3,6.3,.9l.1,1.4c-2.3,4-7.7,7.6-11.2,10.7l-5.7,4.8c-.1-3.7-.7-8.5,.9-11.8,1.8-3.7,6-4.8,9.6-6h0Zm48.3,162c.4,.2,.6,.2,1,.5,1.3,1.2,2.9,4.2,2.9,6,0,2.5-1.2,4.6-2.9,6.3-3.1,3.2-5.8,3.3-9.9,3.3-1.3-.3-2.2-.6-3.3-1.3l-.1-1.5c2.2-5.2,8.2-9.5,12.3-13.3h0Zm-80.6-160.4c2.3-.3,4.5-.6,6.8-.3,4.8,.5,7.4,3.4,10.3,6.8,.1,2,.4,4.1,.2,6-.1,1.8-.3,2.1-1.6,3.3-5-4.1-11.6-7.7-16-12.3-1-1.1-1.2-1.1-1.2-2.6l1.5-.9h0Zm129.4-43.2c1.5-.1,3.4-.2,4.9,0,2.3,.4,4.7,1.8,6,3.9,1.7,2.7,2.4,7.9,1.5,11-.3,1.1-.3,.9-1.2,1.4l-1.6-.8c-1.1-2.3-2.2-4.1-3.8-6-.1-.2-.3-.3-.4-.5-1.1-.8-2.3-1.5-3.6-1.9-4.2-1.4-7.8-.4-11.5,1.6-1,.5-1.1,.3-2.1,.2l.2-1.1c2.9-3.5,7.5-6.1,11.6-7.8h0Zm-230.5,11.9c1.9-.1,4-.3,5.9,0,2.2,.4,11,4.3,12.2,6.1-3.9,1.8-9.1-.3-13.5,.8l-.8,.2c-3.5,2.5-6.8,9-8.2,9.8l-1.1-1.2c-.7-2.3-1.2-5-.8-7.4,.7-3.9,3.3-6.2,6.3-8.3h0Zm254.4,10.6c.5-.1,1.1-.1,1.6-.2,5-.4,9.4-.1,13.4,3.5,.3,.3,.6,.6,.9,.9,.3,.3,.5,.6,.8,1,.2,.3,.5,.7,.7,1.1s.4,.7,.6,1.1c.2,.4,.3,.8,.4,1.2,.1,.4,.2,.8,.3,1.2,.1,.4,.1,.8,.2,1.2,0,.4,.1,.8,0,1.3-.1,5.6-3,8.7-6.6,12.5-.4-.1-.6-.5-.9-.8,.3-2,.7-4,.9-6,.3-3.9-.3-8.1-3-11.2-3.7-4.1-8.4-3.5-13.5-3.9l-.4-.7c1.1-1.4,2.9-1.7,4.6-2.2h0Zm-274.5,14c3.4-.1,5.8-.2,8.6,2.1l-.1,.8c-1.6,.6-3.1,.4-4.8,.4-1.2,.3-2.4,.6-3.5,1.2-3.1,1.4-5.7,3.8-6.8,7.1-1.8,5.8,.8,11.2,3.5,16.2-4.9-3-9.1-6.3-10.5-12.3-.7-3.3-.2-6.7,1.7-9.4,3.1-4.2,7.3-5.4,11.9-6.1h0Zm223.6,142.5c.6,.1,1.3,.5,1.8,.7,1.5,2.4,2.8,4.6,2.9,7.6,.1,2.9-1.1,5.8-3.2,7.9-3.1,3-6.9,2.8-11,2.9-.5,0-.6,0-1.1-.2-1.6-.4-2.1-.4-2.9-1.8,.7-5.3,9.9-13.1,13.5-17.1h0Zm-153.9,7.2c.2,.1,.5,.2,.7,.3,4.4,2.1,13.9,10.7,15.4,15.3-.6,1.7-1.2,1.8-2.8,2.7-3,.9-7,.6-9.9-.4-2.5-.9-4.3-2.8-5.3-5.2-1.7-4.4,0-8.7,1.9-12.7h0Zm-42.6-49.9c5.3,4.7,10.7,13.1,14.4,19.1-1.5,1.3-4,1.2-6,1.5-3.7,.4-7.5,0-10.5-2.5-2.2-1.9-3.3-4.5-3.3-7.4-.1-4.8,2.3-7.5,5.4-10.7h0Zm234.6-12.1q.7,.1,1.4,.5c2.1,1.2,4.6,4.4,5.2,6.7,.9,3-.1,6.2-1.7,8.9-2.1,3.5-5.3,4.6-9,5.6-2.2,0-5.7,.3-7.6-1.1,.8-6.1,8.3-15.3,11.7-20.6Zm-100,121c1.4,1.7,1.5,5.1,1.3,7.2-.2,3-2.2,5.7-4.5,7.5-.7,.5-1.4,1-2.2,1.4s-1.6,.7-2.4,.9c-.8,.2-1.7,.4-2.5,.5-.9,.1-1.7,.1-2.6,0-4.4-.5-6.5-2.9-8.9-6.2-.9-3-2.5-6.3-1-9.2,4-.2,8.7,4.7,11.7,7.2,4-2.8,7.5-6.2,11.1-9.3h0Z"/><path class="cls-24" d="M235.31,178.8c.9,0,1.8-.1,2.7,0,6,.6,10.1,3.9,13.8,8.4-4.6,1.6-8.8,3.3-12.9,5.9-2.6,1.7-5,3.6-7.5,5.4-2.1-3.8-4.3-7.8-3.1-12.3,1-3.4,4-5.6,7-7.4h0Zm218-11.1c1.2-.2,2.5-.4,3.7-.2,2.7,.4,5.2,2.5,6.6,4.8,1.7,2.7,2.7,6.5,1.7,9.7-.5,1.7-1.3,2.6-2.9,3.5-2.2-.1-3.4-1.1-5.3-2.2-5.1-2.8-10.6-4.5-16-6.3,3.7-4.5,7.4-6.7,12.2-9.3h0Zm-198.8,152c4.1,1.4,14.3,13.9,17.4,17.8-1.1,1.6-4,2.2-5.8,2.9-.7,.2-1.4,.5-2.1,.6-3.2,.6-6.8-.5-9.3-2.4s-3.8-4.9-4.1-8c-.5-4.4,1.2-7.7,3.9-10.9h0Zm197.4-10.5l1.8,.6c2.4,2.8,3.9,5.7,4,9.5v1.3c0,.4-.1,.8-.1,1.3-.1,.4-.2,.8-.3,1.2-.1,.4-.2,.8-.4,1.2-.2,.4-.3,.8-.5,1.2-.2,.4-.4,.7-.6,1.1-.2,.4-.5,.7-.7,1-.3,.3-.5,.7-.8,1-2.7,2.8-6.5,2.8-10.2,2.9-2.2-.9-4.5-1.8-6.7-2.7,3.9-6.8,9.6-13.3,14.5-19.6h0Zm-150.9-129c4.6-.3,8.7-.2,12.7,2.4,3.5,2.3,6.4,6,7.1,10.1,.4,2,.2,3.7-1,5.3-2.1,.3-2.8-.3-4.7-1.2-7.8-4.3-15.9-7.5-24.2-10.8,3.3-2.2,6.5-4.1,10.1-5.8h0Zm85.6-4.6c6.8-.4,10.5,1.6,16.1,5.1-5.8,3.1-11.8,5.8-17.5,9.2-2.4,1.6-6,4.7-9.1,4.5-1.6-.1-1.7-.5-2.8-1.6-.3-2,0-3.7,.8-5.5,2.6-6.2,6.5-9.2,12.5-11.7h0Zm94.7,72.7c4,1.7,7.1,4.3,10.1,7.4,.8,3.2,1.7,6.6,.7,9.8-1.2,4.3-4.5,6.2-8.2,8.1-3.1,1.2-7.1,2.7-10.3,1.4-.2-.4-.5-.7-.5-1.1-.1-.2,7.2-22.1,8.2-25.6h0Zm-213.5-80.1c2.5,.1,5.2,.9,7.3,2.1,3.2,1.8,7.9,6,8.5,9.7,.3,1.9-.3,2.7-1.3,4.2-2.3,1.1-4.2,.7-6.7,.5-4.9-.1-12.7,1.7-17-.3-.9-1.2-1.3-1.7-1-3.3,1-5.3,5.8-10.2,10.2-12.9h0Zm152.3-7.1c2.9-.1,5.5,.1,8,1.9,2.6,1.9,7,6,7.3,9.3,.2,1.6-.5,2.4-1.4,3.6-3,1.1-6.9,1-10.1,1.2-3.7,.5-8.7,1.7-12.4,1.4-1.6-.1-2-1-2.8-2.2-.1-1.1,0-1.8,.4-2.8,1.9-5.8,5.7-10,11-12.4h0Zm-201.7,101.4l1.3,.3c3.4,3.9,9.4,19.1,11,24.4l-.4,.7c-2.2,.8-4.7,.4-7,.3-4-.7-8.2-2.3-11-5.5-2-2.3-2.9-5.3-2.5-8.3,.8-5.5,4.5-8.7,8.6-11.9h0Zm-1.4-63.1c3-.3,7.3,2.7,9.9,4.1-2.9,5.7-5.3,15.2-8.6,19.9l-1.6-.1c-1.4-.7-2.8-1.5-4.1-2.3-3.6-2.3-7-6.1-7.7-10.4-.4-2.3,0-4.4,1.4-6.3,2.5-3.3,6.7-4.2,10.7-4.9Zm-2.9,31c1.4,0,1.7,0,2.8,.7,2,4.9,1,18.3,1.5,24.4-3.7-.3-7.1-.8-10.7-1.9-3.2-2.5-6-5.1-7-9.2-.6-2.5-.4-5,1-7.2,2.7-4.6,7.5-5.7,12.4-6.8h0Zm266.9-44h.4c2.5,.1,7.2,1.5,8.7,3.5,1.1,1.4,1.4,3.2,1.2,5-.8,7.6-6.5,12.2-12.1,16.5-3.4-7.6-7-14.4-11.8-21.1,4.6-2,8.4-3.6,13.6-3.9h0Zm-.6,30c5.5-.1,11.4,.6,15.6,4.6,1.8,1.7,3.1,4,3.1,6.5,0,4.5-2.6,7.5-5.6,10.4-3.7,2.2-7.6,3.5-11.6,4.9-.3-8.9-1.1-17.6-1.5-26.4h0Z"/><path class="cls-9" d="M427.21,180.4c1.5-.1,3-.2,4.5-.2,11.7,.1,23.7,4.3,32.1,12.8,11.5,11.8,13.9,26.8,13.8,42.7-.5,58.4-78.9,131.8-118.9,171.3-7.9-6.6-16.4-12.8-24.4-19.4-13.8-11.6-27.3-23.4-40.7-35.5-25.1-23-56.7-54.1-67.8-87.1-5.3-15.8-6.3-37.8,1.3-52.9,5.1-10.2,14-17.3,24.9-20.7,23.4-7.4,54.7,1.6,74.3,15.4,7.5,5.3,14.6,12.9,22.8,17l.6,.3c22.6-22.6,43.9-40.9,77.5-43.7h0Z"/><path d="M410.81,200.2c10.7-1.3,22.6-.2,31.9,5.6,8.5,5.4,14.1,14.8,16.2,24.5,5.5,25.2-4.8,49.1-18.2,69.9-7,10.9-15.2,21.4-23.6,31.1-6.5,7.5-52.2,54-59.2,55.5-10.3-2.9-49.6-35.6-59.4-44.1-.6-.5-1.2-1-1.7-1.5-26.3-24-55.4-54-56.8-91.7-.4-11.2,2.6-22.2,10.4-30.5,8.1-8.6,18.8-12.1,30.5-12.3,29.8-.6,49.3,16.6,69.6,35.9,16.5-19.9,33-38.2,60.3-42.4h0Z"/><path class="cls-11" d="M277.51,211.2c5.8,0,11.5,0,17.3,.4l-.6,3c-5.7-1.1-10.8-1.3-16.6-.5l-.1-2.9h0Z"/><path class="cls-8" d="M294.71,211.6c7.5,1.3,18.4,4.1,23.9,9.8,5.1,2.9,9.8,6.8,14.3,10.6l-2.4,1.9c-4.5-4-9.7-7-14.6-10.5-7.2-3.5-13.9-7.1-21.7-8.8l.5-3h0Z"/><path class="cls-8" d="M391.11,210.6c11.8-6.5,26.6-8.8,39.7-5.3,8.7,2.4,15.6,7.4,20.1,15.4,7.4,12.9,6.4,31.7,2.3,45.7-9.9,34.2-49.1,74.8-75.1,98.3-6.9,6.2-13.7,12.7-21.3,17.9-38.2-27.3-103-73-111.2-122.1-1.9-11.4-2.2-25.5,4.8-35.4,5.5-7.7,13.7-11.9,22.9-13.3,1.4-.2,2.8-.4,4.3-.4l.1,2.9c-8.6,2.3-17.3,5.3-23.2,12.4s-7,16.8-6.1,25.7c4.8,46.8,74.4,97.8,108.3,125.8,7.4-5.9,13.8-13.2,20.5-19.9,20.2-20.3,40-40.4,55.2-64.8,10.4-16.8,23.9-41,18.9-61.6-3-12.5-11.2-17.3-21.6-23.5-13.7-2.6-23-1-35.9,4.6-.7-1.2-1.7-1.7-2.7-2.4h0Z"/><path class="cls-11" d="M391.11,210.6c11.8-6.5,26.6-8.8,39.7-5.3-.3,.1-.6,.1-.9,.2-4.2,.8-9.5-.8-13.9-.8-4.7,0-9.6,1.7-14.1,2.8,6.6-.5,21.5-5.1,27.1,0,.2,.2,.4,.4,.6,.6-13.7-2.6-23-1-35.9,4.6-.6-.9-1.6-1.4-2.6-2.1h0Z"/><path d="M393.71,212.8c12.9-5.6,22.2-7.2,35.9-4.6,10.3,6.2,18.5,11,21.6,23.5,5,20.5-8.4,44.8-18.9,61.6-15.2,24.4-35,44.5-55.2,64.8-6.6,6.7-13.1,14.1-20.5,19.9-33.9-27.9-103.6-79-108.3-125.8-.9-8.9,.2-18.6,6.1-25.7,5.9-7.1,14.6-10.1,23.2-12.4,5.8-.8,10.8-.6,16.6,.5,7.9,1.6,14.6,5.3,21.7,8.8,4.9,3.5,10.1,6.5,14.6,10.5l2.4-1.9c1.7,1.5,3.6,3,5.2,4.7l2.9,2.6c3.3,3.1,6.8,6.1,9.8,9.5,1.2-1.6,2.4-3.5,3.8-4.9,4.7-6.3,9.3-12.3,15.2-17.6,1.7-2.1,3.8-3.6,5.9-5.3,2.1-2.8,6.9-5.3,9.8-7.2,1.4-1.3,3.9-2.2,5.6-3.2,1,.7,2,1.2,2.6,2.2h0Z"/><path class="cls-8" d="M385.51,213.8c1.4-1.3,3.9-2.2,5.6-3.2,.9,.6,2,1.2,2.6,2.2-2.2,1.2-4.4,2.5-6.5,3.7-3.2,2.1-6.4,4.4-9.5,6.7-.4-1.2-1-1.5-2-2.2,2.1-2.8,6.9-5.2,9.8-7.2h0Z"/><path class="cls-8" d="M375.71,221.1c1,.7,1.6,1,2,2.2l-5.8,5.2c-5.1,5.3-10.3,10.6-14.5,16.7-2,3.1-4.5,5.8-6.8,8.6l-13.1-13.3-5.2-5.1-1.8-1.3,2.4-1.9c1.7,1.5,3.6,3,5.2,4.7l2.9,2.6c3.3,3.1,6.8,6.1,9.8,9.5,1.2-1.6,2.4-3.5,3.8-4.9,4.7-6.3,9.3-12.3,15.2-17.6,1.7-2.2,3.8-3.8,5.9-5.4h0Z"/><path class="cls-1" d="M411.01,211.3c3.3-.1,6.6-.3,9.8,0,7.9,.8,15.1,4.3,20.1,10.5,5.8,7.1,7.2,14.9,6.3,23.9-3.8,38.7-39,75.6-65,102.1-8.3,8.5-16.6,17.4-25.7,25-20.4-15.3-41.1-32.4-59.2-50.4-3.6-3.6-7.2-7.2-10.7-10.9-14.4-15.3-35.4-43.1-34.5-65.4,.3-7.7,4.1-15.2,9.8-20.4,6.5-5.9,15.4-8.5,24.1-8,27.5,1.6,47.8,23.5,64.9,42.6,5.1-5.8,9.3-12.5,14.1-18.5,11.6-14.5,27.6-27,46-30.5h0Z"/><path d="M390.11,253.5c2.7-.2,5.6-.3,8.3,0,5,.5,10,2.1,13.2,6.2,3.9,5,3.9,13.3,3.1,19.2-.4,2.7-1.1,5.3-2,7.9s-2.1,5-3.6,7.3c-7.4,11.7-44.2,49.1-55.7,57.7-15-9.3-29.1-19.1-42.8-30.2-7.2-6.5-17.4-13.4-23.3-20.8-4.9-6.2-7.2-15-6.3-22.8,.8-6.5,3.8-12.1,9-16.1,5.9-4.6,14.1-6.9,21.5-5.8,14.9,2.1,30.8,15.2,39.5,26.7,11.1-13.7,21.1-25.1,39.1-29.3h0Z"/><path class="cls-20" d="M387.21,307.3c6-5.9,12.2-12.6,19.3-17.1-4.2,7.2-10.2,15.2-16.7,20.5,.4-1.8,1.4-3.3,2.3-5-1.5,.9-2.7,1.3-4.5,1.5-.1,.1-.3,.1-.4,.1h0Zm-60.9-35.3c1.6-1.4,2.2-2.2,4.3-2.7l1,.8c-.1,2.2-.9,3.1-2.5,4.6-.3,.2-.5,.5-.8,.7-1.9,2.3-4.7,6.4-7.3,7.8l-.3-1.3c.6-.8,.9-1.5,1.3-2.4-2.3,1.7-4.4,3.2-7,4.3l-.7,.3c3.5-4.2,8.1-8.2,12-12.1h0Zm-26,1.9c3.9-4.3,8.8-10.9,14.5-12.7l1,.5c-.7,4.4-8.6,11.6-12.1,14.3-.8-1.7-1.7-1.6-3.4-2.1h0Z"/><path class="cls-25" d="M300.31,273.9c1.7,.5,2.6,.4,3.4,2-4.9,5.3-9.7,11-15.9,14.8l-.6-.4c2.2-6.1,8.7-11.7,13.1-16.4Zm14.1,10.3l.7-.3c2.6-1.2,4.7-2.6,7-4.3-.4,.9-.7,1.6-1.3,2.4l.3,1.3c-4.2,5.5-14.4,16.4-19.9,20-1.5,1-2.7,1.6-4.4,1.2,0-.2-.1-.4,0-.5,.2-4.5,13.9-16.4,17.6-19.8Zm-12.4-24.7c1.9-.1,3.5-.6,5,.5-1.4,4.9-15.5,18.1-19.6,22.6-.7,.9-1.1,1.2-2.2,1.5-.1-.2-.2-.3-.3-.5-1.1-2.6,.3-7.9,1.4-10.5,2.9-6.7,9.1-10.9,15.7-13.6h0Zm18.8,4.2c.5,0,.6,0,1.1,.1,1.6,.4,2.1,.6,2.9,2-1.1,5.5-26.1,28.7-31.1,33.3l-.9,.3c-1.5-.7-1.8-.8-2.7-2.4,0-4.9,25.9-27.8,30.7-33.3Zm66.4,43.6c.2,0,.3,0,.5-.1,1.8-.2,2.9-.6,4.5-1.5-.9,1.6-1.9,3.1-2.3,5-.2,.4-.3,.5-.6,.9-5,6.2-31.5,33.6-37.3,33.7-1.1,0-1.1-.4-1.8-1.1,.5-3.7,32-32.6,37-36.9h0Zm-51.5-33.8c1.8,.5,2.9,.7,3.9,2.4-.7,4.8-26.9,32-32.3,36.9-1-.6-2.1-1.2-3-2-1.2-1-1.3-1.7-1.4-3.2,3.6-4.8,8.3-8.9,12.5-13.2,6.8-7,13.3-14,20.3-20.9h0Zm6.3,6.7h.5c2.4,.5,4,4,5.2,5.9-8.4,10.6-21.8,22.2-32,31.4l-1.5,.5c-1.7-.7-1.9-.7-2.8-2.3,.9-4.9,26-30.5,30.6-35.5h0Zm45.9-22.8l.7,.6-.3,1.3c-3.2,3.5-7,6.3-10.5,9.5-5.5,5.1-10.8,10.5-16.1,15.8-7.7,7.5-15.3,15.1-22.8,22.8-4.5,4.6-8.7,9.6-13.3,14.1-1.5,1.4-3,2.5-5.1,3-.1-.1-.2-.2-.3-.2-1.3-1.2-2.2-1.8-2.3-3.6,7.9-9.9,18.5-17.2,27.5-25.9,16.3-16,17.2-28.4,42.5-37.4h0Zm8.7-.1c1-.1,2.1,.1,3.1,.2l.7,1.2c-1.8,5.2-63.8,64.5-70.9,70.1-1.1,.5-1.5,.4-2.7,.2l-1-1.3c1.1-5.7,61.3-63.7,70.8-70.4Zm13.1,14.9l1,.4c1.1,1.5,1.4,2.7,1.3,4.6-.1,2.5-2.4,4.9-4,6.6-6,6.5-13.6,12-20,18.1-13.8,13.2-27.3,27.4-42,39.6-1.6-.7-2.2-.8-3.3-2.4,.8-4.6,58.9-59.8,67-66.9Zm-4.8-11.1c1.4,0,2.6,.4,3.6,1.5,1.3,1.4,1.3,2,1.2,3.8-6.8,8-15.3,14.8-22.8,22.2-12.6,12.5-34.8,38.4-49,46.9-.8-.1-1.8-.2-2.5-.5-1.7-.8-2.5-1.4-3.2-3.1,6.6-7.5,14.6-14.1,21.7-21.2,16.7-16.7,33.3-34,51-49.6h0Z"/></svg>