<svg width="24" height="24" viewBox="0 0 24 24" fill="none" xmlns="http://www.w3.org/2000/svg">
<path d="M17.1431 9H16.286V7.28571C16.286 4.92 14.366 3 12.0002 3C9.63453 3 7.71453 4.92 7.71453 7.28571V9H6.85738C5.91453 9 5.1431 9.77143 5.1431 10.7143V19.2857C5.1431 20.2286 5.91453 21 6.85738 21H17.1431C18.086 21 18.8574 20.2286 18.8574 19.2857V10.7143C18.8574 9.77143 18.086 9 17.1431 9ZM12.0002 16.7143C11.0574 16.7143 10.286 15.9429 10.286 15C10.286 14.0571 11.0574 13.2857 12.0002 13.2857C12.9431 13.2857 13.7145 14.0571 13.7145 15C13.7145 15.9429 12.9431 16.7143 12.0002 16.7143ZM9.42881 9V7.28571C9.42881 5.86286 10.5774 4.71429 12.0002 4.71429C13.4231 4.71429 14.5717 5.86286 14.5717 7.28571V9H9.42881Z" fill="white"/>
</svg>
