<svg width="24" height="24" viewBox="0 0 24 24" fill="none" xmlns="http://www.w3.org/2000/svg">
<path d="M16.2634 21.4737V18.6316H13.4213V16.7369H16.2634V13.8948H18.1581V16.7369H21.0002V18.6316H18.1581V21.4737H16.2634ZM4.89498 19.579C4.37393 19.579 3.92788 19.3935 3.55682 19.0224C3.18577 18.6514 3.00024 18.2053 3.00024 17.6843V6.31584C3.00024 5.79479 3.18577 5.34874 3.55682 4.97768C3.92788 4.60663 4.37393 4.4211 4.89498 4.4211H5.84235V2.52637H7.73709V4.4211H13.4213V2.52637H15.316V4.4211H16.2634C16.7845 4.4211 17.2305 4.60663 17.6016 4.97768C17.9726 5.34874 18.1581 5.79479 18.1581 6.31584V12.0948C17.8424 12.0474 17.5266 12.0237 17.2108 12.0237C16.895 12.0237 16.5792 12.0474 16.2634 12.0948V10.1053H4.89498V17.6843H11.5266C11.5266 18.0001 11.5502 18.3158 11.5976 18.6316C11.645 18.9474 11.7318 19.2632 11.8581 19.579H4.89498ZM4.89498 8.21058H16.2634V6.31584H4.89498V8.21058Z" fill="white"/>
</svg>
