<svg width="24" height="24" viewBox="0 0 24 24" fill="none" xmlns="http://www.w3.org/2000/svg">
<path d="M12.0003 12.1475C13.0065 12.1475 13.8298 11.3242 13.8298 10.318C13.8298 9.31178 13.0065 8.4885 12.0003 8.4885C10.994 8.4885 10.1708 9.31178 10.1708 10.318C10.1708 11.3242 10.994 12.1475 12.0003 12.1475ZM12.0003 3C15.8422 3 19.3183 5.9455 19.3183 10.501C19.3183 13.4099 17.0771 16.831 12.604 20.7736C12.2564 21.0755 11.735 21.0755 11.3874 20.7736C6.92339 16.831 4.68225 13.4099 4.68225 10.501C4.68225 5.9455 8.1583 3 12.0003 3Z" fill="white"/>
</svg>
