<svg width="24" height="24" viewBox="0 0 24 24" fill="none" xmlns="http://www.w3.org/2000/svg">
<path d="M6.65972 17.3276L3.34937 15.5172L4.43558 14.431L7.02179 14.7931L11.0563 10.7586L2.9873 6.36207L4.43558 4.91379L14.3149 7.44828L18.3752 3.43966C18.6683 3.14655 19.0347 3 19.4744 3C19.914 3 20.2804 3.14655 20.5735 3.43966C20.8666 3.73276 21.0132 4.09914 21.0132 4.53879C21.0132 4.97845 20.8666 5.34483 20.5735 5.63793L16.539 9.67241L19.0735 19.5517L17.6252 21L13.2287 12.931L9.1942 16.9655L9.55627 19.5517L8.47006 20.6379L6.65972 17.3276Z" fill="white"/>
</svg>
