<svg width="24" height="24" viewBox="0 0 24 24" fill="none" xmlns="http://www.w3.org/2000/svg">
<path d="M19.0002 3H5.00024C3.90024 3 3.01024 3.9 3.01024 5L3.00024 19C3.00024 20.1 3.90024 21 5.00024 21H19.0002C20.1002 21 21.0002 20.1 21.0002 19V5C21.0002 3.9 20.1002 3 19.0002 3ZM17.0002 14H14.0002V17C14.0002 17.55 13.5502 18 13.0002 18H11.0002C10.4502 18 10.0002 17.55 10.0002 17V14H7.00024C6.45024 14 6.00024 13.55 6.00024 13V11C6.00024 10.45 6.45024 10 7.00024 10H10.0002V7C10.0002 6.45 10.4502 6 11.0002 6H13.0002C13.5502 6 14.0002 6.45 14.0002 7V10H17.0002C17.5502 10 18.0002 10.45 18.0002 11V13C18.0002 13.55 17.5502 14 17.0002 14Z" fill="white"/>
</svg>
