<svg width="24" height="24" viewBox="0 0 24 24" fill="none" xmlns="http://www.w3.org/2000/svg">
<path d="M20.0639 17.4281C19.5299 16.9521 19.0624 16.4063 18.674 15.8056C18.2499 14.9764 17.9957 14.0708 17.9264 13.142V10.4065C17.9301 8.94767 17.4009 7.53774 16.4383 6.44158C15.4757 5.34542 14.146 4.63849 12.6989 4.45361V3.73926C12.6989 3.5432 12.621 3.35516 12.4824 3.21653C12.3438 3.07789 12.1557 3 11.9597 3C11.7636 3 11.5756 3.07789 11.4369 3.21653C11.2983 3.35516 11.2204 3.5432 11.2204 3.73926V4.46468C9.78632 4.66289 8.47266 5.37409 7.52272 6.46657C6.57278 7.55905 6.05095 8.95877 6.05387 10.4065V13.142C5.98451 14.0708 5.73035 14.9764 5.3063 15.8056C4.92469 16.405 4.4647 16.9506 3.93852 17.4281C3.87945 17.48 3.83211 17.5439 3.79965 17.6155C3.76719 17.6871 3.75034 17.7648 3.75024 17.8434V18.5965C3.75024 18.7434 3.80859 18.8842 3.91244 18.9881C4.01628 19.0919 4.15713 19.1503 4.304 19.1503H19.6984C19.8453 19.1503 19.9861 19.0919 20.09 18.9881C20.1938 18.8842 20.2522 18.7434 20.2522 18.5965V17.8434C20.2521 17.7648 20.2352 17.6871 20.2028 17.6155C20.1703 17.5439 20.123 17.48 20.0639 17.4281ZM4.90206 18.0428C5.41727 17.5451 5.87091 16.9873 6.25322 16.3815C6.78738 15.38 7.09904 14.275 7.16692 13.142V10.4065C7.14495 9.7575 7.25381 9.11074 7.48701 8.5047C7.72021 7.89867 8.07298 7.34575 8.52431 6.87889C8.97564 6.41203 9.5163 6.04076 10.1141 5.7872C10.7119 5.53364 11.3546 5.40297 12.004 5.40297C12.6533 5.40297 13.296 5.53364 13.8938 5.7872C14.4916 6.04076 15.0323 6.41203 15.4836 6.87889C15.935 7.34575 16.2877 7.89867 16.5209 8.5047C16.7541 9.11074 16.863 9.7575 16.841 10.4065V13.142C16.9089 14.275 17.2206 15.38 17.7547 16.3815C18.137 16.9873 18.5907 17.5451 19.1059 18.0428H4.90206Z" fill="white"/>
<path d="M12.0289 20.9999C12.3777 20.9918 12.7124 20.8607 12.9739 20.6296C13.2354 20.3986 13.4067 20.0825 13.4576 19.7373H10.5448C10.5971 20.0919 10.7764 20.4154 11.0494 20.6476C11.3224 20.8799 11.6705 21.005 12.0289 20.9999Z" fill="white"/>
</svg>
