<svg width="24" height="24" viewBox="0 0 24 24" fill="none" xmlns="http://www.w3.org/2000/svg">
<path d="M12.0002 12.5625C13.2227 12.5625 14.3027 12.855 15.1802 13.2375C15.9902 13.5975 16.5002 14.4075 16.5002 15.285V15.75C16.5002 16.1625 16.1627 16.5 15.7502 16.5H8.25024C7.83774 16.5 7.50024 16.1625 7.50024 15.75V15.2925C7.50024 14.4075 8.01024 13.5975 8.82024 13.245C9.69774 12.855 10.7777 12.5625 12.0002 12.5625ZM6.00024 12.75C6.82524 12.75 7.50024 12.075 7.50024 11.25C7.50024 10.425 6.82524 9.75 6.00024 9.75C5.17524 9.75 4.50024 10.425 4.50024 11.25C4.50024 12.075 5.17524 12.75 6.00024 12.75ZM6.84774 13.575C6.57024 13.53 6.29274 13.5 6.00024 13.5C5.25774 13.5 4.55274 13.6575 3.91524 13.935C3.36024 14.175 3.00024 14.715 3.00024 15.3225V15.75C3.00024 16.1625 3.33774 16.5 3.75024 16.5H6.37524V15.2925C6.37524 14.67 6.54774 14.085 6.84774 13.575ZM18.0002 12.75C18.8252 12.75 19.5002 12.075 19.5002 11.25C19.5002 10.425 18.8252 9.75 18.0002 9.75C17.1752 9.75 16.5002 10.425 16.5002 11.25C16.5002 12.075 17.1752 12.75 18.0002 12.75ZM21.0002 15.3225C21.0002 14.715 20.6402 14.175 20.0852 13.935C19.4477 13.6575 18.7427 13.5 18.0002 13.5C17.7077 13.5 17.4302 13.53 17.1527 13.575C17.4527 14.085 17.6252 14.67 17.6252 15.2925V16.5H20.2502C20.6627 16.5 21.0002 16.1625 21.0002 15.75V15.3225ZM12.0002 7.5C13.2452 7.5 14.2502 8.505 14.2502 9.75C14.2502 10.995 13.2452 12 12.0002 12C10.7552 12 9.75024 10.995 9.75024 9.75C9.75024 8.505 10.7552 7.5 12.0002 7.5Z" fill="white"/>
</svg>
