<svg width="24" height="24" viewBox="0 0 24 24" fill="none" xmlns="http://www.w3.org/2000/svg">
<path d="M7.50024 16.5H9.30024V15H11.1002V13.5H9.30024V12H7.50024V13.5H5.70024V15H7.50024V16.5ZM12.9002 13.875H18.3002V12.75H12.9002V13.875ZM12.9002 16.125H16.5002V15H12.9002V16.125ZM4.80024 19.5C4.30524 19.5 3.88149 19.3531 3.52899 19.0594C3.17649 18.7656 3.00024 18.4125 3.00024 18V9.75C3.00024 9.3375 3.17649 8.98438 3.52899 8.69063C3.88149 8.39688 4.30524 8.25 4.80024 8.25H9.30024V6C9.30024 5.5875 9.47649 5.23438 9.82899 4.94063C10.1815 4.64688 10.6052 4.5 11.1002 4.5H12.9002C13.3952 4.5 13.819 4.64688 14.1715 4.94063C14.524 5.23438 14.7002 5.5875 14.7002 6V8.25H19.2002C19.6952 8.25 20.119 8.39688 20.4715 8.69063C20.824 8.98438 21.0002 9.3375 21.0002 9.75V18C21.0002 18.4125 20.824 18.7656 20.4715 19.0594C20.119 19.3531 19.6952 19.5 19.2002 19.5H4.80024ZM4.80024 18H19.2002V9.75H14.7002C14.7002 10.1625 14.524 10.5156 14.1715 10.8094C13.819 11.1031 13.3952 11.25 12.9002 11.25H11.1002C10.6052 11.25 10.1815 11.1031 9.82899 10.8094C9.47649 10.5156 9.30024 10.1625 9.30024 9.75H4.80024V18ZM11.1002 9.75H12.9002V6H11.1002V9.75Z" fill="white"/>
</svg>
