<svg width="24" height="24" viewBox="0 0 24 24" fill="none" xmlns="http://www.w3.org/2000/svg">
<path d="M4.80024 17.1749V9.97495V10.2675V6.37495V17.1749ZM17.3102 19.4249L14.1602 16.275C13.9652 16.08 13.8265 15.87 13.744 15.6449C13.6615 15.42 13.6202 15.195 13.6202 14.97C13.6202 14.49 13.7927 14.0625 14.1377 13.6875C14.4827 13.3125 14.9252 13.125 15.4652 13.125C15.8852 13.125 16.2152 13.2225 16.4552 13.4174C16.6952 13.6125 16.9802 13.875 17.3102 14.205C17.6102 13.905 17.884 13.65 18.1315 13.44C18.379 13.23 18.7202 13.125 19.1552 13.125C19.7102 13.125 20.1565 13.3162 20.494 13.6987C20.8315 14.0812 21.0002 14.5125 21.0002 14.9924C21.0002 15.2175 20.9552 15.4424 20.8652 15.6674C20.7752 15.8925 20.6402 16.0949 20.4602 16.275L17.3102 19.4249ZM4.80024 8.17495H19.2002V6.37495H4.80024V8.17495ZM11.6177 18.9749H4.80024C4.30524 18.9749 3.88149 18.7987 3.52899 18.4462C3.17649 18.0937 3.00024 17.6699 3.00024 17.1749V6.37495C3.00024 5.87995 3.17649 5.4562 3.52899 5.1037C3.88149 4.7512 4.30524 4.57495 4.80024 4.57495H19.2002C19.6952 4.57495 20.119 4.7512 20.4715 5.1037C20.824 5.4562 21.0002 5.87995 21.0002 6.37495V11.1675C20.4752 10.7925 19.9015 10.5 19.279 10.29C18.6565 10.08 18.0002 9.97495 17.3102 9.97495C16.4552 9.97495 15.649 10.1362 14.8915 10.4587C14.134 10.7812 13.4702 11.22 12.9002 11.775H4.80024V17.1749H11.0777C11.1227 17.49 11.1902 17.7975 11.2802 18.0975C11.3702 18.3975 11.4827 18.6899 11.6177 18.9749Z" fill="white"/>
</svg>
