<svg width="24" height="24" viewBox="0 0 24 24" fill="none" xmlns="http://www.w3.org/2000/svg">
<path d="M19.2366 15.2748L16.6915 14.9842C16.0803 14.914 15.479 15.1245 15.0482 15.5553L13.2045 17.3991C10.3687 15.9561 8.04404 13.6415 6.60112 10.7957L8.45487 8.94199C8.88574 8.51112 9.09616 7.90991 9.02602 7.29868L8.73543 4.77358C8.61519 3.76154 7.76347 3 6.74141 3H5.00791C3.87562 3 2.93372 3.9419 3.00386 5.07419C3.53494 13.6315 10.3787 20.4652 18.926 20.9963C20.0583 21.0665 21.0002 20.1246 21.0002 18.9923V17.2588C21.0102 16.2467 20.2487 15.395 19.2366 15.2748Z" fill="white"/>
</svg>
